<svg width="20" height="20" viewBox="0 0 20 20" fill="none" xmlns="http://www.w3.org/2000/svg">
<path d="M6.6 2.6V1.4C6.6 1.29391 6.64214 1.19217 6.71716 1.11716C6.79217 1.04214 6.89391 1 7 1C7.10609 1 7.20783 1.04214 7.28284 1.11716C7.35786 1.19217 7.4 1.29391 7.4 1.4V2.6C7.4 2.70609 7.35786 2.80783 7.28284 2.88284C7.20783 2.95786 7.10609 3 7 3C6.89391 3 6.79217 2.95786 6.71716 2.88284C6.64214 2.80783 6.6 2.70609 6.6 2.6ZM7 3.8C6.3671 3.8 5.74841 3.98768 5.22218 4.3393C4.69594 4.69092 4.28579 5.19069 4.04359 5.77541C3.80139 6.36014 3.73801 7.00355 3.86149 7.62429C3.98496 8.24503 4.28973 8.81521 4.73726 9.26274C5.18479 9.71027 5.75497 10.015 6.37571 10.1385C6.99645 10.262 7.63986 10.1986 8.22459 9.95642C8.80931 9.71421 9.30908 9.30406 9.6607 8.77782C10.0123 8.25159 10.2 7.6329 10.2 7C10.1991 6.15159 9.86163 5.3382 9.26172 4.73828C8.6618 4.13837 7.84841 3.80093 7 3.8ZM3.517 4.083C3.59206 4.15806 3.69385 4.20022 3.8 4.20022C3.90615 4.20022 4.00794 4.15806 4.083 4.083C4.15806 4.00794 4.20022 3.90615 4.20022 3.8C4.20022 3.69385 4.15806 3.59206 4.083 3.517L3.283 2.717C3.20794 2.64194 3.10615 2.59978 3 2.59978C2.89385 2.59978 2.79206 2.64194 2.717 2.717C2.64194 2.79206 2.59978 2.89385 2.59978 3C2.59978 3.10615 2.64194 3.20794 2.717 3.283L3.517 4.083ZM3.517 9.917L2.717 10.717C2.64194 10.7921 2.59978 10.8939 2.59978 11C2.59978 11.1061 2.64194 11.2079 2.717 11.283C2.79206 11.3581 2.89385 11.4002 3 11.4002C3.10615 11.4002 3.20794 11.3581 3.283 11.283L4.083 10.483C4.12016 10.4458 4.14964 10.4017 4.16976 10.3532C4.18987 10.3046 4.20022 10.2526 4.20022 10.2C4.20022 10.1474 4.18987 10.0954 4.16976 10.0468C4.14964 9.99828 4.12016 9.95416 4.083 9.917C4.04584 9.87984 4.00172 9.85036 3.95316 9.83024C3.9046 9.81013 3.85256 9.79978 3.8 9.79978C3.74744 9.79978 3.6954 9.81013 3.64684 9.83024C3.59828 9.85036 3.55416 9.87984 3.517 9.917ZM10.2 4.2C10.2525 4.20004 10.3046 4.18973 10.3531 4.16965C10.4017 4.14958 10.4458 4.12013 10.483 4.083L11.283 3.283C11.3581 3.20794 11.4002 3.10615 11.4002 3C11.4002 2.89385 11.3581 2.79206 11.283 2.717C11.2079 2.64194 11.1061 2.59978 11 2.59978C10.8939 2.59978 10.7921 2.64194 10.717 2.717L9.917 3.517C9.861 3.57294 9.82285 3.64424 9.80739 3.72188C9.79193 3.79951 9.79985 3.87999 9.83015 3.95312C9.86045 4.02625 9.91177 4.08874 9.97761 4.13269C10.0434 4.17664 10.1208 4.20006 10.2 4.2ZM10.483 9.917C10.4079 9.84194 10.3061 9.79978 10.2 9.79978C10.0939 9.79978 9.99206 9.84194 9.917 9.917C9.84194 9.99206 9.79978 10.0939 9.79978 10.2C9.79978 10.3061 9.84194 10.4079 9.917 10.483L10.717 11.283C10.7542 11.3202 10.7983 11.3496 10.8468 11.3698C10.8954 11.3899 10.9474 11.4002 11 11.4002C11.0526 11.4002 11.1046 11.3899 11.1532 11.3698C11.2017 11.3496 11.2458 11.3202 11.283 11.283C11.3202 11.2458 11.3496 11.2017 11.3698 11.1532C11.3899 11.1046 11.4002 11.0526 11.4002 11C11.4002 10.9474 11.3899 10.8954 11.3698 10.8468C11.3496 10.7983 11.3202 10.7542 11.283 10.717L10.483 9.917ZM3 7C3 6.89391 2.95786 6.79217 2.88284 6.71716C2.80783 6.64214 2.70609 6.6 2.6 6.6H1.4C1.29391 6.6 1.19217 6.64214 1.11716 6.71716C1.04214 6.79217 1 6.89391 1 7C1 7.10609 1.04214 7.20783 1.11716 7.28284C1.19217 7.35786 1.29391 7.4 1.4 7.4H2.6C2.70609 7.4 2.80783 7.35786 2.88284 7.28284C2.95786 7.20783 3 7.10609 3 7ZM7 11C6.89391 11 6.79217 11.0421 6.71716 11.1172C6.64214 11.1922 6.6 11.2939 6.6 11.4V12.6C6.6 12.7061 6.64214 12.8078 6.71716 12.8828C6.79217 12.9579 6.89391 13 7 13C7.10609 13 7.20783 12.9579 7.28284 12.8828C7.35786 12.8078 7.4 12.7061 7.4 12.6V11.4C7.4 11.2939 7.35786 11.1922 7.28284 11.1172C7.20783 11.0421 7.10609 11 7 11ZM12.6 6.6H11.4C11.2939 6.6 11.1922 6.64214 11.1172 6.71716C11.0421 6.79217 11 6.89391 11 7C11 7.10609 11.0421 7.20783 11.1172 7.28284C11.1922 7.35786 11.2939 7.4 11.4 7.4H12.6C12.7061 7.4 12.8078 7.35786 12.8828 7.28284C12.9579 7.20783 13 7.10609 13 7C13 6.89391 12.9579 6.79217 12.8828 6.71716C12.8078 6.64214 12.7061 6.6 12.6 6.6Z" fill="#FFAF8A"/>
<path d="M19 12.0005C18.9983 13.5912 18.3657 15.1162 17.2408 16.241C16.116 17.3657 14.5908 17.9983 13 18H7C4.79375 18 3 16.1564 3 13.8891C3 11.6218 4.79375 9.77818 7 9.77818C7.13947 9.77816 7.27884 9.78567 7.4175 9.80068C7.92958 8.5008 8.87929 7.42038 10.1028 6.74577C11.3263 6.07117 12.747 5.84469 14.1196 6.10539C15.4923 6.3661 16.7309 7.09764 17.6219 8.17384C18.5128 9.25004 19.0002 10.6034 19 12.0005Z" fill="white"/>
</svg>
