<svg width="20" height="20" viewBox="0 0 20 20" fill="none" xmlns="http://www.w3.org/2000/svg">
<path d="M7.37982 1.01982C8.41414 1.3366 9.32218 1.97145 9.97473 2.83404C10.5448 3.59137 10.8926 4.49257 10.9788 5.43649C11.0651 6.38042 10.8865 7.3297 10.4632 8.1778C10.0398 9.02589 9.38836 9.73923 8.582 10.2377C7.77565 10.7363 6.84628 11.0002 5.89821 11C4.79161 11.0034 3.71446 10.6437 2.83199 9.97617C1.96921 9.32377 1.33422 8.41593 1.01737 7.38184C0.996383 7.31368 0.994373 7.2411 1.01156 7.17189C1.02875 7.10267 1.06448 7.03946 1.11492 6.98903C1.16535 6.93861 1.22859 6.90288 1.29781 6.8857C1.36704 6.86851 1.43964 6.87052 1.50781 6.89151C2.25594 7.11763 3.05141 7.13659 3.80947 6.94637C4.56752 6.75614 5.25976 6.36387 5.81241 5.81134C6.36506 5.25881 6.75742 4.56673 6.94769 3.80884C7.13795 3.05096 7.11899 2.25566 6.89282 1.5077C6.87183 1.43954 6.86982 1.36696 6.887 1.29775C6.90419 1.22853 6.93992 1.16532 6.99036 1.11489C7.0408 1.06447 7.10403 1.02874 7.17326 1.01156C7.24248 0.994374 7.31508 0.996383 7.38326 1.01737L7.37982 1.01982Z" fill="#FFAF8A"/>
<path d="M19 12.0005C18.9983 13.5912 18.3657 15.1162 17.2408 16.241C16.116 17.3657 14.5908 17.9983 13 18H7C4.79375 18 3 16.1564 3 13.8891C3 11.6218 4.79375 9.77818 7 9.77818C7.13947 9.77816 7.27884 9.78567 7.4175 9.80068C7.92958 8.5008 8.87929 7.42038 10.1028 6.74577C11.3263 6.07117 12.747 5.84469 14.1196 6.10539C15.4923 6.3661 16.7309 7.09764 17.6219 8.17384C18.5128 9.25004 19.0002 10.6034 19 12.0005Z" fill="white"/>
</svg>
