<svg width="20" height="20" viewBox="0 0 20 20" fill="none" xmlns="http://www.w3.org/2000/svg">
<path d="M18.1149 6.83986C18.0262 5.32279 17.3592 3.89747 16.2512 2.85741C15.1432 1.81734 13.6786 1.24169 12.159 1.249C10.6393 1.25631 9.18034 1.84602 8.08241 2.89669C6.98448 3.94737 6.33121 5.37904 6.2571 6.89689C6.24798 7.05887 6.17761 7.21131 6.06024 7.32331C5.94287 7.43531 5.7873 7.49849 5.62507 7.50001H5.57819C5.41321 7.48527 5.26048 7.40673 5.15251 7.28111C5.04454 7.15548 4.98985 6.99269 5.00007 6.82736C5.02179 6.39281 5.08271 5.9611 5.1821 5.53751C5.19492 5.48433 5.19356 5.42871 5.17814 5.37621C5.16273 5.32372 5.1338 5.27619 5.09425 5.23839C5.0547 5.20058 5.00593 5.17382 4.95279 5.16078C4.89966 5.14774 4.84403 5.14887 4.79148 5.16408C3.94545 5.41403 3.20356 5.93213 2.67755 6.64033C2.15155 7.34853 1.86991 8.20848 1.87507 9.09064C1.89069 11.3336 3.75944 13.125 6.00319 13.125H12.1876C12.9963 13.1241 13.7964 12.9582 14.5388 12.6374C15.2811 12.3166 15.9503 11.8476 16.5051 11.2592C17.06 10.6709 17.489 9.97546 17.7658 9.21556C18.0426 8.45566 18.1614 7.64726 18.1149 6.83986Z" fill="white"/>
<path d="M12.9419 17.9419C13.0592 17.8247 13.125 17.6658 13.125 17.5C13.125 17.3342 13.0592 17.1753 12.9419 17.0581C12.8247 16.9408 12.6658 16.875 12.5 16.875H8.125C7.95924 16.875 7.80027 16.9408 7.68306 17.0581C7.56585 17.1753 7.5 17.3342 7.5 17.5C7.5 17.6658 7.56585 17.8247 7.68306 17.9419C7.80027 18.0592 7.95924 18.125 8.125 18.125H12.5C12.6658 18.125 12.8247 18.0592 12.9419 17.9419Z" fill="#FFAF8A"/>
<path d="M9.81694 14.5581C9.93415 14.6753 10 14.8342 10 15C10 15.1658 9.93415 15.3247 9.81694 15.4419C9.69973 15.5592 9.54076 15.625 9.375 15.625H5.625C5.45924 15.625 5.30027 15.5592 5.18306 15.4419C5.06585 15.3247 5 15.1658 5 15C5 14.8342 5.06585 14.6753 5.18306 14.5581C5.30027 14.4408 5.45924 14.375 5.625 14.375H9.375C9.54076 14.375 9.69973 14.4408 9.81694 14.5581Z" fill="#FFAF8A"/>
<path d="M12.5 14.375H14.375C14.5408 14.375 14.6997 14.4408 14.8169 14.5581C14.9342 14.6753 15 14.8342 15 15C15 15.1658 14.9342 15.3247 14.8169 15.4419C14.6997 15.5592 14.5408 15.625 14.375 15.625H12.5C12.3342 15.625 12.1753 15.5592 12.0581 15.4419C11.9408 15.3247 11.875 15.1658 11.875 15C11.875 14.8342 11.9408 14.6753 12.0581 14.5581C12.1753 14.4408 12.3342 14.375 12.5 14.375Z" fill="#FFAF8A"/>
</svg>
