<svg width="20" height="20" viewBox="0 0 20 20" fill="none" xmlns="http://www.w3.org/2000/svg">
<path d="M9.81793 14.9713L11.0007 13H9.46802L8.09384 15.29C8.03393 15.3897 8.00157 15.5036 8.00006 15.6199C7.99855 15.7362 8.02794 15.8509 8.08525 15.9521C8.14255 16.0534 8.2257 16.1376 8.32621 16.1961C8.42672 16.2547 8.54098 16.2856 8.65731 16.2855H10.7822L9.40806 18.5756C9.36362 18.6496 9.33419 18.7316 9.32145 18.817C9.3087 18.9023 9.3129 18.9894 9.3338 19.0731C9.3547 19.1569 9.39189 19.2357 9.44325 19.305C9.4946 19.3744 9.55912 19.433 9.63312 19.4774C9.70711 19.5219 9.78914 19.5513 9.87451 19.5641C9.95988 19.5768 10.0469 19.5726 10.1307 19.5517C10.2144 19.5308 10.2932 19.4936 10.3626 19.4423C10.432 19.3909 10.4906 19.3264 10.535 19.2524L12.5063 15.9668C12.5662 15.8671 12.5986 15.7533 12.6001 15.637C12.6016 15.5206 12.5722 15.406 12.5149 15.3048C12.4576 15.2035 12.3745 15.1193 12.274 15.0607C12.1734 15.0021 12.0592 14.9713 11.9429 14.9713H9.81793Z" fill="#FFAF8A"/>
<path d="M18.1149 6.83986C18.0262 5.32279 17.3592 3.89747 16.2512 2.85741C15.1432 1.81734 13.6786 1.24169 12.159 1.249C10.6393 1.25631 9.18034 1.84602 8.08241 2.89669C6.98448 3.94737 6.33121 5.37904 6.2571 6.89689C6.24798 7.05887 6.17761 7.21131 6.06024 7.32331C5.94287 7.43531 5.7873 7.49849 5.62507 7.50001H5.57819C5.41321 7.48527 5.26048 7.40673 5.15251 7.28111C5.04454 7.15548 4.98985 6.99269 5.00007 6.82736C5.02179 6.39281 5.08271 5.9611 5.1821 5.53751C5.19492 5.48433 5.19356 5.42871 5.17814 5.37621C5.16273 5.32372 5.1338 5.27619 5.09425 5.23839C5.0547 5.20058 5.00593 5.17382 4.95279 5.16078C4.89966 5.14774 4.84403 5.14887 4.79148 5.16408C3.94545 5.41403 3.20356 5.93213 2.67755 6.64033C2.15155 7.34853 1.86991 8.20848 1.87507 9.09064C1.89069 11.3336 3.75944 13.125 6.00319 13.125H12.1876C12.9963 13.1241 13.7964 12.9582 14.5388 12.6374C15.2811 12.3166 15.9503 11.8476 16.5051 11.2592C17.06 10.6709 17.489 9.97546 17.7658 9.21556C18.0426 8.45566 18.1614 7.64726 18.1149 6.83986Z" fill="white"/>
</svg>
