<svg width="20" height="20" viewBox="0 0 20 20" fill="none" xmlns="http://www.w3.org/2000/svg">
<path d="M7.9733 15.8949C8.04154 15.8492 8.1001 15.7905 8.14565 15.7222L10.6457 11.9722C10.7376 11.8342 10.7711 11.6653 10.7385 11.5027C10.706 11.3401 10.6102 11.197 10.4722 11.105C10.3342 11.013 10.1653 10.9796 10.0027 11.0121C9.84007 11.0447 9.69702 11.1405 9.60503 11.2785L7.10503 15.0285C7.01303 15.1665 6.97962 15.3354 7.01215 15.498C7.04467 15.6606 7.14047 15.8037 7.27847 15.8957C7.41646 15.9877 7.58535 16.0211 7.74798 15.9885C7.82851 15.9724 7.90507 15.9406 7.9733 15.8949Z" fill="#FFAF8A"/>
<path d="M9.72281 19.2696C9.79105 19.2239 9.84961 19.1652 9.89517 19.0969L12.3952 15.3469C12.4872 15.2089 12.5206 15.04 12.488 14.8774C12.4555 14.7147 12.3597 14.5717 12.2217 14.4797C12.0837 14.3877 11.9148 14.3543 11.7522 14.3868C11.5896 14.4193 11.4465 14.5151 11.3545 14.6531L8.85454 18.4031C8.76254 18.5411 8.72913 18.71 8.76166 18.8726C8.79418 19.0353 8.88998 19.1783 9.02798 19.2703C9.16597 19.3623 9.33486 19.3957 9.49749 19.3632C9.57802 19.3471 9.65458 19.3153 9.72281 19.2696Z" fill="#FFAF8A"/>
<path d="M18.1149 6.83986C18.0262 5.32279 17.3592 3.89747 16.2512 2.85741C15.1432 1.81734 13.6786 1.24169 12.159 1.249C10.6393 1.25631 9.18034 1.84602 8.08241 2.89669C6.98448 3.94737 6.33121 5.37904 6.2571 6.89689C6.24798 7.05887 6.17761 7.21131 6.06024 7.32331C5.94287 7.43531 5.7873 7.49849 5.62507 7.50001H5.57819C5.41321 7.48527 5.26048 7.40673 5.15251 7.28111C5.04454 7.15548 4.98985 6.99269 5.00007 6.82736C5.02179 6.39281 5.08271 5.9611 5.1821 5.53751C5.19492 5.48433 5.19356 5.42871 5.17814 5.37621C5.16273 5.32372 5.1338 5.27619 5.09425 5.23839C5.0547 5.20058 5.00593 5.17382 4.95279 5.16078C4.89966 5.14774 4.84403 5.14887 4.79148 5.16408C3.94545 5.41403 3.20356 5.93213 2.67755 6.64033C2.15155 7.34853 1.86991 8.20848 1.87507 9.09064C1.89069 11.3336 3.75944 13.125 6.00319 13.125H12.1876C12.9963 13.1241 13.7964 12.9582 14.5388 12.6374C15.2811 12.3166 15.9503 11.8476 16.5051 11.2592C17.06 10.6709 17.489 9.97546 17.7658 9.21556C18.0426 8.45566 18.1614 7.64726 18.1149 6.83986Z" fill="white"/>
</svg>
