<svg width="20" height="20" viewBox="0 0 20 20" fill="none" xmlns="http://www.w3.org/2000/svg">
<path d="M18.1149 6.83986C18.0262 5.32279 17.3592 3.89747 16.2512 2.85741C15.1432 1.81734 13.6786 1.24169 12.159 1.249C10.6393 1.25631 9.18034 1.84602 8.08241 2.89669C6.98448 3.94737 6.33121 5.37904 6.2571 6.89689C6.24798 7.05887 6.17761 7.21131 6.06024 7.32331C5.94287 7.43531 5.7873 7.49849 5.62507 7.50001H5.57819C5.41321 7.48527 5.26048 7.40673 5.15251 7.28111C5.04454 7.15548 4.98985 6.99269 5.00007 6.82736C5.02179 6.39281 5.08271 5.9611 5.1821 5.53751C5.19492 5.48433 5.19356 5.42871 5.17814 5.37621C5.16273 5.32372 5.1338 5.27619 5.09425 5.23839C5.0547 5.20058 5.00593 5.17382 4.95279 5.16078C4.89966 5.14774 4.84403 5.14887 4.79148 5.16408C3.94545 5.41403 3.20356 5.93213 2.67755 6.64033C2.15155 7.34853 1.86991 8.20848 1.87507 9.09064C1.89069 11.3336 3.75944 13.125 6.00319 13.125H12.1876C12.9963 13.1241 13.7964 12.9582 14.5388 12.6374C15.2811 12.3166 15.9503 11.8476 16.5051 11.2592C17.06 10.6709 17.489 9.97546 17.7658 9.21556C18.0426 8.45566 18.1614 7.64726 18.1149 6.83986Z" fill="white"/>
<path d="M6.27218 15.4242C6.37519 15.27 6.43018 15.0887 6.43018 14.9033C6.43018 14.6547 6.3314 14.4162 6.15559 14.2404C5.97977 14.0646 5.74132 13.9658 5.49268 13.9658C5.30726 13.9658 5.126 14.0208 4.97183 14.1238C4.81766 14.2268 4.6975 14.3732 4.62654 14.5446C4.55558 14.7159 4.53702 14.9044 4.57319 15.0862C4.60936 15.2681 4.69865 15.4351 4.82976 15.5662C4.96088 15.6973 5.12792 15.7866 5.30978 15.8228C5.49164 15.859 5.68014 15.8404 5.85144 15.7695C6.02275 15.6985 6.16917 15.5783 6.27218 15.4242Z" fill="#FFAF8A"/>
<path d="M8.09683 15.3738C8.251 15.2708 8.43226 15.2158 8.61768 15.2158C8.86632 15.2158 9.10477 15.3146 9.28059 15.4904C9.4564 15.6662 9.55518 15.9047 9.55518 16.1533C9.55518 16.3387 9.50019 16.52 9.39718 16.6742C9.29417 16.8283 9.14775 16.9485 8.97644 17.0195C8.80514 17.0904 8.61664 17.109 8.43478 17.0728C8.25292 17.0366 8.08588 16.9473 7.95476 16.8162C7.82365 16.6851 7.73436 16.5181 7.69819 16.3362C7.66202 16.1544 7.68058 15.9659 7.75154 15.7946C7.8225 15.6232 7.94266 15.4768 8.09683 15.3738Z" fill="#FFAF8A"/>
<path d="M11.8468 14.1238C12.001 14.0208 12.1823 13.9658 12.3677 13.9658C12.6163 13.9658 12.8548 14.0646 13.0306 14.2404C13.2064 14.4162 13.3052 14.6547 13.3052 14.9033C13.3052 15.0887 13.2502 15.27 13.1472 15.4242C13.0442 15.5783 12.8977 15.6985 12.7264 15.7695C12.5551 15.8404 12.3666 15.859 12.1848 15.8228C12.0029 15.7866 11.8359 15.6973 11.7048 15.5662C11.5737 15.4351 11.4844 15.2681 11.4482 15.0862C11.412 14.9044 11.4306 14.7159 11.5015 14.5446C11.5725 14.3732 11.6927 14.2268 11.8468 14.1238Z" fill="#FFAF8A"/>
<path d="M4.34683 17.2488C4.501 17.1458 4.68226 17.0908 4.86768 17.0908C5.11632 17.0908 5.35477 17.1896 5.53059 17.3654C5.7064 17.5412 5.80518 17.7797 5.80518 18.0283C5.80518 18.2137 5.75019 18.395 5.64718 18.5492C5.54417 18.7033 5.39775 18.8235 5.22644 18.8945C5.05514 18.9654 4.86664 18.984 4.68478 18.9478C4.50292 18.9116 4.33588 18.8223 4.20476 18.6912C4.07365 18.5601 3.98436 18.3931 3.94819 18.2112C3.91202 18.0294 3.93058 17.8409 4.00154 17.6696C4.0725 17.4982 4.19266 17.3518 4.34683 17.2488Z" fill="#FFAF8A"/>
<path d="M11.2218 17.2488C11.376 17.1458 11.5573 17.0908 11.7427 17.0908C11.9913 17.0908 12.2298 17.1896 12.4056 17.3654C12.5814 17.5412 12.6802 17.7797 12.6802 18.0283C12.6802 18.2137 12.6252 18.395 12.5222 18.5492C12.4192 18.7033 12.2727 18.8235 12.1014 18.8945C11.9301 18.9654 11.7416 18.984 11.5598 18.9478C11.3779 18.9116 11.2109 18.8223 11.0798 18.6912C10.9487 18.5601 10.8594 18.3931 10.8232 18.2112C10.787 18.0294 10.8056 17.8409 10.8765 17.6696C10.9475 17.4982 11.0677 17.3518 11.2218 17.2488Z" fill="#FFAF8A"/>
</svg>
