<svg width="124" height="36" viewBox="0 0 124 36" fill="none" xmlns="http://www.w3.org/2000/svg">
<path d="M19.397 18.0685C19.4255 15.8702 20.6089 13.7902 22.4863 12.6389C21.3019 10.9516 19.3182 9.88179 17.2543 9.81741C15.053 9.58686 12.919 11.1313 11.7972 11.1313C10.6537 11.1313 8.92671 9.84024 7.06688 9.87837C4.64275 9.95653 2.3829 11.3314 1.20341 13.4456C-1.33184 17.8242 0.55926 24.2594 2.98782 27.7988C4.2029 29.5319 5.62289 31.4678 7.48101 31.3992C9.2993 31.324 9.97844 30.2426 12.1732 30.2426C14.3476 30.2426 14.9848 31.3992 16.8805 31.3556C18.8316 31.324 20.0609 29.6147 21.2334 27.8652C22.1064 26.6302 22.7782 25.2654 23.2239 23.8211C20.931 22.8537 19.3997 20.5519 19.397 18.0685Z" fill="#070707"/>
<path d="M15.8161 7.48999C16.88 6.21601 17.404 4.5786 17.2772 2.92529C15.6519 3.09559 14.1505 3.87054 13.0724 5.09553C12.018 6.29256 11.4694 7.90121 11.5731 9.49114C13.1989 9.50784 14.7973 8.75401 15.8161 7.48999Z" fill="#070707"/>
<path d="M90.1817 17.8945V20.6546H88.4473V22.4646H90.1817V28.6146C90.1817 30.7146 91.1339 31.5547 93.5297 31.5547C93.9505 31.5547 94.3518 31.5046 94.702 31.4447V29.6547C94.402 29.6846 94.2115 29.7046 93.8808 29.7046C92.8079 29.7046 92.3369 29.2047 92.3369 28.0646V22.4646H94.702V20.6546H92.3369V17.8945H90.1817Z" fill="#070707"/>
<path d="M100.806 31.7046C103.994 31.7046 105.949 29.5745 105.949 26.0445C105.949 22.5346 103.984 20.3945 100.806 20.3945C97.6188 20.3945 95.6541 22.5346 95.6541 26.0445C95.6541 29.5745 97.6086 31.7046 100.806 31.7046ZM100.806 29.7945C98.9324 29.7945 97.8789 28.4246 97.8789 26.0445C97.8789 23.6845 98.9324 22.3046 100.806 22.3046C102.672 22.3046 103.733 23.6845 103.733 26.0445C103.733 28.4146 102.672 29.7945 100.806 29.7945Z" fill="#070707"/>
<path d="M107.621 31.4948H109.777V25.0648C109.777 23.5348 110.929 22.5048 112.563 22.5048C112.944 22.5048 113.585 22.5748 113.766 22.6348V20.5148C113.535 20.4547 113.125 20.4248 112.804 20.4248C111.38 20.4248 110.168 21.2048 109.856 22.2748H109.696V20.6048H107.621V31.4948Z" fill="#070707"/>
<path d="M119.118 22.224C120.712 22.224 121.754 23.3341 121.804 25.044H116.291C116.412 23.344 117.523 22.224 119.118 22.224ZM121.794 28.5541C121.394 29.4041 120.501 29.8741 119.198 29.8741C117.473 29.8741 116.361 28.6641 116.291 26.7541V26.6341H123.999V25.8841C123.999 22.464 122.166 20.394 119.128 20.394C116.05 20.394 114.096 22.604 114.096 26.0841C114.096 29.5641 116.01 31.7041 119.138 31.7041C121.634 31.7041 123.378 30.5041 123.869 28.5541H121.794Z" fill="#070707"/>
<path d="M76.0477 27.4729C76.214 30.147 78.4479 31.8572 81.7727 31.8572C85.3263 31.8572 87.5493 30.0641 87.5493 27.2034C87.5493 24.9543 86.2822 23.7105 83.2066 22.9954L81.5545 22.5911C79.6011 22.1351 78.8115 21.5236 78.8115 20.456C78.8115 19.1086 80.0376 18.2276 81.8767 18.2276C83.6222 18.2276 84.8275 19.0878 85.0458 20.4663H87.3106C87.1759 17.9477 84.9519 16.1753 81.9078 16.1753C78.6349 16.1753 76.453 17.9477 76.453 20.6114C76.453 22.8087 77.6894 24.1147 80.4013 24.747L82.3338 25.2134C84.3183 25.6798 85.1907 26.3639 85.1907 27.504C85.1907 28.8307 83.8196 29.7947 81.9494 29.7947C79.944 29.7947 78.5518 28.8929 78.3544 27.4729H76.0477Z" fill="#070707"/>
<path d="M53.7216 20.4248C52.2379 20.4248 50.9548 21.1648 50.2932 22.4048H50.1328V20.6048H48.0577V35.1149H50.213V29.8448H50.3834C50.9548 30.9949 52.1879 31.6749 53.7417 31.6749C56.4984 31.6749 58.2527 29.5048 58.2527 26.0448C58.2527 22.5848 56.4984 20.4248 53.7216 20.4248ZM53.11 29.7448C51.3057 29.7448 50.1729 28.3248 50.1729 26.0548C50.1729 23.7748 51.3057 22.3548 53.1201 22.3548C54.9446 22.3548 56.0372 23.7448 56.0372 26.0448C56.0372 28.3548 54.9446 29.7448 53.11 29.7448Z" fill="#070707"/>
<path d="M65.7939 20.4248C64.3103 20.4248 63.0271 21.1648 62.3655 22.4048H62.2051V20.6048H60.13V35.1149H62.2853V29.8448H62.4557C63.0271 30.9949 64.2601 31.6749 65.8139 31.6749C68.5706 31.6749 70.325 29.5048 70.325 26.0448C70.325 22.5848 68.5706 20.4248 65.7939 20.4248ZM65.1824 29.7448C63.378 29.7448 62.2452 28.3248 62.2452 26.0548C62.2452 23.7748 63.378 22.3548 65.1924 22.3548C67.0168 22.3548 68.1096 23.7448 68.1096 26.0448C68.1096 28.3548 67.0168 29.7448 65.1824 29.7448Z" fill="#070707"/>
<path d="M44.1906 31.4944H46.6634L41.2501 16.5381H38.7461L33.3329 31.4944H35.7226L37.1045 27.5247H42.8191L44.1906 31.4944ZM39.8787 19.2536H40.0553L42.2269 25.5761H37.6967L39.8787 19.2536Z" fill="#070707"/>
<path d="M33.9551 11.2749V4.8749H35.9284C35.9936 4.8749 36.1077 4.87638 36.2707 4.87935C36.4336 4.88231 36.5892 4.89416 36.7373 4.9149C37.2321 4.98009 37.6455 5.16083 37.9773 5.45712C38.3121 5.75046 38.564 6.12379 38.7329 6.57712C38.9018 7.03046 38.9862 7.52972 38.9862 8.0749C38.9862 8.62009 38.9018 9.11935 38.7329 9.57268C38.564 10.026 38.3121 10.4008 37.9773 10.6971C37.6455 10.9905 37.2321 11.1697 36.7373 11.2349C36.5892 11.2527 36.4321 11.2645 36.2662 11.2705C36.1033 11.2734 35.9907 11.2749 35.9284 11.2749H33.9551ZM34.7684 10.5193H35.9284C36.041 10.5193 36.167 10.5164 36.3062 10.5105C36.4455 10.5016 36.567 10.4882 36.6707 10.4705C37.0203 10.4053 37.3033 10.2586 37.5196 10.0305C37.7358 9.80231 37.8944 9.51787 37.9951 9.17712C38.0958 8.83638 38.1462 8.46898 38.1462 8.0749C38.1462 7.67194 38.0944 7.30009 37.9907 6.95935C37.8899 6.61861 37.7314 6.33564 37.5151 6.11046C37.2988 5.88527 37.0173 5.74157 36.6707 5.67935C36.567 5.65861 36.444 5.64527 36.3018 5.63935C36.1596 5.63342 36.0351 5.63046 35.9284 5.63046H34.7684V10.5193ZM40.0943 11.2749V4.8749H40.8855V11.2749H40.0943ZM44.4901 11.4082C44.0368 11.4082 43.6279 11.3312 43.2634 11.1771C42.902 11.0231 42.6027 10.8038 42.3657 10.5193C42.1316 10.2319 41.979 9.89268 41.9079 9.50157L42.7257 9.37268C42.8294 9.77564 43.0442 10.0912 43.3701 10.3193C43.699 10.5445 44.0857 10.6571 44.5301 10.6571C44.8175 10.6571 45.0768 10.6127 45.3079 10.5238C45.542 10.4319 45.7271 10.3016 45.8634 10.1327C45.9997 9.96379 46.0679 9.76379 46.0679 9.53268C46.0679 9.39046 46.0427 9.26898 45.9923 9.16824C45.9449 9.06453 45.8783 8.97712 45.7923 8.90601C45.7094 8.83194 45.6146 8.76972 45.5079 8.71935C45.4012 8.66898 45.2901 8.62749 45.1746 8.5949L43.5434 8.11046C43.3657 8.05712 43.1938 7.99046 43.0279 7.91046C42.862 7.82749 42.7138 7.72527 42.5834 7.60379C42.4531 7.47935 42.3494 7.3312 42.2723 7.15935C42.1953 6.98453 42.1568 6.77861 42.1568 6.54157C42.1568 6.16231 42.2546 5.83935 42.4501 5.57268C42.6486 5.30305 42.9168 5.09712 43.2546 4.9549C43.5923 4.81268 43.9731 4.74305 44.3968 4.74601C44.8264 4.74898 45.2101 4.82601 45.5479 4.97712C45.8886 5.12527 46.1701 5.33861 46.3923 5.61712C46.6175 5.89564 46.7686 6.22898 46.8457 6.61712L46.0057 6.76379C45.9612 6.50305 45.862 6.27935 45.7079 6.09268C45.5568 5.90305 45.3671 5.75786 45.139 5.65712C44.9108 5.55342 44.6605 5.50009 44.3879 5.49712C44.1271 5.49416 43.8916 5.53564 43.6812 5.62157C43.4708 5.70749 43.3034 5.82749 43.179 5.98157C43.0546 6.13268 42.9923 6.30749 42.9923 6.50601C42.9923 6.70157 43.0486 6.86009 43.1612 6.98157C43.2738 7.10009 43.4116 7.1949 43.5746 7.26601C43.7405 7.33416 43.902 7.39046 44.059 7.4349L45.2768 7.78601C45.416 7.82453 45.576 7.87787 45.7568 7.94601C45.9405 8.01416 46.1183 8.11046 46.2901 8.2349C46.462 8.35638 46.6042 8.51935 46.7168 8.72379C46.8294 8.92527 46.8857 9.18009 46.8857 9.48824C46.8857 9.79638 46.8234 10.0705 46.699 10.3105C46.5775 10.5505 46.4071 10.7519 46.1879 10.9149C45.9686 11.0749 45.7138 11.1964 45.4234 11.2793C45.1331 11.3653 44.822 11.4082 44.4901 11.4082ZM47.818 11.2749V4.8749H50.3468C50.4091 4.8749 50.4831 4.87786 50.5691 4.88379C50.655 4.88675 50.738 4.89564 50.818 4.91046C51.1646 4.96379 51.455 5.08231 51.6891 5.26601C51.9261 5.44972 52.1039 5.68231 52.2224 5.96379C52.3409 6.24231 52.4002 6.55194 52.4002 6.89268C52.4002 7.23046 52.3394 7.54009 52.218 7.82157C52.0994 8.10009 51.9217 8.33268 51.6846 8.51935C51.4505 8.70305 51.1617 8.82157 50.818 8.8749C50.738 8.88675 50.655 8.89564 50.5691 8.90157C50.4831 8.90749 50.4091 8.91046 50.3468 8.91046H48.6091V11.2749H47.818ZM48.6091 8.15935H50.3202C50.3765 8.15935 50.4402 8.15638 50.5113 8.15046C50.5854 8.14453 50.655 8.13416 50.7202 8.11935C50.9246 8.07194 51.0905 7.98601 51.218 7.86157C51.3483 7.73416 51.4431 7.58601 51.5024 7.41712C51.5617 7.24527 51.5913 7.07046 51.5913 6.89268C51.5913 6.7149 51.5617 6.54157 51.5024 6.37268C51.4431 6.20083 51.3483 6.0512 51.218 5.92379C51.0905 5.79638 50.9246 5.71046 50.7202 5.66601C50.655 5.64824 50.5854 5.63786 50.5113 5.6349C50.4402 5.62898 50.3765 5.62601 50.3202 5.62601H48.6091V8.15935ZM55.9178 11.4082C55.2808 11.4082 54.74 11.2675 54.2956 10.986C53.8512 10.7045 53.5119 10.3134 53.2778 9.81268C53.0467 9.31194 52.9312 8.73268 52.9312 8.0749C52.9312 7.41712 53.0467 6.83786 53.2778 6.33712C53.5119 5.83638 53.8512 5.44527 54.2956 5.16379C54.74 4.88231 55.2808 4.74157 55.9178 4.74157C56.5578 4.74157 57.1 4.88231 57.5445 5.16379C57.9889 5.44527 58.3267 5.83638 58.5578 6.33712C58.7889 6.83786 58.9045 7.41712 58.9045 8.0749C58.9045 8.73268 58.7889 9.31194 58.5578 9.81268C58.3267 10.3134 57.9889 10.7045 57.5445 10.986C57.1 11.2675 56.5578 11.4082 55.9178 11.4082ZM55.9178 10.6527C56.3949 10.6556 56.7919 10.549 57.1089 10.3327C57.4289 10.1134 57.6674 9.80972 57.8245 9.42157C57.9845 9.03342 58.0645 8.58453 58.0645 8.0749C58.0645 7.56231 57.9845 7.11342 57.8245 6.72824C57.6674 6.34305 57.4289 6.04231 57.1089 5.82601C56.7919 5.60972 56.3949 5.50009 55.9178 5.49712C55.4408 5.49416 55.0437 5.60083 54.7267 5.81712C54.4126 6.03342 54.1756 6.33564 54.0156 6.72379C53.8556 7.11194 53.7741 7.56231 53.7712 8.0749C53.7682 8.58453 53.8467 9.03194 54.0067 9.41712C54.1667 9.80231 54.4052 10.1045 54.7223 10.3238C55.0423 10.5401 55.4408 10.6497 55.9178 10.6527ZM59.7971 11.2749V4.8749H60.5971L63.9349 9.8749V4.8749H64.7349V11.2749H63.9349L60.5971 6.27046V11.2749H59.7971ZM66.7999 4.14157H66.1555L66.7377 2.6749H67.3821L66.7999 4.14157ZM66.0666 11.2749V4.8749H66.8577V11.2749H66.0666ZM69.7557 11.2749L67.6134 4.8749H68.4357L70.2979 10.4349L72.1779 4.8749H73.0001L70.8579 11.2749H69.7557ZM73.6687 11.2749V4.8749H77.7131V5.62601H74.4598V7.63046H77.1798V8.38157H74.4598V10.5238H77.7131V11.2749H73.6687ZM78.8704 11.2749V4.8749H79.6615V10.5238H82.6304V11.2749H78.8704ZM84.719 11.2749V4.8749H85.519L88.8568 9.8749V4.8749H89.6568V11.2749H88.8568L85.519 6.27046V11.2749H84.719ZM90.4551 11.2749L92.5973 4.8749H93.6996L95.8418 11.2749H95.0196L93.0151 5.33712H93.264L91.2773 11.2749H90.4551ZM91.4862 9.77712V9.0349H94.8107V9.77712H91.4862Z" fill="#070707"/>
</svg>
