<svg width="99" height="28" viewBox="0 0 99 28" fill="none" xmlns="http://www.w3.org/2000/svg">
<path d="M15.8751 14.4507C15.8975 12.7087 16.8295 11.0604 18.3079 10.148C17.3753 8.81091 15.8131 7.96316 14.1878 7.91215C12.4542 7.72945 10.7737 8.95336 9.89032 8.95336C8.98982 8.95336 7.62978 7.93024 6.16516 7.96045C4.25616 8.02239 2.47652 9.11191 1.54768 10.7873C-0.448828 14.2572 1.04041 19.3567 2.9529 22.1615C3.90978 23.5349 5.02802 25.0691 6.49129 25.0147C7.9232 24.9551 8.45802 24.0982 10.1864 24.0982C11.8987 24.0982 12.4005 25.0147 13.8934 24.9801C15.4299 24.9551 16.398 23.6006 17.3213 22.2141C18.0088 21.2355 18.5378 20.154 18.8888 19.0094C17.0831 18.2428 15.8773 16.4187 15.8751 14.4507Z" fill="white"/>
<path d="M13.0553 6.0675C13.8931 5.05793 14.3057 3.76036 14.2058 2.4502C12.9259 2.58515 11.7436 3.19926 10.8946 4.17001C10.0643 5.1186 9.6322 6.39337 9.71391 7.65332C10.9942 7.66655 12.2529 7.06918 13.0553 6.0675Z" fill="white"/>
<path d="M71.6178 14.3125V16.4997H70.252V17.934H71.6178V22.8077C71.6178 24.4718 72.3676 25.1375 74.2543 25.1375C74.5857 25.1375 74.9018 25.0979 75.1776 25.0503V23.6318C74.9413 23.6556 74.7913 23.6714 74.5309 23.6714C73.6859 23.6714 73.315 23.2752 73.315 22.3718V17.934H75.1776V16.4997H73.315V14.3125H71.6178Z" fill="white"/>
<path d="M79.985 25.2566C82.4957 25.2566 84.0349 23.5687 84.0349 20.7713C84.0349 17.9898 82.4877 16.2939 79.985 16.2939C77.475 16.2939 75.9277 17.9898 75.9277 20.7713C75.9277 23.5687 77.4669 25.2566 79.985 25.2566ZM79.985 23.743C78.5094 23.743 77.6798 22.6574 77.6798 20.7713C77.6798 18.9011 78.5094 17.8075 79.985 17.8075C81.454 17.8075 82.2902 18.9011 82.2902 20.7713C82.2902 22.6495 81.454 23.743 79.985 23.743Z" fill="white"/>
<path d="M85.3516 25.0908H87.0488V19.9953C87.0488 18.7829 87.9567 17.9666 89.2435 17.9666C89.5434 17.9666 90.0482 18.0221 90.1901 18.0697V16.3897C90.0087 16.3421 89.6854 16.3184 89.433 16.3184C88.3115 16.3184 87.3568 16.9365 87.1117 17.7844H86.9851V16.461H85.3516V25.0908Z" fill="white"/>
<path d="M94.405 17.7431C95.6604 17.7431 96.4812 18.6228 96.5207 19.9779H92.1789C92.274 18.6307 93.1497 17.7431 94.405 17.7431ZM96.5127 22.7594C96.1974 23.433 95.4943 23.8055 94.468 23.8055C93.1102 23.8055 92.2345 22.8466 92.1789 21.333V21.2379H98.2494V20.6436C98.2494 17.9333 96.8053 16.293 94.4131 16.293C91.9894 16.293 90.4502 18.0443 90.4502 20.8021C90.4502 23.5598 91.958 25.2556 94.4211 25.2556C96.3869 25.2556 97.76 24.3047 98.147 22.7594H96.5127Z" fill="white"/>
<path d="M60.4873 21.903C60.6183 24.0221 62.3775 25.3774 64.9957 25.3774C67.7942 25.3774 69.5448 23.9564 69.5448 21.6895C69.5448 19.9072 68.547 18.9215 66.1249 18.3548L64.8239 18.0344C63.2856 17.6731 62.6638 17.1884 62.6638 16.3425C62.6638 15.2747 63.6293 14.5765 65.0776 14.5765C66.4522 14.5765 67.4013 15.2582 67.5733 16.3506H69.3568C69.2507 14.3547 67.4994 12.9502 65.1021 12.9502C62.5247 12.9502 60.8064 14.3547 60.8064 16.4656C60.8064 18.2069 61.7801 19.2418 63.9157 19.7429L65.4376 20.1125C67.0004 20.4821 67.6874 21.0242 67.6874 21.9277C67.6874 22.979 66.6077 23.7429 65.1349 23.7429C63.5556 23.7429 62.4592 23.0283 62.3038 21.903H60.4873Z" fill="white"/>
<path d="M42.9056 16.3184C41.7372 16.3184 40.7268 16.9048 40.2058 17.8874H40.0794V16.461H38.4453V27.9596H40.1425V23.7833H40.2768C40.7268 24.6946 41.6978 25.2335 42.9214 25.2335C45.0923 25.2335 46.4738 23.5138 46.4738 20.7719C46.4738 18.03 45.0923 16.3184 42.9056 16.3184ZM42.424 23.704C41.0031 23.704 40.111 22.5788 40.111 20.7799C40.111 18.9731 41.0031 17.8478 42.4319 17.8478C43.8687 17.8478 44.7292 18.9493 44.7292 20.7719C44.7292 22.6025 43.8687 23.704 42.424 23.704Z" fill="white"/>
<path d="M52.4124 16.3184C51.2441 16.3184 50.2336 16.9048 49.7126 17.8874H49.5862V16.461H47.9521V27.9596H49.6495V23.7833H49.7836C50.2336 24.6946 51.2046 25.2335 52.4282 25.2335C54.5992 25.2335 55.9807 23.5138 55.9807 20.7719C55.9807 18.03 54.5992 16.3184 52.4124 16.3184ZM51.9309 23.704C50.5099 23.704 49.6179 22.5788 49.6179 20.7799C49.6179 18.9731 50.5099 17.8478 51.9388 17.8478C53.3755 17.8478 54.2361 18.9493 54.2361 20.7719C54.2361 22.6025 53.3755 23.704 51.9309 23.704Z" fill="white"/>
<path d="M35.4001 25.0895H37.3474L33.0844 13.2373H31.1125L26.8496 25.0895H28.7315L29.8198 21.9437H34.32L35.4001 25.0895ZM32.0044 15.3892H32.1435L33.8536 20.3995H30.2861L32.0044 15.3892Z" fill="white"/>
<path d="M27.3396 8.34961V3.30961H28.8936C28.9449 3.30961 29.0348 3.31078 29.1631 3.31311C29.2914 3.31544 29.4139 3.32478 29.5306 3.34111C29.9203 3.39244 30.2458 3.53478 30.5071 3.76811C30.7708 3.99911 30.9691 4.29311 31.1021 4.65011C31.2351 5.00711 31.3016 5.40028 31.3016 5.82961C31.3016 6.25894 31.2351 6.65211 31.1021 7.00911C30.9691 7.36611 30.7708 7.66128 30.5071 7.89461C30.2458 8.12561 29.9203 8.26678 29.5306 8.31811C29.4139 8.33211 29.2903 8.34144 29.1596 8.34611C29.0313 8.34844 28.9426 8.34961 28.8936 8.34961H27.3396ZM27.9801 7.75461H28.8936C28.9823 7.75461 29.0814 7.75228 29.1911 7.74761C29.3008 7.74061 29.3964 7.73011 29.4781 7.71611C29.7534 7.66478 29.9763 7.54928 30.1466 7.36961C30.3169 7.18994 30.4418 6.96594 30.5211 6.69761C30.6004 6.42928 30.6401 6.13994 30.6401 5.82961C30.6401 5.51228 30.5993 5.21944 30.5176 4.95111C30.4383 4.68278 30.3134 4.45994 30.1431 4.28261C29.9728 4.10528 29.7511 3.99211 29.4781 3.94311C29.3964 3.92678 29.2996 3.91628 29.1876 3.91161C29.0756 3.90694 28.9776 3.90461 28.8936 3.90461H27.9801V7.75461ZM32.1743 8.34961V3.30961H32.7973V8.34961H32.1743ZM35.6359 8.45461C35.2789 8.45461 34.9569 8.39394 34.6699 8.27261C34.3853 8.15128 34.1496 7.97861 33.9629 7.75461C33.7786 7.52828 33.6584 7.26111 33.6024 6.95311L34.2464 6.85161C34.3281 7.16894 34.4973 7.41744 34.7539 7.59711C35.0129 7.77444 35.3174 7.86311 35.6674 7.86311C35.8938 7.86311 36.0979 7.82811 36.2799 7.75811C36.4643 7.68578 36.6101 7.58311 36.7174 7.45011C36.8248 7.31711 36.8784 7.15961 36.8784 6.97761C36.8784 6.86561 36.8586 6.76994 36.8189 6.69061C36.7816 6.60894 36.7291 6.54011 36.6614 6.48411C36.5961 6.42578 36.5214 6.37678 36.4374 6.33711C36.3534 6.29744 36.2659 6.26478 36.1749 6.23911L34.8904 5.85761C34.7504 5.81561 34.6151 5.76311 34.4844 5.70011C34.3538 5.63478 34.2371 5.55428 34.1344 5.45861C34.0318 5.36061 33.9501 5.24394 33.8894 5.10861C33.8288 4.97094 33.7984 4.80878 33.7984 4.62211C33.7984 4.32344 33.8754 4.06911 34.0294 3.85911C34.1858 3.64678 34.3969 3.48461 34.6629 3.37261C34.9289 3.26061 35.2288 3.20578 35.5624 3.20811C35.9008 3.21044 36.2029 3.27111 36.4689 3.39011C36.7373 3.50678 36.9589 3.67478 37.1339 3.89411C37.3113 4.11344 37.4303 4.37594 37.4909 4.68161L36.8294 4.79711C36.7944 4.59178 36.7163 4.41561 36.5949 4.26861C36.4759 4.11928 36.3266 4.00494 36.1469 3.92561C35.9673 3.84394 35.7701 3.80194 35.5554 3.79961C35.3501 3.79728 35.1646 3.82994 34.9989 3.89761C34.8333 3.96528 34.7014 4.05978 34.6034 4.18111C34.5054 4.30011 34.4564 4.43778 34.4564 4.59411C34.4564 4.74811 34.5008 4.87294 34.5894 4.96861C34.6781 5.06194 34.7866 5.13661 34.9149 5.19261C35.0456 5.24628 35.1728 5.29061 35.2964 5.32561L36.2554 5.60211C36.3651 5.63244 36.4911 5.67444 36.6334 5.72811C36.7781 5.78178 36.9181 5.85761 37.0534 5.95561C37.1888 6.05128 37.3008 6.17961 37.3894 6.34061C37.4781 6.49928 37.5224 6.69994 37.5224 6.94261C37.5224 7.18528 37.4734 7.40111 37.3754 7.59011C37.2798 7.77911 37.1456 7.93778 36.9729 8.06611C36.8003 8.19211 36.5996 8.28778 36.3709 8.35311C36.1423 8.42078 35.8973 8.45461 35.6359 8.45461ZM38.2566 8.34961V3.30961H40.2481C40.2971 3.30961 40.3554 3.31194 40.4231 3.31661C40.4908 3.31894 40.5561 3.32594 40.6191 3.33761C40.8921 3.37961 41.1208 3.47294 41.3051 3.61761C41.4918 3.76228 41.6318 3.94544 41.7251 4.16711C41.8184 4.38644 41.8651 4.63028 41.8651 4.89861C41.8651 5.16461 41.8173 5.40844 41.7216 5.63011C41.6283 5.84944 41.4883 6.03261 41.3016 6.17961C41.1173 6.32428 40.8898 6.41761 40.6191 6.45961C40.5561 6.46894 40.4908 6.47594 40.4231 6.48061C40.3554 6.48528 40.2971 6.48761 40.2481 6.48761H38.8796V8.34961H38.2566ZM38.8796 5.89611H40.2271C40.2714 5.89611 40.3216 5.89378 40.3776 5.88911C40.4359 5.88444 40.4908 5.87628 40.5421 5.86461C40.7031 5.82728 40.8338 5.75961 40.9341 5.66161C41.0368 5.56128 41.1114 5.44461 41.1581 5.31161C41.2048 5.17628 41.2281 5.03861 41.2281 4.89861C41.2281 4.75861 41.2048 4.62211 41.1581 4.48911C41.1114 4.35378 41.0368 4.23594 40.9341 4.13561C40.8338 4.03528 40.7031 3.96761 40.5421 3.93261C40.4908 3.91861 40.4359 3.91044 40.3776 3.90811C40.3216 3.90344 40.2714 3.90111 40.2271 3.90111H38.8796V5.89611ZM44.6352 8.45461C44.1336 8.45461 43.7077 8.34378 43.3577 8.12211C43.0077 7.90044 42.7406 7.59244 42.5562 7.19811C42.3742 6.80378 42.2832 6.34761 42.2832 5.82961C42.2832 5.31161 42.3742 4.85544 42.5562 4.46111C42.7406 4.06678 43.0077 3.75878 43.3577 3.53711C43.7077 3.31544 44.1336 3.20461 44.6352 3.20461C45.1392 3.20461 45.5662 3.31544 45.9162 3.53711C46.2662 3.75878 46.5322 4.06678 46.7142 4.46111C46.8962 4.85544 46.9872 5.31161 46.9872 5.82961C46.9872 6.34761 46.8962 6.80378 46.7142 7.19811C46.5322 7.59244 46.2662 7.90044 45.9162 8.12211C45.5662 8.34378 45.1392 8.45461 44.6352 8.45461ZM44.6352 7.85961C45.0109 7.86194 45.3236 7.77794 45.5732 7.60761C45.8252 7.43494 46.0131 7.19578 46.1367 6.89011C46.2627 6.58444 46.3257 6.23094 46.3257 5.82961C46.3257 5.42594 46.2627 5.07244 46.1367 4.76911C46.0131 4.46578 45.8252 4.22894 45.5732 4.05861C45.3236 3.88828 45.0109 3.80194 44.6352 3.79961C44.2596 3.79728 43.9469 3.88128 43.6972 4.05161C43.4499 4.22194 43.2632 4.45994 43.1372 4.76561C43.0112 5.07128 42.9471 5.42594 42.9447 5.82961C42.9424 6.23094 43.0042 6.58328 43.1302 6.88661C43.2562 7.18994 43.4441 7.42794 43.6937 7.60061C43.9457 7.77094 44.2596 7.85728 44.6352 7.85961ZM47.6902 8.34961V3.30961H48.3202L50.9487 7.24711V3.30961H51.5787V8.34961H50.9487L48.3202 4.40861V8.34961H47.6902ZM53.2049 2.73211H52.6974L53.1559 1.57711H53.6634L53.2049 2.73211ZM52.6274 8.34961V3.30961H53.2504V8.34961H52.6274ZM55.5325 8.34961L53.8455 3.30961H54.493L55.9595 7.68811L57.44 3.30961H58.0875L56.4005 8.34961H55.5325ZM58.614 8.34961V3.30961H61.799V3.90111H59.237V5.47961H61.379V6.07111H59.237V7.75811H61.799V8.34961H58.614ZM62.7104 8.34961V3.30961H63.3334V7.75811H65.6714V8.34961H62.7104ZM67.3162 8.34961V3.30961H67.9462L70.5747 7.24711V3.30961H71.2047V8.34961H70.5747L67.9462 4.40861V8.34961H67.3162ZM71.8334 8.34961L73.5204 3.30961H74.3884L76.0754 8.34961H75.4279L73.8494 3.67361H74.0454L72.4809 8.34961H71.8334ZM72.6454 7.17011V6.58561H75.2634V7.17011H72.6454Z" fill="white"/>
</svg>
