<svg width="109" height="46" viewBox="0 0 109 46" fill="none" xmlns="http://www.w3.org/2000/svg">
<path d="M2.07906 21V3.72H8.75106C9.71906 3.72 10.5631 3.92 11.2831 4.32C12.0031 4.72 12.5631 5.26 12.9631 5.94C13.3631 6.612 13.5631 7.356 13.5631 8.172C13.5631 9.1 13.3151 9.928 12.8191 10.656C12.3231 11.376 11.6591 11.876 10.8271 12.156L10.8031 11.568C11.9231 11.888 12.8031 12.448 13.4431 13.248C14.0831 14.048 14.4031 15.016 14.4031 16.152C14.4031 17.152 14.1911 18.016 13.7671 18.744C13.3431 19.464 12.7471 20.02 11.9791 20.412C11.2111 20.804 10.3191 21 9.30306 21H2.07906ZM3.85506 19.308H8.87106C9.57506 19.308 10.2071 19.184 10.7671 18.936C11.3271 18.68 11.7671 18.32 12.0871 17.856C12.4151 17.392 12.5791 16.832 12.5791 16.176C12.5791 15.536 12.4311 14.96 12.1351 14.448C11.8391 13.936 11.4351 13.528 10.9231 13.224C10.4191 12.912 9.84306 12.756 9.19506 12.756H3.85506V19.308ZM3.85506 11.088H8.73906C9.29106 11.088 9.79506 10.964 10.2511 10.716C10.7071 10.46 11.0671 10.112 11.3311 9.672C11.6031 9.232 11.7391 8.724 11.7391 8.148C11.7391 7.332 11.4551 6.668 10.8871 6.156C10.3271 5.644 9.61106 5.388 8.73906 5.388H3.85506V11.088ZM16.3178 21V3.72H22.9898C23.1578 3.72 23.3458 3.728 23.5538 3.744C23.7698 3.752 23.9858 3.776 24.2018 3.816C25.1058 3.952 25.8698 4.268 26.4938 4.764C27.1258 5.252 27.6018 5.868 27.9218 6.612C28.2498 7.356 28.4138 8.18 28.4138 9.084C28.4138 10.388 28.0698 11.52 27.3818 12.48C26.6938 13.44 25.7098 14.044 24.4298 14.292L23.8178 14.436H18.0818V21H16.3178ZM26.7818 21L23.3738 13.968L25.0658 13.32L28.8098 21H26.7818ZM18.0818 12.756H22.9418C23.0858 12.756 23.2538 12.748 23.4458 12.732C23.6378 12.716 23.8258 12.688 24.0098 12.648C24.6018 12.52 25.0858 12.276 25.4618 11.916C25.8458 11.556 26.1298 11.128 26.3138 10.632C26.5058 10.136 26.6018 9.62 26.6018 9.084C26.6018 8.548 26.5058 8.032 26.3138 7.536C26.1298 7.032 25.8458 6.6 25.4618 6.24C25.0858 5.88 24.6018 5.636 24.0098 5.508C23.8258 5.468 23.6378 5.444 23.4458 5.436C23.2538 5.42 23.0858 5.412 22.9418 5.412H18.0818V12.756ZM30.9784 21V3.72H41.7784V5.412H32.7424V11.388H40.3384V13.08H32.7424V19.308H41.7784V21H30.9784ZM42.9859 21L48.9379 3.72H51.2779L57.2299 21H55.3939L49.7419 4.704H50.4379L44.8219 21H42.9859ZM45.6379 16.812V15.156H54.5659V16.812H45.6379ZM58.9169 21V3.72H60.6809V11.88L68.5649 3.72H70.8209L62.7689 12.06L71.4809 21H69.1769L60.6809 12.36V21H58.9169ZM72.9269 21V3.72H74.6909V21H72.9269ZM77.8084 21V3.72H79.5844L89.1004 17.88V3.72H90.8764V21H89.1004L79.5844 6.828V21H77.8084ZM100.682 21.36C99.4661 21.36 98.3701 21.148 97.3941 20.724C96.4181 20.3 95.5861 19.696 94.8981 18.912C94.2181 18.128 93.6981 17.184 93.3381 16.08C92.9781 14.968 92.7981 13.728 92.7981 12.36C92.7981 10.552 93.1101 8.976 93.7341 7.632C94.3661 6.28 95.2701 5.232 96.4461 4.488C97.6221 3.744 99.0341 3.372 100.682 3.372C102.522 3.372 104.018 3.804 105.17 4.668C106.33 5.524 107.138 6.676 107.594 8.124L105.818 8.556C105.442 7.5 104.822 6.656 103.958 6.024C103.102 5.392 102.034 5.076 100.754 5.076C99.4021 5.068 98.2781 5.372 97.3821 5.988C96.4861 6.596 95.8101 7.452 95.3541 8.556C94.9061 9.652 94.6781 10.92 94.6701 12.36C94.6621 13.8 94.8821 15.068 95.3301 16.164C95.7861 17.252 96.4661 18.108 97.3701 18.732C98.2741 19.348 99.4021 19.66 100.754 19.668C101.994 19.668 103.018 19.428 103.826 18.948C104.634 18.468 105.246 17.78 105.662 16.884C106.086 15.988 106.326 14.928 106.382 13.704H102.398V12.192H108.23C108.254 12.376 108.266 12.572 108.266 12.78C108.274 12.98 108.278 13.124 108.278 13.212C108.278 14.772 107.998 16.168 107.438 17.4C106.878 18.624 106.034 19.592 104.906 20.304C103.786 21.008 102.378 21.36 100.682 21.36ZM41.1044 44V26.72H44.4164L51.9284 38.24V26.72H55.2404V44H51.9284L44.4164 32.48V44H41.1044ZM58.1088 44V26.72H69.3888V29.768H61.3728V33.464H67.9488V36.512H61.3728V40.952H69.3888V44H58.1088ZM75.409 44L70.345 26.72H73.777L77.017 38.6L80.257 26.744L83.689 26.72L86.929 38.6L90.169 26.72H93.601L88.537 44H85.321L81.973 32.336L78.625 44H75.409ZM101.106 44.36C99.8264 44.36 98.6704 44.136 97.6384 43.688C96.6144 43.232 95.7704 42.584 95.1064 41.744C94.4504 40.896 94.0344 39.888 93.8584 38.72L97.2664 38.216C97.5064 39.208 98.0024 39.972 98.7544 40.508C99.5064 41.044 100.362 41.312 101.322 41.312C101.858 41.312 102.378 41.228 102.882 41.06C103.386 40.892 103.798 40.644 104.118 40.316C104.446 39.988 104.61 39.584 104.61 39.104C104.61 38.928 104.582 38.76 104.526 38.6C104.478 38.432 104.394 38.276 104.274 38.132C104.154 37.988 103.982 37.852 103.758 37.724C103.542 37.596 103.266 37.48 102.93 37.376L98.4424 36.056C98.1064 35.96 97.7144 35.824 97.2664 35.648C96.8264 35.472 96.3984 35.22 95.9824 34.892C95.5664 34.564 95.2184 34.132 94.9384 33.596C94.6664 33.052 94.5304 32.368 94.5304 31.544C94.5304 30.384 94.8224 29.42 95.4064 28.652C95.9904 27.884 96.7704 27.312 97.7464 26.936C98.7224 26.56 99.8024 26.376 100.986 26.384C102.178 26.4 103.242 26.604 104.178 26.996C105.114 27.388 105.898 27.96 106.53 28.712C107.162 29.456 107.618 30.368 107.898 31.448L104.37 32.048C104.242 31.488 104.006 31.016 103.662 30.632C103.318 30.248 102.906 29.956 102.426 29.756C101.954 29.556 101.458 29.448 100.938 29.432C100.426 29.416 99.9424 29.488 99.4864 29.648C99.0384 29.8 98.6704 30.024 98.3824 30.32C98.1024 30.616 97.9624 30.968 97.9624 31.376C97.9624 31.752 98.0784 32.06 98.3104 32.3C98.5424 32.532 98.8344 32.72 99.1864 32.864C99.5384 33.008 99.8984 33.128 100.266 33.224L103.266 34.04C103.714 34.16 104.21 34.32 104.754 34.52C105.298 34.712 105.818 34.984 106.314 35.336C106.818 35.68 107.23 36.136 107.55 36.704C107.878 37.272 108.042 37.992 108.042 38.864C108.042 39.792 107.846 40.604 107.454 41.3C107.07 41.988 106.55 42.56 105.894 43.016C105.238 43.464 104.494 43.8 103.662 44.024C102.838 44.248 101.986 44.36 101.106 44.36Z" fill="#FF702E"/>
</svg>
