<svg width="47" height="47" viewBox="0 0 47 47" fill="none" xmlns="http://www.w3.org/2000/svg">
<rect width="47" height="47" rx="8" fill="#F24D00"/>
<path d="M21.0713 29.9997C19.9538 29.9997 19.0475 29.1041 19.0475 27.9997V25.9998H25.1189C25.6719 25.9998 26.2078 25.9269 26.7171 25.7895C26.8609 25.7509 27.0032 25.7072 27.1426 25.6583C27.214 25.6334 27.2854 25.607 27.3554 25.5793C28.026 25.3168 28.6376 24.9396 29.1664 24.472C29.9184 23.807 30.5015 22.9594 30.8446 21.9998C31.0683 21.3743 31.1902 20.7012 31.1902 19.9999C31.1902 19.4533 31.1164 18.9237 30.9774 18.4204C30.9384 18.2779 30.8941 18.1377 30.8446 17.9999C30.5015 17.0404 29.9184 16.1928 29.1664 15.5277C28.9908 15.372 28.8056 15.2267 28.6119 15.0917C28.1631 14.7794 27.6695 14.5254 27.1426 14.3415C26.5096 14.1204 25.8285 14 25.1189 14H21.0713C20.3617 14 19.6806 14.1204 19.0475 14.3415C17.3227 14.944 15.9552 16.2953 15.3455 17.9999C15.1218 18.6255 15 19.2986 15 19.9999V27.9997C15 28.701 15.1218 29.3741 15.3455 29.9997C15.9552 31.7043 17.3227 33.0556 19.0475 33.6581C19.6806 33.8792 20.3617 33.9996 21.0713 33.9996H31.1902V29.9997H21.0713ZM19.0475 19.9999C19.0475 19.9825 19.0475 19.9655 19.0475 19.9481C19.0756 18.8677 19.9709 17.9999 21.0708 17.9999H25.1184C26.2183 17.9999 27.1136 18.8677 27.1417 19.9481C27.1417 19.9655 27.1417 19.9825 27.1417 19.9999C27.1417 20.0173 27.1417 20.0342 27.1417 20.0516C27.1136 21.1325 26.2183 21.9998 25.1184 21.9998H19.0471L19.0475 19.9999Z" fill="white"/>
</svg>
