<svg width="128" height="76" viewBox="0 0 128 76" fill="none" xmlns="http://www.w3.org/2000/svg">
<rect width="128" height="75.2716" rx="3.05672" fill="url(#paint0_linear_5150_4744)"/>
<ellipse cx="16.9974" cy="21.2015" rx="5.53651" ry="5.53651" fill="#E11423"/>
<ellipse cx="23.8842" cy="21.2015" rx="5.53651" ry="5.53651" fill="#F49E20"/>
<path fill-rule="evenodd" clip-rule="evenodd" d="M20.5033 25.4968C21.7788 24.4825 22.5965 22.9172 22.5965 21.161C22.5965 19.4048 21.7788 17.8396 20.5033 16.8253C19.2279 17.8396 18.4102 19.4048 18.4102 21.161C18.4102 22.9172 19.2279 24.4825 20.5033 25.4968Z" fill="#E96121"/>
<g clip-path="url(#clip0_5150_4744)">
<path opacity="0.5" d="M-1.95245 -2.43043C14.5134 -25.7736 40.2886 -38.6592 66.7526 -39.5567L67.0058 -39.5653L66.9279 -39.8064C58.7872 -65.0032 62.1541 -93.6188 78.5228 -117.035L106.834 -97.1549C90.196 -73.2817 95.918 -40.4774 119.666 -23.8015C143.414 -7.12564 176.213 -12.881 193.019 -36.6363L221.33 -16.756C204.862 6.5906 179.089 19.4728 152.625 20.3703L152.372 20.3789L152.45 20.62C160.591 45.8168 157.222 74.4358 140.855 97.8488L112.544 77.9685C129.182 54.0953 123.46 21.291 99.7119 4.61515C75.9638 -12.0607 43.1654 -6.30543 26.3591 17.4499L-1.95245 -2.43043Z" stroke="url(#paint1_linear_5150_4744)" stroke-width="0.38209"/>
<path opacity="0.3" d="M91.9625 10.3518C67.2392 -3.61396 35.8344 5.18022 21.8173 29.9944L-8.02611 13.1363C5.81196 -11.3609 29.8138 -26.488 55.6504 -29.9158C45.2496 -53.8135 45.818 -82.1825 59.6541 -106.676L89.4975 -89.8181C75.4804 -65.0039 84.1592 -33.5671 108.883 -19.6013C133.606 -5.63548 165.011 -14.4297 179.028 -39.2438L208.871 -22.3857C195.035 2.1079 171.031 17.2386 145.195 20.6664C155.595 44.5641 155.029 72.9295 141.191 97.4267L111.347 80.5686C125.365 55.7545 116.686 24.3176 91.9625 10.3518Z" fill="url(#paint2_linear_5150_4744)"/>
<path opacity="0.3" d="M-10.6264 66.6342C-22.6299 40.901 -53.2978 29.8069 -79.1256 41.8546L-93.6151 10.7921C-68.1172 -1.10165 -39.7934 0.536486 -16.7756 12.7618C-11.3517 -12.7305 5.59748 -35.4868 31.0917 -47.3788L45.5811 -16.3164C19.7533 -4.26867 8.54677 26.3583 20.5503 52.0915C32.5539 77.8247 63.2218 88.9188 89.0496 76.8711L103.539 107.934C78.0449 119.826 49.7174 118.189 26.6996 105.964C21.2757 131.456 4.33019 154.211 -21.1677 166.105L-35.6572 135.042C-9.82934 122.994 1.37722 92.3674 -10.6264 66.6342Z" fill="url(#paint3_linear_5150_4744)"/>
</g>
<path d="M12.9019 42.8784V38.5762L11.9384 39.1629V38.3344L12.9019 37.7584H13.6593V42.8784H12.9019ZM16.5028 42.8749L16.5064 42.2135L18.7357 40.2153C18.9159 40.0565 19.0379 39.9048 19.1019 39.7602C19.1683 39.6156 19.2015 39.471 19.2015 39.3264C19.2015 39.1439 19.1612 38.9803 19.0806 38.8358C19 38.6888 18.8886 38.5726 18.7464 38.4873C18.6042 38.402 18.4406 38.3593 18.2557 38.3593C18.0661 38.3593 17.8966 38.4043 17.7473 38.4944C17.6003 38.5821 17.4853 38.6995 17.4024 38.8464C17.3194 38.9934 17.2791 39.1522 17.2815 39.3229H16.5206C16.5206 38.991 16.5953 38.7006 16.7446 38.4518C16.8963 38.2005 17.1037 38.0049 17.3668 37.8651C17.6299 37.7229 17.931 37.6518 18.2699 37.6518C18.5923 37.6518 18.8815 37.7252 19.1375 37.8722C19.3935 38.0168 19.595 38.2159 19.7419 38.4695C19.8913 38.7232 19.9659 39.0123 19.9659 39.3371C19.9659 39.5718 19.9351 39.7709 19.8735 39.9344C19.8119 40.098 19.7194 40.2497 19.5962 40.3895C19.4729 40.5294 19.3188 40.6811 19.1339 40.8446L17.4131 42.3806L17.3313 42.1673H19.9659V42.8749H16.5028ZM23.8871 42.9744C23.6335 42.9744 23.3953 42.927 23.1724 42.8322C22.9496 42.735 22.7564 42.5975 22.5929 42.4198C22.4317 42.242 22.3144 42.0322 22.2409 41.7904L22.9591 41.5913C23.0278 41.8118 23.1476 41.9812 23.3182 42.0998C23.4889 42.2159 23.6785 42.2728 23.8871 42.2704C24.0744 42.268 24.2391 42.2242 24.3813 42.1389C24.5236 42.0535 24.635 41.9386 24.7156 41.794C24.7961 41.647 24.8364 41.4787 24.8364 41.2891C24.8364 41.0046 24.7476 40.77 24.5698 40.5851C24.3944 40.4002 24.1644 40.3078 23.88 40.3078C23.7994 40.3078 23.7164 40.3196 23.6311 40.3433C23.5481 40.367 23.4699 40.3978 23.3964 40.4358L23.048 39.8491L24.8542 38.2526L24.9324 38.466H22.4436V37.7584H25.5227V38.466L24.0222 39.9095L24.0151 39.6678C24.3375 39.6678 24.6172 39.74 24.8542 39.8846C25.0913 40.0269 25.2738 40.2212 25.4018 40.4678C25.5321 40.7119 25.5973 40.9857 25.5973 41.2891C25.5973 41.6162 25.5203 41.9066 25.3662 42.1602C25.2145 42.4138 25.0095 42.6129 24.7511 42.7575C24.4951 42.9021 24.2071 42.9744 23.8871 42.9744ZM30.3281 42.8784V41.986H28.017V41.282L29.681 37.7584H30.5308L28.8668 41.282H30.3281V39.8953H31.0819V41.282H31.5903V41.986H31.0819V42.8784H30.3281ZM38.0311 42.8784V38.5762L37.0676 39.1629V38.3344L38.0311 37.7584H38.7884V42.8784H38.0311ZM41.632 42.8749L41.6356 42.2135L43.8649 40.2153C44.045 40.0565 44.1671 39.9048 44.2311 39.7602C44.2975 39.6156 44.3307 39.471 44.3307 39.3264C44.3307 39.1439 44.2904 38.9803 44.2098 38.8358C44.1292 38.6888 44.0178 38.5726 43.8756 38.4873C43.7333 38.402 43.5698 38.3593 43.3849 38.3593C43.1953 38.3593 43.0258 38.4043 42.8764 38.4944C42.7295 38.5821 42.6145 38.6995 42.5316 38.8464C42.4486 38.9934 42.4083 39.1522 42.4107 39.3229H41.6498C41.6498 38.991 41.7244 38.7006 41.8738 38.4518C42.0255 38.2005 42.2329 38.0049 42.496 37.8651C42.7591 37.7229 43.0601 37.6518 43.3991 37.6518C43.7215 37.6518 44.0107 37.7252 44.2667 37.8722C44.5227 38.0168 44.7241 38.2159 44.8711 38.4695C45.0204 38.7232 45.0951 39.0123 45.0951 39.3371C45.0951 39.5718 45.0643 39.7709 45.0027 39.9344C44.941 40.098 44.8486 40.2497 44.7253 40.3895C44.6021 40.5294 44.448 40.6811 44.2631 40.8446L42.5422 42.3806L42.4604 42.1673H45.0951V42.8749H41.632ZM49.0163 42.9744C48.7626 42.9744 48.5244 42.927 48.3016 42.8322C48.0788 42.735 47.8856 42.5975 47.7221 42.4198C47.5609 42.242 47.4435 42.0322 47.3701 41.7904L48.0883 41.5913C48.157 41.8118 48.2767 41.9812 48.4474 42.0998C48.6181 42.2159 48.8077 42.2728 49.0163 42.2704C49.2035 42.268 49.3683 42.2242 49.5105 42.1389C49.6527 42.0535 49.7641 41.9386 49.8447 41.794C49.9253 41.647 49.9656 41.4787 49.9656 41.2891C49.9656 41.0046 49.8767 40.77 49.6989 40.5851C49.5235 40.4002 49.2936 40.3078 49.0092 40.3078C48.9286 40.3078 48.8456 40.3196 48.7603 40.3433C48.6773 40.367 48.5991 40.3978 48.5256 40.4358L48.1772 39.8491L49.9834 38.2526L50.0616 38.466H47.5727V37.7584H50.6518V38.466L49.1514 39.9095L49.1443 39.6678C49.4666 39.6678 49.7464 39.74 49.9834 39.8846C50.2204 40.0269 50.4029 40.2212 50.5309 40.4678C50.6613 40.7119 50.7265 40.9857 50.7265 41.2891C50.7265 41.6162 50.6495 41.9066 50.4954 42.1602C50.3437 42.4138 50.1386 42.6129 49.8803 42.7575C49.6243 42.9021 49.3363 42.9744 49.0163 42.9744ZM55.4573 42.8784V41.986H53.1462V41.282L54.8102 37.7584H55.6599L53.9959 41.282H55.4573V39.8953H56.2111V41.282H56.7195V41.986H56.2111V42.8784H55.4573ZM62.8118 40.2295L62.2714 39.8384L62.8118 39.1771L61.9834 38.946L62.1896 38.3095L62.9896 38.6224L62.9469 37.7584H63.6154L63.5727 38.6224L64.3763 38.3095L64.5825 38.946L63.7505 39.1771L64.2909 39.8384L63.7505 40.2295L63.2812 39.5184L62.8118 40.2295ZM67.6835 40.2295L67.1431 39.8384L67.6835 39.1771L66.8551 38.946L67.0613 38.3095L67.8613 38.6224L67.8186 37.7584H68.4871L68.4444 38.6224L69.2479 38.3095L69.4542 38.946L68.6222 39.1771L69.1626 39.8384L68.6222 40.2295L68.1528 39.5184L67.6835 40.2295ZM72.5552 40.2295L72.0147 39.8384L72.5552 39.1771L71.7267 38.946L71.9329 38.3095L72.7329 38.6224L72.6903 37.7584H73.3587L73.3161 38.6224L74.1196 38.3095L74.3258 38.946L73.4938 39.1771L74.0343 39.8384L73.4938 40.2295L73.0245 39.5184L72.5552 40.2295ZM77.4268 40.2295L76.8864 39.8384L77.4268 39.1771L76.5984 38.946L76.8046 38.3095L77.6046 38.6224L77.5619 37.7584H78.2304L78.1877 38.6224L78.9913 38.3095L79.1975 38.946L78.3655 39.1771L78.9059 39.8384L78.3655 40.2295L77.8962 39.5184L77.4268 40.2295ZM85.3577 40.2295L84.8172 39.8384L85.3577 39.1771L84.5292 38.946L84.7354 38.3095L85.5354 38.6224L85.4928 37.7584H86.1612L86.1186 38.6224L86.9221 38.3095L87.1283 38.946L86.2963 39.1771L86.8368 39.8384L86.2963 40.2295L85.827 39.5184L85.3577 40.2295ZM90.2293 40.2295L89.6889 39.8384L90.2293 39.1771L89.4009 38.946L89.6071 38.3095L90.4071 38.6224L90.3644 37.7584H91.0329L90.9902 38.6224L91.7938 38.3095L92 38.946L91.168 39.1771L91.7084 39.8384L91.168 40.2295L90.6987 39.5184L90.2293 40.2295ZM95.101 40.2295L94.5606 39.8384L95.101 39.1771L94.2726 38.946L94.4788 38.3095L95.2788 38.6224L95.2361 37.7584H95.9046L95.8619 38.6224L96.6654 38.3095L96.8717 38.946L96.0397 39.1771L96.5801 39.8384L96.0397 40.2295L95.5703 39.5184L95.101 40.2295ZM99.9727 40.2295L99.4322 39.8384L99.9727 39.1771L99.1442 38.946L99.3504 38.3095L100.15 38.6224L100.108 37.7584H100.776L100.734 38.6224L101.537 38.3095L101.743 38.946L100.911 39.1771L101.452 39.8384L100.911 40.2295L100.442 39.5184L99.9727 40.2295Z" fill="#969696"/>
<path d="M11.8436 60.5342V57.1208H12.3461L14.0267 59.6571V57.1208H14.5292V60.5342H14.0267L12.3461 57.9955V60.5342H11.8436ZM16.6154 60.6053C16.2741 60.6053 15.9833 60.531 15.7431 60.3825C15.5029 60.2324 15.3188 60.0238 15.1908 59.7567C15.0644 59.4896 15.0012 59.1799 15.0012 58.8275C15.0012 58.4751 15.0644 58.1654 15.1908 57.8983C15.3188 57.6313 15.5029 57.4235 15.7431 57.2749C15.9833 57.1248 16.2741 57.0497 16.6154 57.0497C16.9551 57.0497 17.2451 57.1248 17.4853 57.2749C17.7271 57.4235 17.9112 57.6313 18.0376 57.8983C18.164 58.1654 18.2272 58.4751 18.2272 58.8275C18.2272 59.1799 18.164 59.4896 18.0376 59.7567C17.9112 60.0238 17.7271 60.2324 17.4853 60.3825C17.2451 60.531 16.9551 60.6053 16.6154 60.6053ZM16.6154 60.1336C16.8572 60.1367 17.0579 60.0838 17.2175 59.9748C17.3786 59.8642 17.4995 59.7109 17.5801 59.5149C17.6607 59.3174 17.701 59.0883 17.701 58.8275C17.701 58.5668 17.6607 58.3392 17.5801 58.1448C17.4995 57.9489 17.3786 57.7964 17.2175 57.6874C17.0579 57.5783 16.8572 57.523 16.6154 57.5214C16.3736 57.5183 16.1721 57.5712 16.0109 57.6803C15.8513 57.7893 15.7312 57.9426 15.6506 58.1401C15.5701 58.3376 15.529 58.5668 15.5274 58.8275C15.5258 59.0883 15.5653 59.3166 15.6459 59.5125C15.7265 59.7069 15.8474 59.8586 16.0086 59.9677C16.1713 60.0767 16.3736 60.132 16.6154 60.1336ZM18.7001 60.5342V57.1208H19.1481L20.3854 59.688L21.6156 57.1208H22.0684V60.5318H21.599V58.197L20.4968 60.5342H20.2716L19.167 58.197V60.5342H18.7001ZM22.7325 60.5342V57.1208H24.9132V57.5878H23.2279V58.5454H24.6288V59.0124H23.2279V60.0672H24.9132V60.5342H22.7325ZM26.4315 60.5342V57.1208H28.6123V57.5878H26.9269V58.5454H28.3278V59.0124H26.9269V60.0672H28.6123V60.5342H26.4315ZM31.3679 60.6053C31.123 60.6053 30.9018 60.5634 30.7042 60.4797C30.5083 60.3943 30.3463 60.2734 30.2183 60.117C30.0919 59.959 30.0097 59.7717 29.9718 59.5552L30.4885 59.477C30.5407 59.6856 30.6497 59.8484 30.8156 59.9653C30.9816 60.0806 31.1752 60.1383 31.3964 60.1383C31.5339 60.1383 31.6603 60.117 31.7756 60.0743C31.891 60.0301 31.9834 59.9677 32.053 59.8871C32.1241 59.8049 32.1596 59.7069 32.1596 59.5931C32.1596 59.5315 32.1486 59.477 32.1265 59.4296C32.1059 59.3822 32.0767 59.3411 32.0388 59.3063C32.0024 59.27 31.9574 59.2392 31.9036 59.2139C31.8515 59.187 31.7938 59.1641 31.7306 59.1451L30.8559 58.8868C30.7706 58.8615 30.6837 58.8291 30.5952 58.7896C30.5067 58.7485 30.4253 58.6956 30.3511 58.6308C30.2784 58.5644 30.2191 58.483 30.1733 58.3866C30.1274 58.2886 30.1045 58.1701 30.1045 58.0311C30.1045 57.8209 30.1583 57.6431 30.2657 57.4977C30.3748 57.3508 30.5217 57.2402 30.7066 57.1659C30.8915 57.09 31.0985 57.0521 31.3276 57.0521C31.5584 57.0553 31.7646 57.0964 31.9463 57.1754C32.1296 57.2544 32.2813 57.3682 32.4014 57.5167C32.5231 57.6637 32.6069 57.8422 32.6527 58.0524L32.1217 58.1425C32.098 58.0145 32.0474 57.9046 31.97 57.813C31.8926 57.7198 31.7978 57.6486 31.6856 57.5997C31.5734 57.5491 31.4517 57.523 31.3205 57.5214C31.1941 57.5183 31.078 57.5372 30.9721 57.5783C30.8678 57.6194 30.784 57.6771 30.7208 57.7514C30.6592 57.8256 30.6284 57.911 30.6284 58.0074C30.6284 58.1022 30.656 58.1788 30.7114 58.2373C30.7667 58.2958 30.8346 58.3424 30.9152 58.3771C30.9974 58.4103 31.0788 58.438 31.1594 58.4601L31.7899 58.6379C31.8689 58.66 31.9582 58.69 32.0577 58.728C32.1589 58.7643 32.256 58.8157 32.3493 58.882C32.4441 58.9484 32.5223 59.0369 32.5839 59.1475C32.6456 59.2565 32.6764 59.394 32.6764 59.56C32.6764 59.7322 32.6416 59.8839 32.5721 60.0151C32.5026 60.1446 32.407 60.2537 32.2853 60.3422C32.1652 60.4291 32.0261 60.4947 31.8681 60.5389C31.7101 60.5832 31.5434 60.6053 31.3679 60.6053ZM34.6061 60.6053C34.2648 60.6053 33.974 60.531 33.7338 60.3825C33.4936 60.2324 33.3095 60.0238 33.1815 59.7567C33.0551 59.4896 32.9919 59.1799 32.9919 58.8275C32.9919 58.4751 33.0551 58.1654 33.1815 57.8983C33.3095 57.6313 33.4936 57.4235 33.7338 57.2749C33.974 57.1248 34.2648 57.0497 34.6061 57.0497C34.9459 57.0497 35.2359 57.1248 35.4761 57.2749C35.7178 57.4235 35.9019 57.6313 36.0284 57.8983C36.1548 58.1654 36.218 58.4751 36.218 58.8275C36.218 59.1799 36.1548 59.4896 36.0284 59.7567C35.9019 60.0238 35.7178 60.2324 35.4761 60.3825C35.2359 60.531 34.9459 60.6053 34.6061 60.6053ZM34.6061 60.1336C34.8479 60.1367 35.0486 60.0838 35.2082 59.9748C35.3694 59.8642 35.4903 59.7109 35.5709 59.5149C35.6515 59.3174 35.6918 59.0883 35.6918 58.8275C35.6918 58.5668 35.6515 58.3392 35.5709 58.1448C35.4903 57.9489 35.3694 57.7964 35.2082 57.6874C35.0486 57.5783 34.8479 57.523 34.6061 57.5214C34.3644 57.5183 34.1629 57.5712 34.0017 57.6803C33.8421 57.7893 33.722 57.9426 33.6414 58.1401C33.5608 58.3376 33.5197 58.5668 33.5181 58.8275C33.5165 59.0883 33.5561 59.3166 33.6366 59.5125C33.7172 59.7069 33.8381 59.8586 33.9993 59.9677C34.1621 60.0767 34.3644 60.132 34.6061 60.1336ZM36.6908 60.5342V57.1208H38.0324C38.2489 57.1208 38.4306 57.1651 38.5776 57.2536C38.7246 57.3421 38.8352 57.4566 38.9095 57.5973C38.9837 57.7364 39.0209 57.8833 39.0209 58.0382C39.0209 58.2262 38.9743 58.3874 38.881 58.5217C38.7894 58.6561 38.6653 58.7477 38.5089 58.7967L38.5041 58.6805C38.7222 58.7343 38.8897 58.8394 39.0066 58.9958C39.1236 59.1507 39.1821 59.3316 39.1821 59.5386C39.1821 59.7393 39.1418 59.9139 39.0612 60.0625C38.9822 60.211 38.866 60.3272 38.7127 60.4109C38.561 60.4931 38.3769 60.5342 38.1604 60.5342H36.6908ZM37.1933 60.0625H38.0846C38.1968 60.0625 38.2971 60.0411 38.3856 59.9985C38.4757 59.9558 38.546 59.895 38.5966 59.816C38.6487 59.7354 38.6748 59.6398 38.6748 59.5291C38.6748 59.4264 38.6519 59.334 38.6061 59.2518C38.5618 59.1681 38.497 59.1025 38.4117 59.0551C38.3279 59.0061 38.2292 58.9816 38.1154 58.9816H37.1933V60.0625ZM37.1933 58.5146H38.0253C38.117 58.5146 38.1991 58.4965 38.2718 58.4601C38.3461 58.4222 38.4046 58.3685 38.4472 58.2989C38.4915 58.2278 38.5136 58.1425 38.5136 58.0429C38.5136 57.9102 38.4694 57.8011 38.3809 57.7158C38.2924 57.6305 38.1739 57.5878 38.0253 57.5878H37.1933V58.5146ZM39.6538 60.5342V57.1208H41.0333C41.0665 57.1208 41.1076 57.1224 41.1566 57.1256C41.2056 57.1272 41.2522 57.1319 41.2964 57.1398C41.4861 57.1698 41.6441 57.2346 41.7705 57.3342C41.8985 57.4337 41.9941 57.5594 42.0573 57.7111C42.1205 57.8628 42.1521 58.0303 42.1521 58.2136C42.1521 58.4854 42.0826 58.7201 41.9435 58.9176C41.8045 59.1135 41.5959 59.236 41.3178 59.285L41.1163 59.3087H40.1492V60.5342H39.6538ZM41.6496 60.5342L40.9764 59.1451L41.4766 59.0171L42.2161 60.5342H41.6496ZM40.1492 58.8394H41.0144C41.046 58.8394 41.0807 58.8378 41.1186 58.8346C41.1582 58.8315 41.1953 58.8259 41.2301 58.818C41.3312 58.7943 41.4126 58.7509 41.4742 58.6877C41.5358 58.6229 41.5801 58.5486 41.6069 58.4648C41.6338 58.3811 41.6472 58.2973 41.6472 58.2136C41.6472 58.1298 41.6338 58.0469 41.6069 57.9647C41.5801 57.8809 41.5358 57.8075 41.4742 57.7443C41.4126 57.6795 41.3312 57.6352 41.2301 57.6115C41.1953 57.602 41.1582 57.5957 41.1186 57.5925C41.0807 57.5894 41.046 57.5878 41.0144 57.5878H40.1492V58.8394ZM42.7371 60.5342V57.1208H44.9178V57.5878H43.2325V58.5454H44.6334V59.0124H43.2325V60.0672H44.9178V60.5342H42.7371ZM45.4871 60.5342V57.1208H45.9896L47.6702 59.6571V57.1208H48.1727V60.5342H47.6702L45.9896 57.9955V60.5342H45.4871ZM50.2589 60.6053C49.9176 60.6053 49.6268 60.531 49.3866 60.3825C49.1464 60.2324 48.9623 60.0238 48.8343 59.7567C48.7079 59.4896 48.6447 59.1799 48.6447 58.8275C48.6447 58.4751 48.7079 58.1654 48.8343 57.8983C48.9623 57.6313 49.1464 57.4235 49.3866 57.2749C49.6268 57.1248 49.9176 57.0497 50.2589 57.0497C50.5987 57.0497 50.8886 57.1248 51.1288 57.2749C51.3706 57.4235 51.5547 57.6313 51.6811 57.8983C51.8076 58.1654 51.8708 58.4751 51.8708 58.8275C51.8708 59.1799 51.8076 59.4896 51.6811 59.7567C51.5547 60.0238 51.3706 60.2324 51.1288 60.3825C50.8886 60.531 50.5987 60.6053 50.2589 60.6053ZM50.2589 60.1336C50.5007 60.1367 50.7014 60.0838 50.861 59.9748C51.0222 59.8642 51.1431 59.7109 51.2236 59.5149C51.3042 59.3174 51.3445 59.0883 51.3445 58.8275C51.3445 58.5668 51.3042 58.3392 51.2236 58.1448C51.1431 57.9489 51.0222 57.7964 50.861 57.6874C50.7014 57.5783 50.5007 57.523 50.2589 57.5214C50.0171 57.5183 49.8156 57.5712 49.6545 57.6803C49.4949 57.7893 49.3748 57.9426 49.2942 58.1401C49.2136 58.3376 49.1725 58.5668 49.1709 58.8275C49.1693 59.0883 49.2088 59.3166 49.2894 59.5125C49.37 59.7069 49.4909 59.8586 49.6521 59.9677C49.8149 60.0767 50.0171 60.132 50.2589 60.1336ZM52.3436 60.5342V57.1208H52.7916L54.0289 59.688L55.2591 57.1208H55.7119V60.5318H55.2425V58.197L54.1403 60.5342H53.9151L52.8105 58.197V60.5342H52.3436ZM56.376 60.5342V57.1208H58.5567V57.5878H56.8714V58.5454H58.2723V59.0124H56.8714V60.0672H58.5567V60.5342H56.376Z" fill="#969696"/>
<path d="M85.6867 61.1393L85.3264 60.8786L85.6867 60.4377L85.1344 60.2836L85.2719 59.8593L85.8052 60.0679L85.7768 59.4919H86.2224L86.194 60.0679L86.7297 59.8593L86.8672 60.2836L86.3125 60.4377L86.6728 60.8786L86.3125 61.1393L85.9996 60.6653L85.6867 61.1393ZM88.7449 61.1393L88.3846 60.8786L88.7449 60.4377L88.1926 60.2836L88.33 59.8593L88.8634 60.0679L88.8349 59.4919H89.2806L89.2521 60.0679L89.7878 59.8593L89.9253 60.2836L89.3706 60.4377L89.7309 60.8786L89.3706 61.1393L89.0577 60.6653L88.7449 61.1393ZM94.153 59.4919H94.6531L93.7429 62.9053H93.2427L94.153 59.4919ZM98.3849 61.1393L98.0246 60.8786L98.3849 60.4377L97.8326 60.2836L97.97 59.8593L98.5034 60.0679L98.4749 59.4919H98.9206L98.8921 60.0679L99.4278 59.8593L99.5653 60.2836L99.0106 60.4377L99.3709 60.8786L99.0106 61.1393L98.6977 60.6653L98.3849 61.1393ZM101.443 61.1393L101.083 60.8786L101.443 60.4377L100.891 60.2836L101.028 59.8593L101.562 60.0679L101.533 59.4919H101.979L101.95 60.0679L102.486 59.8593L102.623 60.2836L102.069 60.4377L102.429 60.8786L102.069 61.1393L101.756 60.6653L101.443 61.1393ZM104.501 61.1393L104.141 60.8786L104.501 60.4377L103.949 60.2836L104.086 59.8593L104.62 60.0679L104.591 59.4919H105.037L105.008 60.0679L105.544 59.8593L105.682 60.2836L105.127 60.4377L105.487 60.8786L105.127 61.1393L104.814 60.6653L104.501 61.1393ZM107.559 61.1393L107.199 60.8786L107.559 60.4377L107.007 60.2836L107.144 59.8593L107.678 60.0679L107.649 59.4919H108.095L108.067 60.0679L108.602 59.8593L108.74 60.2836L108.185 60.4377L108.545 60.8786L108.185 61.1393L107.872 60.6653L107.559 61.1393Z" fill="#969696"/>
<path d="M85.7206 56.8252L85.0074 54.6309H85.3381L85.9461 56.5037L86.5617 54.6309H86.8924L86.1792 56.8252H85.7206ZM87.45 56.8709C87.3281 56.8709 87.226 56.8486 87.1438 56.8039C87.0615 56.7581 86.999 56.6982 86.9563 56.6241C86.9147 56.5489 86.8939 56.4666 86.8939 56.3772C86.8939 56.2939 86.9086 56.2208 86.938 56.1578C86.9675 56.0948 87.0112 56.0414 87.0691 55.9978C87.127 55.9531 87.1981 55.917 87.2824 55.8896C87.3556 55.8682 87.4384 55.8494 87.5308 55.8332C87.6233 55.8169 87.7203 55.8017 87.8219 55.7875C87.9245 55.7733 88.026 55.759 88.1266 55.7448L88.0108 55.8088C88.0128 55.6798 87.9854 55.5843 87.9285 55.5223C87.8726 55.4594 87.7761 55.4279 87.639 55.4279C87.5526 55.4279 87.4734 55.4482 87.4013 55.4888C87.3292 55.5284 87.2789 55.5945 87.2504 55.6869L86.9533 55.5955C86.9939 55.4543 87.0711 55.342 87.1849 55.2587C87.2997 55.1754 87.4521 55.1338 87.642 55.1338C87.7893 55.1338 87.9173 55.1592 88.026 55.21C88.1358 55.2597 88.216 55.339 88.2668 55.4477C88.2932 55.5015 88.3095 55.5584 88.3156 55.6183C88.3217 55.6783 88.3247 55.7428 88.3247 55.8119V56.8252H88.0428V56.4488L88.0977 56.4976C88.0296 56.6235 87.9427 56.7175 87.8371 56.7795C87.7325 56.8404 87.6034 56.8709 87.45 56.8709ZM87.5064 56.6103C87.5968 56.6103 87.6746 56.5946 87.7396 56.5631C87.8046 56.5306 87.8569 56.4894 87.8965 56.4397C87.9361 56.3899 87.962 56.3381 87.9742 56.2842C87.9915 56.2355 88.0012 56.1806 88.0032 56.1197C88.0062 56.0587 88.0078 56.01 88.0078 55.9734L88.1114 56.0115C88.0108 56.0267 87.9194 56.0404 87.8371 56.0526C87.7548 56.0648 87.6801 56.077 87.6131 56.0892C87.5471 56.1004 87.4881 56.1141 87.4363 56.1303C87.3926 56.1456 87.3535 56.1639 87.319 56.1852C87.2855 56.2065 87.2586 56.2324 87.2382 56.2629C87.2189 56.2934 87.2093 56.3305 87.2093 56.3741C87.2093 56.4168 87.2199 56.4564 87.2413 56.493C87.2626 56.5286 87.2951 56.557 87.3388 56.5783C87.3825 56.5997 87.4384 56.6103 87.5064 56.6103ZM88.7509 56.8252V54.5852H89.0694V56.8252H88.7509ZM89.5574 54.9098V54.6004H89.8759V54.9098H89.5574ZM89.5574 56.8252V55.1795H89.8759V56.8252H89.5574ZM90.9872 56.8709C90.8338 56.8709 90.7012 56.8328 90.5895 56.7566C90.4788 56.6804 90.3929 56.5768 90.332 56.4458C90.272 56.3137 90.2421 56.1654 90.2421 56.0008C90.2421 55.8352 90.2725 55.6874 90.3335 55.5574C90.3944 55.4263 90.4808 55.3232 90.5925 55.2481C90.7053 55.1719 90.8389 55.1338 90.9933 55.1338C91.1487 55.1338 91.2793 55.1719 91.3849 55.2481C91.4916 55.3232 91.5718 55.4263 91.6257 55.5574C91.6805 55.6884 91.708 55.8362 91.708 56.0008C91.708 56.1654 91.6805 56.3132 91.6257 56.4442C91.5708 56.5753 91.4901 56.6794 91.3834 56.7566C91.2767 56.8328 91.1447 56.8709 90.9872 56.8709ZM91.0314 56.5829C91.136 56.5829 91.2214 56.558 91.2874 56.5082C91.3534 56.4585 91.4017 56.3899 91.4322 56.3025C91.4626 56.2152 91.4779 56.1146 91.4779 56.0008C91.4779 55.887 91.4621 55.7865 91.4306 55.6991C91.4002 55.6117 91.3524 55.5437 91.2874 55.4949C91.2234 55.4461 91.1416 55.4218 91.0421 55.4218C90.9364 55.4218 90.8496 55.4477 90.7815 55.4995C90.7134 55.5513 90.6626 55.6209 90.6291 55.7082C90.5966 55.7956 90.5804 55.8931 90.5804 56.0008C90.5804 56.1095 90.5966 56.2081 90.6291 56.2964C90.6626 56.3838 90.7124 56.4534 90.7784 56.5052C90.8455 56.557 90.9298 56.5829 91.0314 56.5829ZM91.4779 56.8252V55.6412H91.4413V54.6309H91.7613V56.8252H91.4779ZM92.6524 56.8709C92.5305 56.8709 92.4284 56.8486 92.3461 56.8039C92.2639 56.7581 92.2014 56.6982 92.1587 56.6241C92.1171 56.5489 92.0962 56.4666 92.0962 56.3772C92.0962 56.2939 92.111 56.2208 92.1404 56.1578C92.1699 56.0948 92.2136 56.0414 92.2715 55.9978C92.3294 55.9531 92.4005 55.917 92.4848 55.8896C92.558 55.8682 92.6407 55.8494 92.7332 55.8332C92.8256 55.8169 92.9226 55.8017 93.0242 55.7875C93.1268 55.7733 93.2284 55.759 93.329 55.7448L93.2132 55.8088C93.2152 55.6798 93.1878 55.5843 93.1309 55.5223C93.075 55.4594 92.9785 55.4279 92.8414 55.4279C92.755 55.4279 92.6758 55.4482 92.6037 55.4888C92.5315 55.5284 92.4813 55.5945 92.4528 55.6869L92.1557 55.5955C92.1963 55.4543 92.2735 55.342 92.3873 55.2587C92.5021 55.1754 92.6545 55.1338 92.8444 55.1338C92.9917 55.1338 93.1197 55.1592 93.2284 55.21C93.3381 55.2597 93.4184 55.339 93.4692 55.4477C93.4956 55.5015 93.5119 55.5584 93.518 55.6183C93.524 55.6783 93.5271 55.7428 93.5271 55.8119V56.8252H93.2452V56.4488L93.3 56.4976C93.232 56.6235 93.1451 56.7175 93.0395 56.7795C92.9348 56.8404 92.8058 56.8709 92.6524 56.8709ZM92.7088 56.6103C92.7992 56.6103 92.8769 56.5946 92.942 56.5631C93.007 56.5306 93.0593 56.4894 93.0989 56.4397C93.1385 56.3899 93.1644 56.3381 93.1766 56.2842C93.1939 56.2355 93.2035 56.1806 93.2056 56.1197C93.2086 56.0587 93.2101 56.01 93.2101 55.9734L93.3138 56.0115C93.2132 56.0267 93.1218 56.0404 93.0395 56.0526C92.9572 56.0648 92.8825 56.077 92.8155 56.0892C92.7494 56.1004 92.6905 56.1141 92.6387 56.1303C92.595 56.1456 92.5559 56.1639 92.5214 56.1852C92.4879 56.2065 92.4609 56.2324 92.4406 56.2629C92.4213 56.2934 92.4117 56.3305 92.4117 56.3741C92.4117 56.4168 92.4223 56.4564 92.4437 56.493C92.465 56.5286 92.4975 56.557 92.5412 56.5783C92.5849 56.5997 92.6407 56.6103 92.7088 56.6103ZM94.5765 56.8709C94.4231 56.8709 94.2905 56.8328 94.1788 56.7566C94.0681 56.6804 93.9822 56.5768 93.9213 56.4458C93.8613 56.3137 93.8314 56.1654 93.8314 56.0008C93.8314 55.8352 93.8618 55.6874 93.9228 55.5574C93.9837 55.4263 94.0701 55.3232 94.1818 55.2481C94.2946 55.1719 94.4282 55.1338 94.5826 55.1338C94.738 55.1338 94.8686 55.1719 94.9742 55.2481C95.0809 55.3232 95.1611 55.4263 95.215 55.5574C95.2698 55.6884 95.2973 55.8362 95.2973 56.0008C95.2973 56.1654 95.2698 56.3132 95.215 56.4442C95.1601 56.5753 95.0794 56.6794 94.9727 56.7566C94.866 56.8328 94.734 56.8709 94.5765 56.8709ZM94.6207 56.5829C94.7253 56.5829 94.8107 56.558 94.8767 56.5082C94.9427 56.4585 94.991 56.3899 95.0214 56.3025C95.0519 56.2152 95.0672 56.1146 95.0672 56.0008C95.0672 55.887 95.0514 55.7865 95.0199 55.6991C94.9894 55.6117 94.9417 55.5437 94.8767 55.4949C94.8127 55.4461 94.7309 55.4218 94.6314 55.4218C94.5257 55.4218 94.4388 55.4477 94.3708 55.4995C94.3027 55.5513 94.2519 55.6209 94.2184 55.7082C94.1859 55.7956 94.1696 55.8931 94.1696 56.0008C94.1696 56.1095 94.1859 56.2081 94.2184 56.2964C94.2519 56.3838 94.3017 56.4534 94.3677 56.5052C94.4348 56.557 94.5191 56.5829 94.6207 56.5829ZM95.0672 56.8252V55.6412H95.0306V54.6309H95.3506V56.8252H95.0672ZM96.5069 56.8709C96.3433 56.8709 96.1996 56.8354 96.0756 56.7642C95.9527 56.6921 95.8567 56.5921 95.7876 56.4641C95.7196 56.335 95.6855 56.1857 95.6855 56.0161C95.6855 55.8362 95.719 55.6803 95.7861 55.5482C95.8542 55.4162 95.9486 55.3141 96.0695 55.242C96.1904 55.1698 96.3311 55.1338 96.4916 55.1338C96.6592 55.1338 96.802 55.1729 96.9198 55.2511C97.0376 55.3283 97.1255 55.4385 97.1834 55.5818C97.2423 55.725 97.2657 55.8952 97.2535 56.0922H96.935V55.9764C96.933 55.7854 96.8964 55.6442 96.8253 55.5528C96.7552 55.4614 96.6481 55.4157 96.5038 55.4157C96.3443 55.4157 96.2244 55.466 96.1442 55.5665C96.0639 55.6671 96.0238 55.8124 96.0238 56.0023C96.0238 56.1832 96.0639 56.3234 96.1442 56.4229C96.2244 56.5214 96.3403 56.5707 96.4916 56.5707C96.5912 56.5707 96.677 56.5484 96.7491 56.5037C96.8223 56.458 96.8792 56.3929 96.9198 56.3086L97.2322 56.4077C97.1682 56.555 97.0712 56.6693 96.9411 56.7505C96.8111 56.8308 96.6663 56.8709 96.5069 56.8709ZM95.9202 56.0922V55.8439H97.095V56.0922H95.9202Z" fill="#969696"/>
<defs>
<linearGradient id="paint0_linear_5150_4744" x1="113.672" y1="23.6896" x2="164.49" y2="93.4209" gradientUnits="userSpaceOnUse">
<stop stop-color="#070707"/>
<stop offset="1" stop-color="#C94000"/>
</linearGradient>
<linearGradient id="paint1_linear_5150_4744" x1="122.638" y1="119.806" x2="36.7709" y2="2.57658" gradientUnits="userSpaceOnUse">
<stop stop-color="#C94000"/>
<stop offset="1" stop-color="#C94000" stop-opacity="0"/>
</linearGradient>
<linearGradient id="paint2_linear_5150_4744" x1="121.055" y1="75.7254" x2="37.1342" y2="-7.19115" gradientUnits="userSpaceOnUse">
<stop stop-color="#F24D00"/>
<stop offset="1" stop-color="#444444" stop-opacity="0"/>
</linearGradient>
<linearGradient id="paint3_linear_5150_4744" x1="-24.9424" y1="136.742" x2="-45.0504" y2="20.4945" gradientUnits="userSpaceOnUse">
<stop stop-color="#F24D00"/>
<stop offset="1" stop-color="#444444" stop-opacity="0"/>
</linearGradient>
<clipPath id="clip0_5150_4744">
<rect width="128" height="75.2716" rx="3.05672" fill="white"/>
</clipPath>
</defs>
</svg>
