<svg width="131" height="36" viewBox="0 0 131 36" fill="none" xmlns="http://www.w3.org/2000/svg">
<path d="M65.5188 21.4885C62.8716 21.4885 60.714 23.5092 60.714 26.2923C60.714 29.0585 62.8716 31.0961 65.5188 31.0961C68.167 31.0961 70.3246 29.0585 70.3246 26.2923C70.3235 23.5092 68.1659 21.4885 65.5188 21.4885ZM65.5188 29.2053C64.068 29.2053 62.8176 28.0046 62.8176 26.2934C62.8176 24.5641 64.0691 23.3816 65.5188 23.3816C66.9695 23.3816 68.2199 24.5641 68.2199 26.2934C68.2199 28.0035 66.9695 29.2053 65.5188 29.2053ZM55.0359 21.4885C52.3887 21.4885 50.2311 23.5092 50.2311 26.2923C50.2311 29.0585 52.3887 31.0961 55.0359 31.0961C57.6842 31.0961 59.8417 29.0585 59.8417 26.2923C59.8417 23.5092 57.6842 21.4885 55.0359 21.4885ZM55.0359 29.2053C53.5851 29.2053 52.3347 28.0046 52.3347 26.2934C52.3347 24.5641 53.5862 23.3816 55.0359 23.3816C56.4866 23.3816 57.7371 24.5641 57.7371 26.2934C57.7382 28.0035 56.4866 29.2053 55.0359 29.2053ZM42.5676 22.9636V25.0013H47.4275C47.2823 26.1477 46.9019 26.9847 46.3212 27.5664C45.6143 28.2757 44.508 29.0585 42.5676 29.0585C39.576 29.0585 37.2373 26.6379 37.2373 23.6357C37.2373 20.6335 39.576 18.2129 42.5676 18.2129C44.1816 18.2129 45.36 18.85 46.23 19.6689L47.6627 18.231C46.4472 17.0665 44.8344 16.1753 42.5676 16.1753C38.4697 16.1753 35.0245 19.5232 35.0245 23.6357C35.0245 27.7482 38.4697 31.0961 42.5676 31.0961C44.7792 31.0961 46.4483 30.3676 47.7528 29.0031C49.0944 27.6567 49.5119 25.7637 49.5119 24.2355C49.5119 23.7633 49.4759 23.3262 49.4028 22.9625H42.5676V22.9636ZM93.562 24.5461C93.1629 23.473 91.9473 21.4885 89.4634 21.4885C86.9977 21.4885 84.9485 23.4358 84.9485 26.2923C84.9485 28.985 86.9796 31.0961 89.6989 31.0961C91.8928 31.0961 93.162 29.7497 93.6893 28.967L92.0573 27.8747C91.5136 28.6756 90.769 29.203 89.6989 29.203C88.6297 29.203 87.8678 28.7117 87.3778 27.7471L93.7793 25.0905L93.562 24.5461ZM87.0341 26.1477C86.9796 24.2908 88.4669 23.3454 89.537 23.3454C90.3708 23.3454 91.0781 23.7645 91.3145 24.3642L87.0341 26.1477ZM81.8308 30.8058H83.9329V16.6858H81.8308V30.8058ZM78.3842 22.5627H78.3124C77.8405 21.9979 76.9332 21.4885 75.7921 21.4885C73.3984 21.4885 71.2048 23.5995 71.2048 26.3115C71.2048 29.0042 73.3984 31.0972 75.7921 31.0972C76.9349 31.0972 77.8405 30.5878 78.3124 30.0061H78.3842V30.6974C78.3842 32.5351 77.405 33.5178 75.8285 33.5178C74.5407 33.5178 73.7428 32.5904 73.4164 31.8077L71.5852 32.5724C72.1108 33.8453 73.5064 35.4108 75.8285 35.4108C78.2942 35.4108 80.3798 33.9549 80.3798 30.406V21.781H78.3851V22.5627H78.3842ZM75.9739 29.2053C74.5227 29.2053 73.3083 27.9854 73.3083 26.3115C73.3083 24.6184 74.5227 23.3816 75.9739 23.3816C77.405 23.3816 78.5297 24.6184 78.5297 26.3115C78.5297 27.9854 77.405 29.2053 75.9739 29.2053ZM103.414 16.6858H98.3826V30.8058H100.481V25.4565H103.414C105.741 25.4565 108.03 23.7656 108.03 21.0717C108.03 18.3778 105.742 16.6858 103.414 16.6858ZM103.468 23.4911H100.481V18.6512H103.468C105.039 18.6512 105.929 19.9558 105.929 21.0717C105.929 22.1651 105.039 23.4911 103.468 23.4911ZM116.448 21.4636C114.927 21.4636 113.353 22.1357 112.701 23.6255L114.565 24.406C114.963 23.6255 115.706 23.3703 116.483 23.3703C117.57 23.3703 118.674 24.0242 118.692 25.1865V25.3322C118.312 25.1142 117.496 24.7878 116.501 24.7878C114.493 24.7878 112.446 25.8958 112.446 27.9662C112.446 29.8559 114.095 31.0724 115.94 31.0724C117.352 31.0724 118.13 30.4365 118.619 29.691H118.691V30.781H120.719V25.3672C120.72 22.862 118.854 21.4636 116.448 21.4636ZM116.193 29.2019C115.507 29.2019 114.546 28.8563 114.546 28.0024C114.546 26.9124 115.742 26.4945 116.774 26.4945C117.696 26.4945 118.132 26.6944 118.692 26.9666C118.529 28.2757 117.406 29.2019 116.193 29.2019ZM128.104 21.772L125.697 27.8939H125.625L123.126 21.772H120.864L124.611 30.328L122.474 35.0878H124.665L130.439 21.772H128.104ZM109.189 30.8058H111.289V16.6858H109.189V30.8058Z" fill="#070707"/>
<path fill-rule="evenodd" clip-rule="evenodd" d="M17.0375 11.5577L5.09694 4.67345C4.64604 4.40496 4.11981 4.25 3.55667 4.25C2.39468 4.25 1.37291 4.94982 0.882791 5.92821L0.972636 6.01744L11.7921 16.7714L17.0375 11.5577ZM0.578182 7.0823C0.576109 7.12597 0.575073 7.16972 0.575073 7.2137V27.7863C0.575073 27.8303 0.576109 27.874 0.578182 27.9176L11.0593 17.4999L0.578182 7.0823ZM0.882871 29.0717C1.37299 30.0501 2.395 30.75 3.55667 30.75C4.10769 30.75 4.625 30.6019 5.06872 30.3418L5.10395 30.3213L17.058 23.4623L11.7921 18.2283L0.972636 28.9826L0.882871 29.0717ZM17.9873 22.9291L22.8552 20.1359C23.7903 19.6341 24.4251 18.6541 24.4251 17.5239C24.4251 16.4019 23.7988 15.4268 22.873 14.9233L22.8624 14.9161L17.9652 12.0926L12.5251 17.4999L17.9873 22.9291Z" fill="#070707"/>
<path d="M35.6429 11.2749V4.9149H37.6039C37.6686 4.9149 37.782 4.91637 37.944 4.91932C38.1059 4.92226 38.2605 4.93404 38.4077 4.95465C38.8994 5.01943 39.3102 5.19904 39.64 5.49348C39.9727 5.78498 40.223 6.15598 40.3908 6.60648C40.5586 7.05698 40.6425 7.55312 40.6425 8.0949C40.6425 8.63668 40.5586 9.13282 40.3908 9.58332C40.223 10.0338 39.9727 10.4063 39.64 10.7007C39.3102 10.9922 38.8994 11.1704 38.4077 11.2352C38.2605 11.2528 38.1044 11.2646 37.9395 11.2705C37.7776 11.2734 37.6657 11.2749 37.6039 11.2749H35.6429ZM36.4511 10.5241H37.6039C37.7158 10.5241 37.8409 10.5211 37.9793 10.5152C38.1177 10.5064 38.2384 10.4932 38.3415 10.4755C38.6889 10.4107 38.9701 10.265 39.185 10.0382C39.4 9.81151 39.5575 9.52885 39.6576 9.19024C39.7577 8.85162 39.8078 8.48651 39.8078 8.0949C39.8078 7.69446 39.7563 7.32493 39.6532 6.98632C39.5531 6.64771 39.3956 6.36651 39.1806 6.14273C38.9657 5.91896 38.686 5.77615 38.3415 5.71432C38.2384 5.69371 38.1162 5.68046 37.9749 5.67457C37.8335 5.66868 37.7099 5.66573 37.6039 5.66573H36.4511V10.5241ZM41.7437 11.2749V4.9149H42.5299V11.2749H41.7437ZM46.112 11.4074C45.6615 11.4074 45.2552 11.3308 44.893 11.1777C44.5338 11.0246 44.2364 10.8067 44.0009 10.5241C43.7682 10.2385 43.6166 9.90132 43.5459 9.51265L44.3586 9.38457C44.4617 9.78501 44.6751 10.0986 44.999 10.3253C45.3259 10.5491 45.7101 10.661 46.1518 10.661C46.4374 10.661 46.695 10.6168 46.9247 10.5285C47.1573 10.4372 47.3413 10.3077 47.4768 10.1398C47.6122 9.97199 47.6799 9.77324 47.6799 9.54357C47.6799 9.40224 47.6549 9.28151 47.6049 9.1814C47.5578 9.07835 47.4915 8.99149 47.4061 8.92082C47.3237 8.84721 47.2294 8.78537 47.1234 8.73532C47.0174 8.68526 46.907 8.64404 46.7922 8.61165L45.1713 8.13024C44.9946 8.07724 44.8238 8.01098 44.6589 7.93148C44.4941 7.84904 44.3468 7.74746 44.2173 7.62673C44.0877 7.50307 43.9847 7.35585 43.9081 7.18507C43.8316 7.01135 43.7933 6.80671 43.7933 6.57115C43.7933 6.19426 43.8904 5.87332 44.0848 5.60832C44.2821 5.34037 44.5485 5.13573 44.8842 4.9944C45.2199 4.85307 45.5982 4.78387 46.0193 4.78682C46.4462 4.78976 46.8275 4.86632 47.1632 5.01648C47.5018 5.16371 47.7815 5.37571 48.0024 5.65248C48.2261 5.92926 48.3763 6.26051 48.4529 6.64623L47.6181 6.79198C47.5739 6.53287 47.4753 6.31057 47.3222 6.12507C47.172 5.93662 46.9836 5.79235 46.7569 5.69223C46.5301 5.58918 46.2813 5.53618 46.0104 5.53323C45.7513 5.53029 45.5173 5.57151 45.3082 5.6569C45.0991 5.74229 44.9328 5.86154 44.8091 6.01465C44.6854 6.16482 44.6236 6.33854 44.6236 6.53582C44.6236 6.73015 44.6796 6.88768 44.7914 7.0084C44.9033 7.12618 45.0402 7.2204 45.2022 7.29107C45.3671 7.35879 45.5276 7.41473 45.6836 7.4589L46.8938 7.80782C47.0322 7.8461 47.1912 7.8991 47.3708 7.96682C47.5533 8.03454 47.73 8.13024 47.9008 8.2539C48.0716 8.37462 48.2129 8.53657 48.3248 8.73974C48.4367 8.93996 48.4926 9.19318 48.4926 9.4994C48.4926 9.80562 48.4308 10.078 48.3071 10.3165C48.1864 10.555 48.0171 10.7552 47.7992 10.9172C47.5813 11.0762 47.3281 11.1969 47.0395 11.2793C46.751 11.3647 46.4418 11.4074 46.112 11.4074ZM49.4191 11.2749V4.9149H51.9322C51.994 4.9149 52.0676 4.91785 52.153 4.92373C52.2384 4.92668 52.3208 4.93551 52.4003 4.95023C52.7448 5.00323 53.0334 5.12101 53.266 5.30357C53.5015 5.48612 53.6782 5.71726 53.796 5.99698C53.9138 6.27376 53.9727 6.58146 53.9727 6.92007C53.9727 7.25573 53.9123 7.56343 53.7916 7.84315C53.6738 8.11993 53.4971 8.35107 53.2616 8.53657C53.029 8.71912 52.7419 8.8369 52.4003 8.8899C52.3208 8.90168 52.2384 8.91051 52.153 8.9164C52.0676 8.92229 51.994 8.92524 51.9322 8.92524H50.2052V11.2749H49.4191ZM50.2052 8.17882H51.9057C51.9616 8.17882 52.0249 8.17587 52.0956 8.16999C52.1692 8.1641 52.2384 8.15379 52.3032 8.13907C52.5063 8.09196 52.6712 8.00657 52.7978 7.8829C52.9274 7.75629 53.0216 7.60907 53.0805 7.44123C53.1394 7.27046 53.1688 7.09673 53.1688 6.92007C53.1688 6.7434 53.1394 6.57115 53.0805 6.40332C53.0216 6.23254 52.9274 6.08385 52.7978 5.95723C52.6712 5.83062 52.5063 5.74523 52.3032 5.70107C52.2384 5.6834 52.1692 5.6731 52.0956 5.67015C52.0249 5.66426 51.9616 5.66132 51.9057 5.66132H50.2052V8.17882ZM57.4683 11.4074C56.8353 11.4074 56.2979 11.2675 55.8562 10.9878C55.4146 10.7081 55.0774 10.3194 54.8448 9.82182C54.6151 9.32421 54.5003 8.74857 54.5003 8.0949C54.5003 7.44123 54.6151 6.8656 54.8448 6.36798C55.0774 5.87037 55.4146 5.48171 55.8562 5.20198C56.2979 4.92226 56.8353 4.7824 57.4683 4.7824C58.1043 4.7824 58.6431 4.92226 59.0848 5.20198C59.5265 5.48171 59.8621 5.87037 60.0918 6.36798C60.3215 6.8656 60.4363 7.44123 60.4363 8.0949C60.4363 8.74857 60.3215 9.32421 60.0918 9.82182C59.8621 10.3194 59.5265 10.7081 59.0848 10.9878C58.6431 11.2675 58.1043 11.4074 57.4683 11.4074ZM57.4683 10.6566C57.9424 10.6595 58.3369 10.5535 58.652 10.3386C58.97 10.1207 59.207 9.81887 59.3631 9.43315C59.5221 9.04743 59.6016 8.60135 59.6016 8.0949C59.6016 7.58551 59.5221 7.13943 59.3631 6.75665C59.207 6.37387 58.97 6.07501 58.652 5.86007C58.3369 5.64512 57.9424 5.53618 57.4683 5.53323C56.9943 5.53029 56.5997 5.63629 56.2846 5.85123C55.9725 6.06618 55.737 6.36651 55.578 6.75223C55.419 7.13796 55.338 7.58551 55.3351 8.0949C55.3321 8.60135 55.4101 9.04596 55.5691 9.42874C55.7281 9.81151 55.9652 10.1118 56.2802 10.3297C56.5982 10.5447 56.9943 10.6536 57.4683 10.6566ZM61.3234 11.2749V4.9149H62.1184L65.4353 9.88365V4.9149H66.2303V11.2749H65.4353L62.1184 6.30173V11.2749H61.3234ZM68.2824 4.18615H67.642L68.2206 2.72865H68.861L68.2824 4.18615ZM67.5536 11.2749V4.9149H68.3398V11.2749H67.5536ZM71.2197 11.2749L69.0908 4.9149H69.9079L71.7585 10.4402L73.6268 4.9149H74.4438L72.315 11.2749H71.2197ZM75.1082 11.2749V4.9149H79.1274V5.66132H75.8944V7.65323H78.5974V8.39965H75.8944V10.5285H79.1274V11.2749H75.1082ZM80.2774 11.2749V4.9149H81.0636V10.5285H84.0139V11.2749H80.2774ZM86.0895 11.2749V4.9149H86.8845L90.2014 9.88365V4.9149H90.9964V11.2749H90.2014L86.8845 6.30173V11.2749H86.0895ZM94.8461 11.4074C94.213 11.4074 93.6757 11.2675 93.234 10.9878C92.7923 10.7081 92.4552 10.3194 92.2226 9.82182C91.9929 9.32421 91.8781 8.74857 91.8781 8.0949C91.8781 7.44123 91.9929 6.8656 92.2226 6.36798C92.4552 5.87037 92.7923 5.48171 93.234 5.20198C93.6757 4.92226 94.213 4.7824 94.8461 4.7824C95.4821 4.7824 96.0209 4.92226 96.4626 5.20198C96.9043 5.48171 97.2399 5.87037 97.4696 6.36798C97.6993 6.8656 97.8141 7.44123 97.8141 8.0949C97.8141 8.74857 97.6993 9.32421 97.4696 9.82182C97.2399 10.3194 96.9043 10.7081 96.4626 10.9878C96.0209 11.2675 95.4821 11.4074 94.8461 11.4074ZM94.8461 10.6566C95.3201 10.6595 95.7147 10.5535 96.0298 10.3386C96.3478 10.1207 96.5848 9.81887 96.7408 9.43315C96.8998 9.04743 96.9793 8.60135 96.9793 8.0949C96.9793 7.58551 96.8998 7.13943 96.7408 6.75665C96.5848 6.37387 96.3478 6.07501 96.0298 5.86007C95.7147 5.64512 95.3201 5.53618 94.8461 5.53323C94.372 5.53029 93.9775 5.63629 93.6624 5.85123C93.3503 6.06618 93.1148 6.36651 92.9558 6.75223C92.7968 7.13796 92.7158 7.58551 92.7128 8.0949C92.7099 8.60135 92.7879 9.04596 92.9469 9.42874C93.1059 9.81151 93.3429 10.1118 93.658 10.3297C93.976 10.5447 94.372 10.6536 94.8461 10.6566Z" fill="#070707"/>
</svg>
