<svg width="104" height="29" viewBox="0 0 104 29" fill="none" xmlns="http://www.w3.org/2000/svg">
<path d="M52.0148 17.1607C49.9171 17.1607 48.2073 18.762 48.2073 20.9674C48.2073 23.1595 49.9171 24.7742 52.0148 24.7742C54.1135 24.7742 55.8233 23.1595 55.8233 20.9674C55.8224 18.762 54.1126 17.1607 52.0148 17.1607ZM52.0148 23.2759C50.8652 23.2759 49.8743 22.3244 49.8743 20.9683C49.8743 19.598 50.8661 18.6608 52.0148 18.6608C53.1645 18.6608 54.1554 19.598 54.1554 20.9683C54.1554 22.3235 53.1645 23.2759 52.0148 23.2759ZM43.7076 17.1607C41.6099 17.1607 39.9001 18.762 39.9001 20.9674C39.9001 23.1595 41.6099 24.7742 43.7076 24.7742C45.8063 24.7742 47.5161 23.1595 47.5161 20.9674C47.5161 18.762 45.8063 17.1607 43.7076 17.1607ZM43.7076 23.2759C42.558 23.2759 41.5671 22.3244 41.5671 20.9683C41.5671 19.598 42.5589 18.6608 43.7076 18.6608C44.8573 18.6608 45.8482 19.598 45.8482 20.9683C45.8491 22.3235 44.8573 23.2759 43.7076 23.2759ZM33.8271 18.3296V19.9444H37.6784C37.5633 20.8529 37.2619 21.5161 36.8016 21.9771C36.2415 22.5392 35.3648 23.1595 33.8271 23.1595C31.4565 23.1595 29.6031 21.2413 29.6031 18.8622C29.6031 16.4831 31.4565 14.5649 33.8271 14.5649C35.1061 14.5649 36.04 15.0697 36.7294 15.7187L37.8648 14.5792C36.9015 13.6564 35.6234 12.9502 33.8271 12.9502C30.5797 12.9502 27.8496 15.6032 27.8496 18.8622C27.8496 22.1212 30.5797 24.7742 33.8271 24.7742C35.5797 24.7742 36.9024 24.1969 37.9361 23.1156C38.9993 22.0487 39.3302 20.5485 39.3302 19.3375C39.3302 18.9634 39.3016 18.617 39.2437 18.3287H33.8271V18.3296ZM74.2378 19.5836C73.9215 18.7333 72.9582 17.1607 70.9899 17.1607C69.0359 17.1607 67.412 18.7038 67.412 20.9674C67.412 23.1013 69.0215 24.7742 71.1765 24.7742C72.915 24.7742 73.9208 23.7073 74.3386 23.087L73.0454 22.2215C72.6145 22.8561 72.0245 23.2741 71.1765 23.2741C70.3292 23.2741 69.7254 22.8847 69.3371 22.1203L74.41 20.0151L74.2378 19.5836ZM69.0647 20.8529C69.0215 19.3814 70.2002 18.6322 71.0482 18.6322C71.7089 18.6322 72.2694 18.9642 72.4567 19.4395L69.0647 20.8529ZM64.9414 24.5442H66.6072V13.3548H64.9414V24.5442ZM62.2101 18.0119H62.1532C61.7793 17.5643 61.0602 17.1607 60.156 17.1607C58.2591 17.1607 56.5207 18.8336 56.5207 20.9827C56.5207 23.1165 58.2591 24.7751 60.156 24.7751C61.0616 24.7751 61.7793 24.3714 62.1532 23.9105H62.2101V24.4583C62.2101 25.9146 61.4342 26.6933 60.1848 26.6933C59.1643 26.6933 58.532 25.9584 58.2733 25.3381L56.8222 25.9441C57.2387 26.9529 58.3447 28.1934 60.1848 28.1934C62.1388 28.1934 63.7915 27.0397 63.7915 24.2273V17.3925H62.2108V18.0119H62.2101ZM60.3001 23.2759C59.1501 23.2759 58.1877 22.3092 58.1877 20.9827C58.1877 19.6409 59.1501 18.6608 60.3001 18.6608C61.4342 18.6608 62.3254 19.6409 62.3254 20.9827C62.3254 22.3092 61.4342 23.2759 60.3001 23.2759ZM82.0454 13.3548H78.0579V24.5442H79.7209V20.3051H82.0447C83.8888 20.3051 85.7028 18.9651 85.7028 16.8304C85.7028 14.6956 83.8895 13.3548 82.0454 13.3548ZM82.0879 18.7476H79.7209V14.9122H82.0879C83.3324 14.9122 84.0384 15.946 84.0384 16.8304C84.0384 17.6968 83.3324 18.7476 82.0879 18.7476ZM92.3736 17.141C91.1688 17.141 89.9209 17.6735 89.4042 18.8542L90.8814 19.4727C91.197 18.8542 91.7856 18.6519 92.4017 18.6519C93.2627 18.6519 94.1375 19.1701 94.1519 20.0912V20.2066C93.8507 20.0339 93.2044 19.7752 92.4161 19.7752C90.8244 19.7752 89.2025 20.6533 89.2025 22.294C89.2025 23.7914 90.5088 24.7554 91.9715 24.7554C93.0899 24.7554 93.7066 24.2515 94.0943 23.6607H94.1512V24.5245H95.758V20.2344C95.7594 18.2491 94.2802 17.141 92.3736 17.141ZM92.1719 23.2732C91.6278 23.2732 90.867 22.9993 90.867 22.3226C90.867 21.4588 91.8144 21.1277 92.6322 21.1277C93.3629 21.1277 93.708 21.2861 94.1519 21.5018C94.0229 22.5392 93.1331 23.2732 92.1719 23.2732ZM101.611 17.3853L99.703 22.2367H99.646L97.666 17.3853H95.8733L98.8426 24.1656L97.1494 27.9374H98.8852L103.461 17.3853H101.611ZM86.6215 24.5442H88.2852V13.3548H86.6215V24.5442Z" fill="white"/>
<path fill-rule="evenodd" clip-rule="evenodd" d="M13.5955 9.29099L4.13317 3.83557C3.77586 3.6228 3.35884 3.5 2.91258 3.5C1.99175 3.5 1.18205 4.05457 0.793657 4.8299L0.864854 4.90062L9.43879 13.4226L13.5955 9.29099ZM0.552268 5.74446C0.550626 5.77907 0.549805 5.81374 0.549805 5.84859V22.1514C0.549805 22.1863 0.550626 22.2209 0.552268 22.2555L8.85803 13.9999L0.552268 5.74446ZM0.79372 23.17C1.18211 23.9454 1.99201 24.5 2.91258 24.5C3.34924 24.5 3.75918 24.3826 4.1108 24.1766L4.13873 24.1603L13.6118 18.7248L9.43879 14.5771L0.864854 23.0994L0.79372 23.17ZM14.3482 18.3023L18.2057 16.0889C18.9467 15.6912 19.4498 14.9145 19.4498 14.0189C19.4498 13.1298 18.9535 12.3571 18.2199 11.9581L18.2115 11.9523L14.3307 9.71486L10.0196 13.9999L14.3482 18.3023Z" fill="white"/>
<path d="M28.3396 8.34961V3.30961H29.8936C29.9449 3.30961 30.0348 3.31078 30.1631 3.31311C30.2914 3.31544 30.4139 3.32478 30.5306 3.34111C30.9203 3.39244 31.2458 3.53478 31.5071 3.76811C31.7708 3.99911 31.9691 4.29311 32.1021 4.65011C32.2351 5.00711 32.3016 5.40028 32.3016 5.82961C32.3016 6.25894 32.2351 6.65211 32.1021 7.00911C31.9691 7.36611 31.7708 7.66128 31.5071 7.89461C31.2458 8.12561 30.9203 8.26678 30.5306 8.31811C30.4139 8.33211 30.2903 8.34144 30.1596 8.34611C30.0313 8.34844 29.9426 8.34961 29.8936 8.34961H28.3396ZM28.9801 7.75461H29.8936C29.9823 7.75461 30.0814 7.75228 30.1911 7.74761C30.3008 7.74061 30.3964 7.73011 30.4781 7.71611C30.7534 7.66478 30.9763 7.54928 31.1466 7.36961C31.3169 7.18994 31.4418 6.96594 31.5211 6.69761C31.6004 6.42928 31.6401 6.13994 31.6401 5.82961C31.6401 5.51228 31.5993 5.21944 31.5176 4.95111C31.4383 4.68278 31.3134 4.45994 31.1431 4.28261C30.9728 4.10528 30.7511 3.99211 30.4781 3.94311C30.3964 3.92678 30.2996 3.91628 30.1876 3.91161C30.0756 3.90694 29.9776 3.90461 29.8936 3.90461H28.9801V7.75461ZM33.1743 8.34961V3.30961H33.7973V8.34961H33.1743ZM36.6359 8.45461C36.2789 8.45461 35.9569 8.39394 35.6699 8.27261C35.3853 8.15128 35.1496 7.97861 34.9629 7.75461C34.7786 7.52828 34.6584 7.26111 34.6024 6.95311L35.2464 6.85161C35.3281 7.16894 35.4973 7.41744 35.7539 7.59711C36.0129 7.77444 36.3174 7.86311 36.6674 7.86311C36.8938 7.86311 37.0979 7.82811 37.2799 7.75811C37.4643 7.68578 37.6101 7.58311 37.7174 7.45011C37.8248 7.31711 37.8784 7.15961 37.8784 6.97761C37.8784 6.86561 37.8586 6.76994 37.8189 6.69061C37.7816 6.60894 37.7291 6.54011 37.6614 6.48411C37.5961 6.42578 37.5214 6.37678 37.4374 6.33711C37.3534 6.29744 37.2659 6.26478 37.1749 6.23911L35.8904 5.85761C35.7504 5.81561 35.6151 5.76311 35.4844 5.70011C35.3538 5.63478 35.2371 5.55428 35.1344 5.45861C35.0318 5.36061 34.9501 5.24394 34.8894 5.10861C34.8288 4.97094 34.7984 4.80878 34.7984 4.62211C34.7984 4.32344 34.8754 4.06911 35.0294 3.85911C35.1858 3.64678 35.3969 3.48461 35.6629 3.37261C35.9289 3.26061 36.2288 3.20578 36.5624 3.20811C36.9008 3.21044 37.2029 3.27111 37.4689 3.39011C37.7373 3.50678 37.9589 3.67478 38.1339 3.89411C38.3113 4.11344 38.4303 4.37594 38.4909 4.68161L37.8294 4.79711C37.7944 4.59178 37.7163 4.41561 37.5949 4.26861C37.4759 4.11928 37.3266 4.00494 37.1469 3.92561C36.9673 3.84394 36.7701 3.80194 36.5554 3.79961C36.3501 3.79728 36.1646 3.82994 35.9989 3.89761C35.8333 3.96528 35.7014 4.05978 35.6034 4.18111C35.5054 4.30011 35.4564 4.43778 35.4564 4.59411C35.4564 4.74811 35.5008 4.87294 35.5894 4.96861C35.6781 5.06194 35.7866 5.13661 35.9149 5.19261C36.0456 5.24628 36.1728 5.29061 36.2964 5.32561L37.2554 5.60211C37.3651 5.63244 37.4911 5.67444 37.6334 5.72811C37.7781 5.78178 37.9181 5.85761 38.0534 5.95561C38.1888 6.05128 38.3008 6.17961 38.3894 6.34061C38.4781 6.49928 38.5224 6.69994 38.5224 6.94261C38.5224 7.18528 38.4734 7.40111 38.3754 7.59011C38.2798 7.77911 38.1456 7.93778 37.9729 8.06611C37.8003 8.19211 37.5996 8.28778 37.3709 8.35311C37.1423 8.42078 36.8973 8.45461 36.6359 8.45461ZM39.2566 8.34961V3.30961H41.2481C41.2971 3.30961 41.3554 3.31194 41.4231 3.31661C41.4908 3.31894 41.5561 3.32594 41.6191 3.33761C41.8921 3.37961 42.1208 3.47294 42.3051 3.61761C42.4918 3.76228 42.6318 3.94544 42.7251 4.16711C42.8184 4.38644 42.8651 4.63028 42.8651 4.89861C42.8651 5.16461 42.8173 5.40844 42.7216 5.63011C42.6283 5.84944 42.4883 6.03261 42.3016 6.17961C42.1173 6.32428 41.8898 6.41761 41.6191 6.45961C41.5561 6.46894 41.4908 6.47594 41.4231 6.48061C41.3554 6.48528 41.2971 6.48761 41.2481 6.48761H39.8796V8.34961H39.2566ZM39.8796 5.89611H41.2271C41.2714 5.89611 41.3216 5.89378 41.3776 5.88911C41.4359 5.88444 41.4908 5.87628 41.5421 5.86461C41.7031 5.82728 41.8338 5.75961 41.9341 5.66161C42.0368 5.56128 42.1114 5.44461 42.1581 5.31161C42.2048 5.17628 42.2281 5.03861 42.2281 4.89861C42.2281 4.75861 42.2048 4.62211 42.1581 4.48911C42.1114 4.35378 42.0368 4.23594 41.9341 4.13561C41.8338 4.03528 41.7031 3.96761 41.5421 3.93261C41.4908 3.91861 41.4359 3.91044 41.3776 3.90811C41.3216 3.90344 41.2714 3.90111 41.2271 3.90111H39.8796V5.89611ZM45.6352 8.45461C45.1336 8.45461 44.7077 8.34378 44.3577 8.12211C44.0077 7.90044 43.7406 7.59244 43.5562 7.19811C43.3742 6.80378 43.2832 6.34761 43.2832 5.82961C43.2832 5.31161 43.3742 4.85544 43.5562 4.46111C43.7406 4.06678 44.0077 3.75878 44.3577 3.53711C44.7077 3.31544 45.1336 3.20461 45.6352 3.20461C46.1392 3.20461 46.5662 3.31544 46.9162 3.53711C47.2662 3.75878 47.5322 4.06678 47.7142 4.46111C47.8962 4.85544 47.9872 5.31161 47.9872 5.82961C47.9872 6.34761 47.8962 6.80378 47.7142 7.19811C47.5322 7.59244 47.2662 7.90044 46.9162 8.12211C46.5662 8.34378 46.1392 8.45461 45.6352 8.45461ZM45.6352 7.85961C46.0109 7.86194 46.3236 7.77794 46.5732 7.60761C46.8252 7.43494 47.0131 7.19578 47.1367 6.89011C47.2627 6.58444 47.3257 6.23094 47.3257 5.82961C47.3257 5.42594 47.2627 5.07244 47.1367 4.76911C47.0131 4.46578 46.8252 4.22894 46.5732 4.05861C46.3236 3.88828 46.0109 3.80194 45.6352 3.79961C45.2596 3.79728 44.9469 3.88128 44.6972 4.05161C44.4499 4.22194 44.2632 4.45994 44.1372 4.76561C44.0112 5.07128 43.9471 5.42594 43.9447 5.82961C43.9424 6.23094 44.0042 6.58328 44.1302 6.88661C44.2562 7.18994 44.4441 7.42794 44.6937 7.60061C44.9457 7.77094 45.2596 7.85728 45.6352 7.85961ZM48.6902 8.34961V3.30961H49.3202L51.9487 7.24711V3.30961H52.5787V8.34961H51.9487L49.3202 4.40861V8.34961H48.6902ZM54.2049 2.73211H53.6974L54.1559 1.57711H54.6634L54.2049 2.73211ZM53.6274 8.34961V3.30961H54.2504V8.34961H53.6274ZM56.5325 8.34961L54.8455 3.30961H55.493L56.9595 7.68811L58.44 3.30961H59.0875L57.4005 8.34961H56.5325ZM59.614 8.34961V3.30961H62.799V3.90111H60.237V5.47961H62.379V6.07111H60.237V7.75811H62.799V8.34961H59.614ZM63.7104 8.34961V3.30961H64.3334V7.75811H66.6714V8.34961H63.7104ZM68.3162 8.34961V3.30961H68.9462L71.5747 7.24711V3.30961H72.2047V8.34961H71.5747L68.9462 4.40861V8.34961H68.3162ZM75.2554 8.45461C74.7537 8.45461 74.3279 8.34378 73.9779 8.12211C73.6279 7.90044 73.3607 7.59244 73.1764 7.19811C72.9944 6.80378 72.9034 6.34761 72.9034 5.82961C72.9034 5.31161 72.9944 4.85544 73.1764 4.46111C73.3607 4.06678 73.6279 3.75878 73.9779 3.53711C74.3279 3.31544 74.7537 3.20461 75.2554 3.20461C75.7594 3.20461 76.1864 3.31544 76.5364 3.53711C76.8864 3.75878 77.1524 4.06678 77.3344 4.46111C77.5164 4.85544 77.6074 5.31161 77.6074 5.82961C77.6074 6.34761 77.5164 6.80378 77.3344 7.19811C77.1524 7.59244 76.8864 7.90044 76.5364 8.12211C76.1864 8.34378 75.7594 8.45461 75.2554 8.45461ZM75.2554 7.85961C75.631 7.86194 75.9437 7.77794 76.1934 7.60761C76.4454 7.43494 76.6332 7.19578 76.7569 6.89011C76.8829 6.58444 76.9459 6.23094 76.9459 5.82961C76.9459 5.42594 76.8829 5.07244 76.7569 4.76911C76.6332 4.46578 76.4454 4.22894 76.1934 4.05861C75.9437 3.88828 75.631 3.80194 75.2554 3.79961C74.8797 3.79728 74.567 3.88128 74.3174 4.05161C74.07 4.22194 73.8834 4.45994 73.7574 4.76561C73.6314 5.07128 73.5672 5.42594 73.5649 5.82961C73.5625 6.23094 73.6244 6.58328 73.7504 6.88661C73.8764 7.18994 74.0642 7.42794 74.3139 7.60061C74.5659 7.77094 74.8797 7.85728 75.2554 7.85961Z" fill="white"/>
</svg>
