<svg width="733" height="929" viewBox="0 0 733 929" fill="none" xmlns="http://www.w3.org/2000/svg">
<rect width="733" height="929" fill="#F7F7F7"/>
<path d="M616.052 446L695 446M38 446L83.5 446M247.267 446L174.5 446" stroke="#D4D4D4" stroke-width="2" stroke-miterlimit="10"/>
<path d="M482.669 288.409C469.589 288.788 447.284 292.149 445.432 310.491C452.108 316.253 460.128 320.24 468.752 322.085C468.752 322.085 478.106 312.863 480.215 325.247C482.323 337.632 473.89 339.477 473.89 339.477C473.89 339.477 473.627 357.395 466.776 368.989C462.673 375.992 460.833 384.09 461.506 392.178C461.506 392.178 478.633 373.206 510.254 378.739C541.875 384.273 525.538 364.773 526.065 358.449C526.592 352.125 524.22 345.537 519.477 336.051C514.734 326.565 519.893 310.59 509.2 299.16C508.882 298.82 508.56 298.49 508.236 298.169C504.855 294.9 500.846 292.349 496.452 290.672C492.058 288.994 487.369 288.224 482.669 288.409Z" fill="#070707"/>
<path d="M445.322 310.477C444.632 313.212 444.256 316.018 444.201 318.838C444.169 320.262 444.225 321.686 444.369 323.103L444.501 324.158L444.569 325.062L444.488 325.935C444.399 326.209 444.361 326.495 444.264 326.766C443.778 327.903 443.051 328.921 442.132 329.749C441.045 330.703 440.06 331.766 439.192 332.923C438.742 333.614 438.546 334.44 438.638 335.26C438.703 336.05 439.015 336.8 439.53 337.402C440.62 338.451 442.074 339.034 443.586 339.028L443.246 338.679C443.169 342.049 443.023 345.411 443.096 348.803C443.099 352.264 443.623 355.704 444.651 359.008C444.96 359.933 445.429 360.796 446.036 361.559C446.216 361.779 446.422 361.977 446.649 362.147L447.014 362.411L447.452 362.617C447.69 362.721 447.937 362.801 448.191 362.854L448.866 363.027C450.592 363.346 452.347 363.48 454.102 363.427C457.507 363.349 460.899 362.967 464.236 362.284L463.788 362.192C464.765 362.721 465.686 363.349 466.536 364.065C466.953 364.414 467.318 364.821 467.62 365.274C467.775 365.485 467.878 365.731 467.918 365.991C467.959 366.25 467.936 366.515 467.853 366.764L468.046 366.869C468.213 366.593 468.309 366.28 468.324 365.959C468.339 365.637 468.274 365.316 468.133 365.026C467.889 364.459 467.564 363.93 467.167 363.457C466.38 362.54 465.481 361.726 464.492 361.033L464.343 360.924L464.044 360.941C460.732 361.131 457.392 361.301 454.119 361.199C452.518 361.168 450.922 361.012 449.346 360.732L448.802 360.594C448.644 360.566 448.491 360.52 448.344 360.456C448.3 360.435 448.255 360.417 448.209 360.403L448.069 360.293C447.959 360.213 447.859 360.122 447.769 360.022C447.314 359.482 446.955 358.87 446.707 358.21C445.673 355.119 444.988 351.922 444.666 348.679C444.184 345.373 443.937 342.037 443.927 338.696L443.93 338.354L443.586 338.347C442.941 338.366 442.298 338.248 441.702 338C441.106 337.752 440.569 337.38 440.128 336.908C439.758 336.42 439.575 335.815 439.611 335.204C439.616 334.622 439.83 334.062 440.214 333.625C441.16 332.674 442.193 331.815 443.301 331.059C444.552 330.129 445.526 328.875 446.116 327.432C446.245 327.044 446.349 326.649 446.425 326.247C446.459 325.845 446.479 325.441 446.497 325.04L446.375 323.866L446.215 322.855C445.99 321.523 445.867 320.165 445.757 318.8C445.579 316.069 445.503 313.297 445.539 310.509L445.322 310.477Z" fill="#070707"/>
<path d="M450.965 330.056C450.538 330.041 450.134 329.861 449.837 329.554C449.54 329.247 449.374 328.836 449.374 328.409C449.374 327.982 449.54 327.572 449.837 327.264C450.134 326.957 450.538 326.777 450.965 326.762C451.392 326.777 451.796 326.957 452.093 327.264C452.39 327.572 452.556 327.982 452.556 328.409C452.556 328.836 452.39 329.247 452.093 329.554C451.796 329.861 451.392 330.041 450.965 330.056ZM445.431 334.47C445.314 334.849 445.229 335.238 445.175 335.631C445.145 335.837 445.135 336.045 445.143 336.252C445.152 336.388 445.225 336.417 445.327 336.585C445.457 336.918 445.493 337.28 445.431 337.632C445.66 337.749 445.919 337.79 446.173 337.751C446.426 337.711 446.66 337.592 446.843 337.412C447.096 337.159 447.264 336.833 447.324 336.48C447.384 336.127 447.333 335.764 447.178 335.441C447.023 335.119 446.772 334.852 446.459 334.678C446.146 334.504 445.787 334.431 445.431 334.47ZM458.079 323.403C457.658 322.578 456.976 321.916 456.14 321.519C455.312 321.099 454.394 320.889 453.466 320.906C452.544 320.916 451.637 321.147 450.822 321.578C450.011 321.992 449.33 322.624 448.857 323.403C449.802 323.401 450.575 323.27 451.337 323.226C452.085 323.133 452.796 323.135 453.496 323.101C455.029 323.098 456.56 323.199 458.079 323.403ZM450.965 344.483C450.304 344.354 449.63 344.305 448.958 344.337C448.361 344.367 447.768 344.444 447.184 344.569C446.602 344.695 446.032 344.869 445.478 345.088C444.849 345.334 444.255 345.66 443.71 346.058C444.287 346.434 444.934 346.686 445.613 346.798C446.291 346.911 446.985 346.882 447.652 346.714C448.302 346.574 448.922 346.324 449.487 345.975C450.098 345.611 450.606 345.097 450.965 344.483ZM474.153 336.644C473.727 336.629 473.322 336.449 473.025 336.142C472.729 335.835 472.563 335.424 472.563 334.997C472.563 334.57 472.729 334.159 473.025 333.852C473.322 333.545 473.727 333.365 474.153 333.35C474.58 333.365 474.985 333.545 475.282 333.852C475.578 334.159 475.744 334.57 475.744 334.997C475.744 335.424 475.578 335.835 475.282 336.142C474.985 336.449 474.58 336.629 474.153 336.644Z" fill="#070707"/>
<path d="M489.701 446.198L472.255 465.523L473.946 466.924L489.701 446.198Z" fill="#070707"/>
<path d="M376.749 512.008C372.419 504.613 369.111 496.664 366.918 488.379C364.712 480.111 363.139 471.687 362.213 463.18C361.702 458.929 361.336 454.666 360.949 450.379C360.811 448.182 360.472 446.003 359.936 443.868C359.347 441.752 358.595 439.684 357.685 437.685C354.154 429.748 349.49 422.496 347.013 414.377C346.369 412.364 345.836 410.318 345.415 408.247C345.218 407.212 345.039 406.173 344.925 405.131C344.79 404.12 344.743 403.1 344.787 402.081C345.112 400.018 345.656 397.995 346.41 396.047C347.129 394.049 347.935 392.067 348.827 390.142C349.05 389.652 349.283 389.205 349.525 388.713C349.664 388.407 349.751 388.079 349.783 387.744C349.825 387.448 349.834 387.149 349.81 386.85C349.734 385.744 349.56 384.646 349.29 383.57C348.801 381.454 348.205 379.395 347.69 377.318C347.148 375.261 346.768 373.165 346.555 371.049C346.456 370.006 346.451 368.924 346.455 367.871C346.441 366.833 346.567 365.798 346.83 364.793C346.953 364.324 347.192 363.894 347.526 363.541C347.859 363.189 348.276 362.926 348.737 362.777C348.978 362.688 349.22 362.599 349.473 362.523C349.517 362.511 349.639 362.464 349.619 362.481C349.612 362.476 349.628 362.482 349.646 362.485C349.724 362.52 349.796 362.567 349.858 362.625C350.206 362.986 350.503 363.392 350.743 363.832C351.765 365.704 352.655 367.643 353.409 369.638C354.993 373.62 356.439 377.664 357.916 381.698C359.41 385.727 360.843 389.777 362.531 393.758C362.956 394.765 363.432 395.749 363.958 396.706C364.494 397.767 365.351 398.633 366.407 399.179C367.518 399.684 368.777 399.761 369.942 399.394C371.045 399.053 372.072 398.501 372.966 397.769L373.186 397.595L373.189 397.3V397.289L372.965 397.76C374.301 396.708 375.366 395.351 376.072 393.804C376.247 393.398 376.382 392.975 376.474 392.542C376.561 392.083 376.588 391.71 376.637 391.294L376.831 388.903C376.921 387.346 377.109 385.796 377.393 384.263C377.575 382.838 378.176 381.498 379.118 380.413C379.226 380.302 379.35 380.208 379.487 380.135C379.605 380.038 379.74 379.966 379.886 379.922C380.025 379.878 380.181 379.805 380.3 379.775C380.385 379.758 380.472 379.759 380.556 379.777C380.841 379.813 381.272 380.343 381.527 380.997C382.044 382.415 382.372 383.895 382.504 385.399C382.823 388.514 382.925 391.648 382.808 394.778L382.801 395.033L382.955 395.32C384.07 397.195 384.924 399.213 385.495 401.318C386.049 403.429 386.297 405.609 386.233 407.79C386.155 409.984 385.82 412.161 385.237 414.276C384.674 416.385 383.866 418.42 382.828 420.339L382.607 420.739L382.706 421.147C383.594 424.818 384.525 428.482 385.638 432.091C386.708 435.713 387.93 439.287 389.25 442.823C390.556 446.364 391.965 449.865 393.477 453.324C394.988 456.79 396.565 460.198 398.332 463.584L398.752 464.389L399.605 464.137C401.619 463.448 403.494 462.404 405.14 461.054C406.714 459.786 408.213 458.428 409.629 456.986C412.44 454.127 415.008 451.086 417.509 448.005C422.487 441.825 427.147 435.432 431.866 429.107L435.405 424.365L439.102 419.748L446.506 410.514C451.354 404.282 456.524 398.311 461.588 392.246L461.424 392.1C456.152 397.982 450.727 403.738 445.691 409.837L438.037 418.902L434.213 423.439L430.548 428.106C425.724 434.369 420.975 440.674 415.946 446.722C413.425 449.736 410.833 452.69 408.074 455.433C406.718 456.805 405.283 458.097 403.778 459.304C402.361 460.459 400.755 461.363 399.032 461.974L400.305 462.528C398.609 459.253 397.04 455.84 395.565 452.42C394.087 448.993 392.705 445.527 391.419 442.021C390.135 438.517 388.938 434.984 387.827 431.421C386.696 427.866 385.747 424.259 384.838 420.643L384.716 421.45C385.837 419.355 386.703 417.133 387.295 414.831C387.903 412.548 388.242 410.201 388.305 407.839C388.417 403.059 387.125 398.35 384.589 394.296L384.735 394.838C384.796 391.611 384.63 388.383 384.239 385.179C384.06 383.516 383.658 381.884 383.045 380.327C382.858 379.895 382.615 379.488 382.323 379.118C381.963 378.656 381.455 378.331 380.885 378.197C380.579 378.136 380.264 378.14 379.959 378.208C379.719 378.279 379.484 378.364 379.253 378.461C379.023 378.546 378.807 378.666 378.614 378.817C378.406 378.942 378.215 379.093 378.046 379.267C376.88 380.586 376.145 382.231 375.94 383.98C375.674 385.578 375.508 387.191 375.444 388.81L375.297 391.173C375.28 391.902 375.137 392.622 374.872 393.302C374.273 394.668 373.358 395.874 372.203 396.819L371.976 397.008L371.978 397.289L371.978 397.3L372.201 396.831C370.688 398.105 368.589 399.003 366.865 398.199C365.134 397.421 364.329 395.245 363.402 393.371C361.642 389.482 360.146 385.449 358.643 381.429C357.136 377.408 355.66 373.372 354.04 369.383C353.251 367.367 352.351 365.397 351.342 363.482C351.072 362.976 350.732 362.51 350.333 362.098C350.199 361.972 350.042 361.873 349.87 361.808C349.752 361.766 349.626 361.755 349.502 361.775C349.42 361.788 349.339 361.809 349.26 361.837C348.999 361.914 348.736 362.007 348.472 362.102C347.915 362.3 347.407 362.616 346.983 363.029C346.577 363.466 346.278 363.99 346.109 364.562C345.127 368.953 345.852 373.328 346.819 377.523C347.285 379.628 347.832 381.712 348.258 383.793C348.486 384.807 348.626 385.838 348.675 386.877C348.708 387.315 348.643 387.756 348.484 388.167C348.241 388.631 347.966 389.131 347.732 389.613C346.771 391.562 345.906 393.542 345.121 395.567C344.275 397.609 343.653 399.737 343.266 401.913C343.183 403.039 343.203 404.17 343.325 405.293C343.419 406.389 343.58 407.472 343.758 408.551C344.131 410.703 344.639 412.828 345.277 414.916C346.592 419.059 348.251 423.085 350.237 426.952C352.127 430.827 354.153 434.621 355.923 438.47C356.812 440.374 357.551 442.344 358.134 444.362C358.661 446.391 359.001 448.463 359.15 450.554C359.576 454.819 359.985 459.113 360.54 463.387C361.107 467.66 361.768 471.926 362.663 476.148C363.055 478.269 363.613 480.358 364.08 482.462C364.65 484.544 365.164 486.64 365.81 488.7C368.23 496.993 371.854 504.886 376.565 512.128L376.749 512.008Z" fill="#070707"/>
<path d="M392.73 467.804L399.959 463.952L398.676 462.171L392.73 467.804Z" fill="#070707"/>
<path d="M431.423 428.376C430.069 426.195 428.597 424.094 427.082 422.018C425.569 419.922 423.918 417.93 422.139 416.055C421.225 415.067 420.196 414.193 419.075 413.45C418.767 413.288 418.382 413.073 418.128 412.965C417.854 412.851 417.587 412.722 417.328 412.579C416.801 412.307 416.3 411.988 415.829 411.628C413.916 409.991 412.099 408.246 410.386 406.402C408.58 404.579 406.758 402.761 404.872 401.015C403.001 399.253 401.016 397.598 399.177 395.895C397.314 394.214 395.603 392.372 394.064 390.39C393.315 389.41 392.668 388.357 392.133 387.246C391.587 386.204 391.338 385.032 391.413 383.858L391.422 383.79L391.421 383.764L391.421 383.753L391.412 383.849C391.452 383.548 391.557 383.259 391.721 383.002C391.792 382.892 391.882 382.795 391.986 382.716C392.013 382.694 392.043 382.677 392.075 382.665C392.116 382.656 392.158 382.655 392.199 382.662C392.865 382.842 393.493 383.141 394.052 383.546C395.3 384.376 396.501 385.274 397.65 386.236L401.12 389.154C401.411 389.4 401.7 389.645 402.009 389.884C402.18 390.044 402.381 390.167 402.601 390.248C402.82 390.329 403.053 390.365 403.286 390.355C403.532 390.311 403.761 390.205 403.955 390.048C404.148 389.892 404.299 389.688 404.392 389.457C404.555 389.068 404.649 388.653 404.669 388.231C404.685 386.663 404.4 385.107 403.829 383.647C403.328 382.197 402.733 380.782 402.048 379.41C400.677 376.676 399.099 374.078 397.559 371.476C395.975 368.955 394.552 366.338 393.296 363.638C393.033 363.044 392.868 362.411 392.807 361.764C392.776 361.604 392.808 361.438 392.896 361.3C392.971 361.241 393.062 361.204 393.157 361.195C393.715 361.28 394.249 361.485 394.719 361.797C395.325 362.164 395.905 362.573 396.454 363.02C398.727 364.93 400.857 367.004 402.825 369.226C404.839 371.437 406.79 373.74 408.683 376.044L409.074 376.521L409.706 376.475C413.857 376.311 417.957 377.44 421.439 379.707C425.054 382.008 428.353 384.771 431.252 387.926C434.186 391.137 436.916 394.529 439.424 398.083C440.832 399.862 442.616 401.308 444.648 402.317C446.625 403.331 448.751 404.024 450.946 404.371L450.982 404.154C446.767 403.199 443.019 400.802 440.384 397.375C438.072 393.622 435.47 390.055 432.601 386.707C429.696 383.297 426.335 380.303 422.611 377.812C418.749 375.196 414.14 373.909 409.482 374.144L410.505 374.575C408.57 372.197 406.556 369.93 404.455 367.71C402.367 365.444 400.115 363.336 397.716 361.402C397.082 360.907 396.415 360.457 395.719 360.055C394.915 359.542 393.985 359.261 393.032 359.242C392.703 359.268 392.383 359.363 392.094 359.522C391.804 359.68 391.551 359.898 391.352 360.162C391.013 360.657 390.862 361.257 390.928 361.854C391.021 362.714 391.258 363.553 391.631 364.333C392.996 367.087 394.574 369.729 396.35 372.237C398.026 374.754 399.71 377.256 401.163 379.873C401.894 381.173 402.529 382.525 403.063 383.918C403.619 385.272 403.914 386.718 403.931 388.181C403.917 388.86 403.656 389.614 403.198 389.658C402.758 389.738 402.117 389.075 401.547 388.644L398.101 385.694C396.932 384.726 395.781 383.736 394.513 382.854C393.859 382.353 393.117 381.976 392.325 381.744C392.181 381.719 392.032 381.718 391.887 381.743C391.735 381.772 391.59 381.832 391.46 381.917C391.252 382.051 391.07 382.222 390.922 382.421C390.652 382.788 390.467 383.21 390.38 383.656L390.372 383.69L390.371 383.753L390.37 383.764L390.379 383.67C390.192 385.056 390.398 386.466 390.972 387.741C391.481 388.969 392.115 390.14 392.865 391.236C394.344 393.391 396.029 395.396 397.898 397.223C399.748 399.068 401.681 400.711 403.533 402.46C405.399 404.193 407.266 405.923 409.091 407.707C410.899 409.576 412.816 411.336 414.832 412.979C415.386 413.386 415.975 413.741 416.594 414.04C416.904 414.19 417.221 414.323 417.544 414.439C417.885 414.565 418.054 414.677 418.323 414.791C419.365 415.417 420.33 416.162 421.199 417.012C424.791 420.621 428.146 424.459 431.243 428.502L431.423 428.376Z" fill="#070707"/>
<path d="M414.602 380.584L410.39 374.558L408.799 376.07L414.602 380.584Z" fill="#070707"/>
<path d="M394.838 383.589C393.757 380.429 392.53 377.338 391.312 374.243L389.424 369.63L387.467 365.049C386.158 361.998 384.783 358.978 383.42 355.951C382.005 352.95 380.643 349.924 379.183 346.944L378.509 345.566L377.107 346.13C372.371 348.035 367.662 350.011 362.983 352.058C360.653 353.108 358.307 354.117 355.996 355.214C353.674 356.28 351.369 357.391 349.07 358.52L348.599 358.751L348.793 359.154C349.54 360.697 350.308 362.232 351.097 363.759C350.66 362.096 350.194 360.444 349.711 358.8L349.434 359.433C351.879 358.673 354.317 357.896 356.737 357.074C359.169 356.282 361.566 355.402 363.98 354.564C368.787 352.836 373.565 351.035 378.314 349.161L376.238 348.348C377.633 351.358 379.126 354.322 380.565 357.312C382.057 360.276 383.536 363.247 385.081 366.186L387.407 370.591L389.801 374.963C391.437 377.859 393.064 380.759 394.838 383.589Z" fill="#070707"/>
<path d="M372.582 397.291L356.366 362.124L375.865 353.703L390.83 383.589L390.896 383.754V383.765C390.611 385.335 391.225 388.08 394.486 392.175L385.121 397.302C384.724 396.444 384.273 395.611 383.77 394.81C383.77 394.81 384.298 377.946 380.081 379C375.865 380.054 376.392 388.222 375.865 392.175C375.405 394.213 374.243 396.024 372.582 397.291Z" fill="#F24D00"/>
<path d="M399.068 396.81L399.566 397.788L387.259 404.064L386.76 403.086L399.068 396.81Z" fill="#070707"/>
<path d="M414.645 512.231C420.779 510.643 426.652 508.18 432.084 504.917C437.534 501.7 442.74 498.085 447.657 494.1C452.606 490.157 457.324 485.933 461.787 481.447C462.908 480.328 464.011 479.196 465.101 478.03C466.2 476.823 467.207 475.664 468.245 474.462L471.313 470.852C472.333 469.604 473.316 468.477 474.326 466.989L473.151 467.668C475.925 467.428 478.64 466.731 481.186 465.606C483.695 464.527 486.044 463.109 488.167 461.391C492.366 457.958 495.73 453.617 498.005 448.695L498.841 446.87L499.258 445.959C499.376 445.647 499.474 445.328 499.583 445.014L500.854 441.231C501.251 439.965 501.474 438.656 501.792 437.372C502.125 436.094 502.38 434.797 502.555 433.488C502.876 430.871 503.351 428.283 503.443 425.637C503.577 423.002 503.528 420.36 503.296 417.732C502.84 412.478 501.594 407.322 499.601 402.439C498.612 399.998 497.394 397.655 495.965 395.441C494.509 393.223 492.751 391.219 490.742 389.486C488.659 387.795 486.241 386.566 483.647 385.879L481.676 385.476C481.013 385.402 480.342 385.393 479.674 385.35L478.672 385.304L477.675 385.392L475.682 385.572C470.486 386.623 465.534 388.64 461.083 391.518L462.087 392.701C466.296 388.718 471.216 385.561 476.592 383.394C481.934 381.166 487.596 379.796 493.366 379.335C499.141 378.945 504.941 379.278 510.633 380.325C513.62 380.879 516.645 381.197 519.682 381.275C521.266 381.304 522.85 381.178 524.41 380.898C526.157 380.606 527.798 379.862 529.17 378.74L531.177 376.989L528.651 376.024L528.647 376.022L525.606 374.86L526.542 378.047C528.181 383.776 529.389 389.619 530.156 395.529C530.391 397.006 530.556 398.494 530.715 399.982C530.87 401.471 531.071 402.955 531.188 404.447L531.494 408.927L531.641 411.167L531.689 413.412C532.085 425.393 531.182 437.381 528.997 449.167C528.398 452.102 527.947 455.075 527.089 457.95L525.935 462.298C525.542 463.745 525.206 465.21 524.674 466.614L521.762 475.134C520.633 477.912 519.442 480.667 518.283 483.44C517.114 486.214 515.805 488.927 514.361 491.568C512.964 494.243 511.517 496.891 510.045 499.525C508.562 502.151 507.031 504.752 505.359 507.255C504.523 508.505 503.649 509.73 502.705 510.892C502.241 511.476 501.738 512.028 501.201 512.545C500.7 513.074 500.089 513.488 499.411 513.757L499.491 514.076C500.244 513.839 500.935 513.437 501.515 512.899C502.102 512.403 502.655 511.868 503.171 511.298C504.195 510.167 505.161 508.983 506.062 507.752C507.882 505.309 509.557 502.77 511.185 500.206C512.817 497.642 514.355 495.024 515.863 492.389C517.422 489.774 518.849 487.082 520.137 484.323C521.417 481.557 522.733 478.801 523.987 476.017L527.175 467.433C527.749 466.015 528.126 464.534 528.56 463.07L529.837 458.67C530.777 455.756 531.309 452.743 531.988 449.762C534.501 437.778 535.584 425.538 535.212 413.299L535.158 411.006L535.005 408.717L534.685 404.139C534.563 402.615 534.356 401.098 534.195 399.576C534.034 398.055 533.855 396.536 533.59 395.027C532.72 388.937 531.391 382.92 529.616 377.03L527.511 379.054L527.515 379.055L526.997 376.34C526.062 377.085 524.953 377.581 523.775 377.781C522.429 378.036 521.061 378.16 519.691 378.152C516.821 378.111 513.959 377.846 511.13 377.357C505.179 376.363 499.124 376.143 493.116 376.702C487.098 377.301 481.223 378.903 475.734 381.44C470.207 383.897 465.185 387.36 460.925 391.652L456.29 396.476L461.929 392.836C466.127 389.901 470.866 387.829 475.871 386.741L477.758 386.553L478.702 386.457L479.645 386.492C480.273 386.527 480.907 386.526 481.532 386.588L483.383 386.946C485.832 387.569 488.122 388.703 490.102 390.274C493.929 393.696 496.841 398.02 498.572 402.853C500.432 407.646 501.504 412.707 501.749 417.842C501.88 420.399 501.834 422.962 501.609 425.513C501.429 428.063 500.864 430.583 500.467 433.11C500.253 434.37 499.962 435.616 499.594 436.84C499.244 438.066 498.986 439.321 498.562 440.518L497.223 444.08C497.109 444.376 497.006 444.676 496.883 444.967L496.457 445.812L495.608 447.502C493.39 451.985 490.232 455.938 486.348 459.09C484.422 460.638 482.293 461.913 480.019 462.881C477.812 463.88 475.458 464.52 473.049 464.777L472.277 464.848L471.873 465.456C471.13 466.576 470.077 467.851 469.116 469.038L466.112 472.638L463.081 476.188C462.048 477.338 460.98 478.478 459.899 479.599C457.74 481.847 455.521 484.04 453.243 486.178C452.111 487.252 450.981 488.33 449.813 489.365C448.659 490.417 447.496 491.458 446.3 492.46C441.573 496.539 436.575 500.292 431.339 503.692C426.137 507.168 420.493 509.933 414.558 511.913L414.645 512.231ZM362.194 468.669C359.302 467.116 356.367 465.669 353.41 464.279C351.938 463.566 350.444 462.909 348.961 462.223C347.48 461.533 345.976 460.901 344.484 460.237L343.827 459.945L343.199 460.392C341.632 461.515 340.132 462.727 338.705 464.022C337.246 465.256 335.92 466.622 334.573 467.967C331.977 470.743 329.593 473.709 327.441 476.841C323.178 483.11 319.171 489.468 315.549 496.092C314.553 497.703 313.751 499.412 312.906 501.105L311.629 503.645L310.994 504.919L310.445 506.229C309.73 507.984 309.005 509.74 308.322 511.514C307.615 513.28 307.176 515.133 306.6 516.944C305.496 520.585 304.593 524.285 303.896 528.025C303.157 531.76 302.934 535.575 302.52 539.35L302.364 540.769L303.793 541.106C306.212 541.677 308.652 542.167 311.081 542.699L318.395 544.185C320.837 544.662 323.285 545.119 325.738 545.555C328.198 545.958 330.648 546.405 333.123 546.751L333.202 546.432C330.848 545.592 328.47 544.853 326.102 544.07C323.727 543.319 321.346 542.59 318.96 541.883L311.79 539.812C309.39 539.159 307.002 538.463 304.593 537.848L305.865 539.603L306.592 534.105C306.751 532.265 307.003 530.434 307.348 528.62C308.036 524.994 308.535 521.318 309.585 517.766L310.278 515.078C310.514 514.183 310.703 513.273 311.023 512.404C311.61 510.649 312.156 508.878 312.71 507.104L313.114 505.768L313.606 504.466L314.6 501.859C315.269 500.121 315.918 498.369 316.753 496.702C319.82 489.881 323.957 483.594 329.006 478.078C331.48 475.295 334.086 472.657 336.668 470.014C338.005 468.741 339.289 467.411 340.646 466.165C341.97 464.895 343.406 463.693 344.765 462.566L343.48 462.721C345.013 463.281 346.534 463.873 348.078 464.407C349.62 464.945 351.151 465.512 352.704 466.023C355.797 467.08 358.912 468.08 362.07 468.975L362.194 468.669Z" fill="#070707"/>
<path d="M529.691 383.752C545.145 385.225 560.566 386.962 575.953 388.964C583.641 389.975 591.314 391.095 598.946 392.404C606.57 393.734 614.178 395.219 621.592 397.228C625.254 398.145 628.801 399.474 632.163 401.19C632.909 401.598 633.596 402.103 634.209 402.692C634.441 402.933 634.639 403.204 634.797 403.5C634.836 403.632 634.873 403.722 634.906 403.865L634.936 404.37C634.826 406.229 634.589 408.079 634.227 409.905C632.822 417.462 630.965 425.008 629.115 432.529C625.341 447.567 621.51 462.608 617.508 477.603L605.635 522.634L599.599 545.126L593.383 567.569C591.285 575.043 589.233 582.53 587.078 589.988L580.603 612.358C576.31 627.278 571.808 642.138 567.365 657.013L568.242 656.368L515.285 654.934L462.325 653.696L409.364 652.546L382.882 652.043L356.398 651.627L357.384 651.969L321.268 624.891C309.212 615.888 297.194 606.834 285.092 597.892L285.516 598.615C284.707 592.75 284.219 586.778 283.998 580.832C283.751 574.884 283.925 568.926 284.518 563.003C284.816 560.051 285.32 557.124 286.028 554.244C286.705 551.37 287.78 548.604 289.221 546.027C290.618 543.436 292.814 541.366 295.483 540.124C298.249 539.048 301.284 538.878 304.153 539.637L304.232 539.317C301.289 538.345 298.098 538.439 295.217 539.582C292.336 540.726 289.95 542.846 288.475 545.572C286.906 548.184 285.709 551.002 284.92 553.945C284.109 556.86 283.504 559.829 283.109 562.829C282.358 568.814 282.047 574.846 282.181 580.877C282.28 586.904 282.641 592.897 283.343 598.916L283.393 599.349L283.767 599.64C295.644 608.879 307.605 618.007 319.528 627.186L355.348 654.654L355.779 654.984L356.335 654.996L382.816 655.567L409.298 656.053L462.266 656.879L515.235 657.617L568.208 658.16L568.902 658.167L569.085 657.515L581.712 612.676L588.053 590.266L594.484 567.881L607.411 523.128C611.714 508.207 616.004 493.281 620.146 478.312L626.186 455.809C628.175 448.3 630.126 440.779 631.922 433.214C633.721 425.646 635.52 418.093 636.894 410.372C637.272 408.387 637.507 406.378 637.598 404.359C637.587 404.057 637.554 403.727 637.524 403.413C637.45 403.064 637.344 402.722 637.206 402.393C636.919 401.824 636.546 401.304 636.099 400.85C635.313 400.09 634.426 399.441 633.465 398.92C629.9 397.118 626.139 395.733 622.257 394.792C614.69 392.871 607.024 391.359 599.294 390.261C591.599 389.092 583.885 388.116 576.161 387.251C568.44 386.368 560.701 385.671 552.959 385.033C545.217 384.397 537.472 383.831 529.714 383.424L529.691 383.752Z" fill="#070707"/>
<path d="M356.366 653.312C356.366 653.312 357.947 552.126 362.131 536.316C366.315 520.506 488.671 535.402 525.537 530.782C537.109 529.332 545.684 522.406 551.513 515.499C556.598 509.388 560.439 502.342 562.819 494.756C580.565 439.474 588.205 416.658 595.102 407.461C602.217 397.975 636.209 403.575 636.209 403.575C638.58 416.157 568.224 657.265 568.224 657.265L356.366 653.312Z" fill="#070707"/>
<path d="M597.48 397.136C592.676 397.133 587.934 398.221 583.611 400.317C579.287 402.413 575.496 405.462 572.522 409.235C571.022 411.121 569.686 413.132 568.527 415.246C567.427 417.383 566.481 419.597 565.698 421.87C564.859 424.137 564.204 426.413 563.603 428.697C562.974 430.978 562.428 433.273 561.869 435.564C559.649 444.727 557.649 453.906 555.199 462.942C552.907 471.974 549.801 480.78 545.918 489.251C543.959 493.42 541.512 497.342 538.629 500.935C535.786 504.514 532.167 507.401 528.046 509.377C527.541 509.638 527.016 509.858 526.476 510.033L524.874 510.62C523.758 510.865 522.692 511.232 521.529 511.385C519.219 511.707 516.929 512.158 514.594 512.377C512.261 512.602 509.928 512.835 507.589 513.019L500.556 513.432C491.167 513.838 481.761 513.931 472.357 513.819C462.953 513.796 453.551 513.417 444.152 513.093C434.754 512.736 425.361 512.224 415.967 511.797L401.881 511.06L394.841 510.672C392.54 510.574 390.188 510.306 387.82 510.17C378.359 509.463 368.863 509.361 359.39 509.868C354.52 510.065 349.699 510.908 345.051 512.376C343.793 512.814 342.597 513.415 341.495 514.165C340.148 515.035 339.158 516.361 338.706 517.899C338.195 520.48 337.919 522.72 337.644 525.111C335.65 543.921 334.589 562.688 333.613 581.516L333.461 585.055C333.435 585.639 333.415 586.242 333.411 586.859L333.404 587.31C333.389 587.372 333.404 587.441 333.388 587.5C333.367 587.622 333.319 587.737 333.247 587.837C332.958 588.116 332.612 588.327 332.231 588.456C331.851 588.585 331.447 588.628 331.048 588.582C329.982 588.546 328.925 588.361 327.91 588.031C325.755 587.307 323.69 586.338 321.757 585.141C319.771 583.942 317.857 582.63 316.022 581.211C308.687 575.364 301.862 568.904 295.621 561.901L295.372 562.116C298.342 565.772 301.444 569.321 304.678 572.764C307.907 576.228 311.35 579.486 314.988 582.517C316.825 584.042 318.749 585.46 320.749 586.764C322.776 588.115 324.953 589.227 327.237 590.077C328.449 590.516 329.717 590.779 331.003 590.858C331.716 590.893 332.43 590.812 333.117 590.618C333.931 590.397 334.653 589.921 335.177 589.26C335.461 588.89 335.661 588.462 335.763 588.007C335.81 587.781 335.838 587.553 335.848 587.323L335.87 586.892L335.959 585.171L336.185 581.663C336.838 572.292 337.582 562.921 338.416 553.55C339.262 544.192 340.011 534.808 341.133 525.523C341.261 524.358 341.438 523.218 341.58 522.063C341.649 521.481 341.741 520.92 341.837 520.364L341.977 519.525L342.047 519.105L342.082 518.895L342.117 518.776C342.366 518.046 342.867 517.428 343.529 517.034C344.378 516.463 345.298 516.005 346.265 515.672C350.609 514.332 355.103 513.532 359.643 513.291C368.962 512.685 378.31 512.676 387.63 513.263C389.96 513.368 392.289 513.607 394.691 513.682L401.749 513.963L415.867 514.408C425.278 514.69 434.694 514.803 444.109 514.896C462.939 515.047 481.768 515.1 500.6 514.499L507.663 514.21L514.727 513.725C517.083 513.584 519.434 513.206 521.792 512.957C522.969 512.843 524.161 512.492 525.347 512.267L527.08 511.701C527.665 511.531 528.235 511.315 528.785 511.056C533.253 509.099 537.216 506.152 540.376 502.437C543.521 498.793 546.206 494.776 548.371 490.476C552.525 481.916 555.759 472.939 558.017 463.696C560.436 454.55 562.341 445.312 564.355 436.14L565.927 429.286C566.451 427.001 567.029 424.735 567.758 422.563C568.438 420.365 569.275 418.217 570.262 416.139C571.302 414.092 572.514 412.138 573.885 410.297C576.642 406.597 580.152 403.524 584.184 401.282C584.68 400.983 585.196 400.72 585.729 400.494L587.308 399.768C588.401 399.39 589.472 398.921 590.602 398.645C592.833 397.969 595.139 397.572 597.468 397.465L597.48 397.136Z" fill="#070707"/>
<path d="M332.98 587.303L334.627 626.434L336.273 587.303H332.98Z" fill="#070707"/>
<path d="M352.523 653.312H360.209V726.041H352.523V653.312Z" fill="#070707"/>
<path d="M281.058 586.054H288.744V658.782H281.058V586.054Z" fill="#070707"/>
<path d="M560.99 653.312H568.676V726.041H560.99V653.312Z" fill="#070707"/>
<path d="M222.563 613.697L218.822 635.394L215.647 671.92C215.647 671.92 236.268 675.766 244.18 674.191C244.18 674.191 261.765 646.168 276.79 619.014C286.791 600.905 294.27 581.515 299.021 561.381L304.188 539.475C304.72 532.341 305.911 525.271 307.744 518.356C304.176 515.101 300.759 511.718 297.388 508.289C294.005 504.872 290.715 501.362 287.413 497.875C285.965 496.311 284.529 494.736 283.081 493.16C276.513 491.862 269.73 492.148 263.295 493.994C259.846 495.019 256.62 496.681 253.784 498.894C250.987 501.126 248.636 503.865 246.856 506.969C245.18 510.159 243.803 513.498 242.744 516.943C241.585 520.395 240.589 523.905 239.651 527.45C237.797 534.517 236.187 541.664 234.692 548.835C231.565 563.142 228.97 577.588 226.363 592.022C225.043 599.239 223.791 606.468 222.563 613.697Z" fill="#070707"/>
<path d="M195.792 654.53L218.822 635.393C219.563 628.083 220.525 620.808 221.44 613.521C222.448 606.246 223.502 598.979 224.602 591.719C225.68 584.456 226.977 577.227 228.252 569.998C229.561 562.769 230.928 555.541 232.433 548.347C233.997 541.164 235.677 534.005 237.623 526.892C238.596 523.336 239.639 519.803 240.844 516.304C241.973 512.738 243.475 509.302 245.327 506.052C247.308 502.832 249.874 500.011 252.892 497.734C255.917 495.496 259.341 493.856 262.982 492.903C266.587 491.99 270.306 491.607 274.022 491.768C277.018 491.864 279.996 492.272 282.907 492.985C281.158 491.085 279.397 489.196 277.671 487.285C274.404 483.763 271.288 480.114 267.824 476.766L269.342 477.751C269.851 478.098 270.315 478.481 270.801 478.851C271.763 479.581 272.678 480.369 273.605 481.145C275.435 482.721 277.219 484.346 278.957 486.022C282.467 489.324 285.803 492.799 289.105 496.298C292.383 499.819 295.604 503.399 298.72 507.071C301.836 510.732 304.883 514.462 307.744 518.354C317.823 480.323 343.98 461.475 343.98 461.475C343.98 461.475 285.745 428.806 267.303 443.565C248.86 458.312 240.427 465.17 215.659 535.789C190.88 606.408 177.326 634.13 177.326 634.13L195.792 654.53ZM244.017 666.063C243.793 671.101 244.173 676.147 245.149 681.094C245.45 682.342 245.864 683.559 246.389 684.729C246.836 685.857 247.218 687.009 247.533 688.18C248.186 690.463 248.301 692.867 247.867 695.202C247.356 697.465 246.143 699.509 244.401 701.042C243.965 701.433 243.507 701.799 243.031 702.14L242.293 702.631C242.016 702.814 241.732 702.997 241.475 703.194C240.561 703.96 239.569 704.626 238.515 705.183C236.283 706.068 233.914 706.562 231.513 706.642C229.052 706.814 226.562 706.85 224.073 706.821C214.093 706.506 204.141 705.591 194.271 704.081L164.618 699.792L165.524 700.707C165.551 700.518 165.593 700.331 165.649 700.148C165.737 699.889 165.85 699.64 165.986 699.405C166.278 698.887 166.635 698.408 167.047 697.98C167.929 697.064 168.92 696.26 169.998 695.585C172.246 694.186 174.627 693.015 177.106 692.086C179.623 691.13 182.155 690.335 184.798 689.558C187.424 688.763 190.026 687.88 192.607 686.937C197.823 685.134 202.826 682.765 207.526 679.873C209.896 678.412 212.037 676.609 213.88 674.522C215.787 672.443 216.857 669.734 216.886 666.914C216.885 666.887 216.874 666.861 216.854 666.842C216.835 666.823 216.809 666.812 216.781 666.812C216.754 666.812 216.728 666.822 216.708 666.841C216.688 666.86 216.676 666.885 216.675 666.912C216.427 669.6 215.219 672.108 213.272 673.978C211.367 675.868 209.212 677.488 206.867 678.794C202.118 681.381 197.134 683.509 191.982 685.151C186.859 686.917 181.562 688.067 176.303 689.98C173.664 690.955 171.135 692.204 168.756 693.706C167.524 694.489 166.401 695.432 165.418 696.511C164.896 697.079 164.448 697.71 164.085 698.39C163.627 699.172 163.399 700.067 163.425 700.972C163.432 701.196 163.518 701.41 163.668 701.576C163.819 701.742 164.023 701.849 164.245 701.877L164.332 701.888C174.246 703.158 184.177 704.329 194.14 705.211C204.107 706.061 214.036 707.143 224.036 707.793C226.538 707.954 229.048 708.059 231.578 708.014C234.184 708.063 236.777 707.646 239.235 706.782C240.412 706.212 241.525 705.518 242.553 704.71L244.112 703.682C244.654 703.3 245.175 702.888 245.672 702.448C247.709 700.649 249.096 698.228 249.616 695.56C250.054 692.954 249.879 690.281 249.105 687.755C248.757 686.516 248.311 685.307 247.77 684.14C247.212 683.059 246.758 681.927 246.414 680.759C245.251 675.934 244.52 671.015 244.228 666.06C244.227 666.046 244.224 666.032 244.218 666.02C244.212 666.007 244.204 665.996 244.194 665.986C244.183 665.977 244.171 665.97 244.158 665.965C244.145 665.96 244.131 665.958 244.117 665.959C244.091 665.961 244.066 665.973 244.047 665.992C244.029 666.011 244.018 666.036 244.017 666.063Z" fill="#070707"/>
<path d="M236.358 679.577C236.374 681.246 236.003 682.896 235.274 684.398C234.904 685.109 234.407 685.747 233.808 686.28C233.17 686.847 232.487 687.36 231.764 687.814C232.67 687.726 233.543 687.425 234.311 686.935C235.114 686.436 235.768 685.733 236.207 684.896C236.637 684.08 236.874 683.176 236.9 682.254C236.926 681.332 236.741 680.416 236.358 679.577Z" fill="white"/>
<path d="M229.542 688.662L231.835 688.357C232.828 688.26 233.783 687.927 234.622 687.387C235.497 686.841 236.21 686.072 236.689 685.159C237.157 684.266 237.416 683.278 237.444 682.27C237.473 681.262 237.271 680.261 236.854 679.343L235.893 677.299L235.809 679.555C235.835 681.14 235.486 682.708 234.792 684.133C234.452 684.789 233.995 685.376 233.443 685.867C232.902 686.356 232.32 686.799 231.704 687.19L229.542 688.662ZM245.918 701.698C245.918 701.698 251.862 703.985 248.179 714.794C248.179 714.794 248.531 718.874 234.082 717.633L161.198 715.318C161.198 715.318 156.198 703.216 167.48 701.248L185.72 703.546C185.72 703.546 181.527 692.507 182.915 688.994C184.97 685.878 188 683.531 191.531 682.322C195.063 681.112 198.895 681.107 202.429 682.309C202.429 682.309 201.099 699.755 214.369 706.173C214.369 706.173 234.211 705.83 245.918 701.698ZM198.424 651.549C194.93 655.184 191.883 659.225 189.35 663.585C188.751 664.72 188.259 665.908 187.88 667.134C187.471 668.275 186.997 669.393 186.461 670.481C185.444 672.627 183.942 674.507 182.075 675.974C180.197 677.337 177.936 678.071 175.616 678.072C175.03 678.077 174.445 678.05 173.862 677.991L172.984 677.873C172.655 677.827 172.321 677.778 171.998 677.755C170.806 677.727 169.621 677.573 168.462 677.295C166.2 676.486 164.095 675.292 162.239 673.767C160.277 672.271 158.384 670.654 156.533 668.989C149.247 662.162 142.377 654.904 135.962 647.253L116.525 624.451L116.601 625.737C116.746 625.613 116.901 625.5 117.065 625.399C117.301 625.263 117.55 625.151 117.808 625.064C118.369 624.867 118.953 624.743 119.546 624.694C120.813 624.589 122.088 624.639 123.343 624.844C125.955 625.278 128.517 625.97 130.992 626.91C133.513 627.854 135.94 628.929 138.437 630.09C140.935 631.227 143.472 632.283 146.033 633.279C151.141 635.369 156.462 636.893 161.901 637.825C164.646 638.293 167.445 638.352 170.207 638.002C173.011 637.7 175.604 636.372 177.488 634.274C177.505 634.252 177.513 634.226 177.511 634.198C177.509 634.171 177.497 634.146 177.476 634.128C177.456 634.11 177.429 634.1 177.402 634.101C177.375 634.102 177.349 634.113 177.33 634.132C175.369 635.987 172.806 637.073 170.109 637.192C167.43 637.353 164.742 637.147 162.119 636.579C156.845 635.386 151.696 633.694 146.743 631.525C141.729 629.468 136.992 626.834 131.779 624.798C129.154 623.788 126.429 623.056 123.651 622.613C122.209 622.387 120.743 622.354 119.292 622.516C118.525 622.597 117.772 622.776 117.05 623.047C116.19 623.331 115.428 623.852 114.85 624.55C114.707 624.722 114.63 624.94 114.634 625.164C114.637 625.388 114.72 625.603 114.868 625.771L114.926 625.836C121.533 633.337 128.218 640.774 135.117 648.015C142.041 655.234 148.783 662.603 155.864 669.694C157.636 671.467 159.452 673.204 161.383 674.84C163.307 676.598 165.53 677.997 167.946 678.971C169.206 679.321 170.501 679.533 171.806 679.606L173.656 679.863C174.315 679.934 174.978 679.969 175.642 679.967C178.36 679.961 181 679.058 183.152 677.398C185.202 675.73 186.835 673.608 187.922 671.199C188.479 670.039 188.942 668.837 189.306 667.603C189.601 666.422 190.008 665.272 190.52 664.169C192.833 659.777 195.532 655.6 198.585 651.686C198.603 651.664 198.611 651.636 198.608 651.608C198.605 651.58 198.591 651.555 198.569 651.537C198.547 651.521 198.521 651.514 198.494 651.516C198.468 651.518 198.443 651.53 198.424 651.549Z" fill="#070707"/>
<path d="M183.752 656.641C182.662 657.905 181.294 658.899 179.755 659.545C179.007 659.835 178.213 659.986 177.411 659.99C176.558 659.995 175.705 659.929 174.863 659.793C175.602 660.325 176.456 660.675 177.356 660.815C178.288 660.97 179.244 660.874 180.126 660.536C180.988 660.206 181.763 659.684 182.391 659.009C183.02 658.334 183.485 657.524 183.752 656.641Z" fill="white"/>
<path d="M178.194 661.445C178.918 661.438 179.635 661.306 180.313 661.054C181.255 660.693 182.101 660.121 182.788 659.383C183.476 658.645 183.985 657.76 184.278 656.796L184.906 654.629L183.353 656.265C182.325 657.472 181.028 658.42 179.565 659.031C178.877 659.299 178.146 659.439 177.408 659.443C176.679 659.454 175.951 659.402 175.231 659.288L172.636 658.967L174.556 660.252C175.366 660.834 176.303 661.215 177.29 661.362C177.588 661.418 177.891 661.446 178.194 661.445ZM176.324 679.569C176.324 679.569 179.278 685.212 169.374 690.897C169.374 690.897 166.945 694.193 156.913 683.721L103.707 633.856C103.707 633.856 107.943 621.466 117.715 627.437L129.895 641.207C129.895 641.207 134.036 630.149 137.397 628.427C140.998 627.444 144.823 627.682 148.274 629.106C151.725 630.529 154.606 633.056 156.467 636.292C156.467 636.292 143.948 648.516 149.676 662.097C149.676 662.097 164.803 674.943 176.324 679.569Z" fill="#070707"/>
<path d="M354.744 433.805C353.521 434.445 352.391 435.251 351.388 436.2C350.856 436.7 350.396 437.272 350.022 437.898C349.561 438.62 349.363 439.478 349.46 440.328C349.545 440.799 349.736 441.245 350.019 441.631C350.29 441.981 350.621 442.28 350.997 442.515C351.666 442.916 352.399 443.201 353.163 443.357C354.558 443.642 355.989 443.713 357.406 443.566C360.113 443.194 362.785 442.603 365.397 441.798C368 441.089 370.613 440.431 373.217 439.676C375.843 438.956 378.4 438.007 380.859 436.838C383.371 435.705 385.751 434.3 387.958 432.649C389.086 431.78 390.111 430.784 391.012 429.68C391.492 429.084 391.889 428.426 392.192 427.724C392.562 426.905 392.623 425.979 392.363 425.119C392.208 424.704 391.968 424.326 391.659 424.009C391.349 423.692 390.977 423.443 390.566 423.278C389.886 422.983 389.161 422.803 388.421 422.746C387.043 422.639 385.657 422.72 384.302 422.988L384.312 423.207C385.63 423.3 386.936 423.515 388.214 423.849C388.799 424.007 389.36 424.246 389.879 424.559C390.082 424.67 390.26 424.82 390.403 425.002C390.545 425.185 390.649 425.394 390.707 425.618C390.863 426.358 390.198 427.44 389.382 428.311C388.515 429.227 387.561 430.057 386.534 430.79C384.431 432.343 382.223 433.749 379.926 434.996C377.596 436.23 375.226 437.427 372.803 438.547C367.987 440.869 362.673 441.965 357.332 441.74C356.069 441.744 354.809 441.649 353.561 441.454C352.38 441.238 351.298 440.739 351.132 440.011C351.051 439.518 351.123 439.013 351.339 438.562C351.592 438 351.904 437.466 352.269 436.969C353.073 435.918 353.944 434.92 354.876 433.981L354.744 433.805Z" fill="#070707"/>
<path d="M357.844 441.506C356.59 442.118 355.414 442.878 354.34 443.769C353.78 444.227 353.271 444.743 352.818 445.307C352.303 445.915 351.928 446.629 351.722 447.399C351.602 447.861 351.594 448.346 351.697 448.813C351.8 449.28 352.012 449.716 352.315 450.085C352.893 450.717 353.63 451.182 354.449 451.432C355.855 451.866 357.331 452.03 358.798 451.915C361.561 451.618 364.292 451.072 366.956 450.282C369.61 449.597 372.266 448.944 374.917 448.198C377.587 447.486 380.189 446.539 382.693 445.369C385.248 444.235 387.674 442.83 389.929 441.178C391.079 440.309 392.131 439.318 393.066 438.221C393.557 437.632 393.975 436.985 394.311 436.296C394.712 435.499 394.839 434.593 394.673 433.717C394.554 433.277 394.341 432.868 394.048 432.519C393.754 432.17 393.388 431.889 392.975 431.697C392.29 431.372 391.553 431.17 390.798 431.101C389.4 430.973 387.99 431.044 386.612 431.312L386.622 431.532C387.959 431.624 389.283 431.848 390.576 432.201C391.164 432.366 391.724 432.619 392.237 432.95C392.432 433.071 392.598 433.232 392.726 433.422C392.853 433.612 392.939 433.827 392.977 434.053C392.834 435.13 392.296 436.116 391.467 436.817C390.563 437.732 389.579 438.564 388.527 439.303C386.374 440.861 384.118 442.27 381.773 443.52C379.397 444.755 376.983 445.955 374.511 447.067C372.042 448.191 369.456 449.037 366.8 449.588C364.157 450.069 361.467 450.237 358.784 450.087C357.526 450.063 356.275 449.894 355.055 449.584C354.557 449.462 354.099 449.213 353.724 448.862C353.579 448.716 353.472 448.536 353.414 448.339C353.356 448.141 353.348 447.932 353.391 447.73C353.714 446.556 354.323 445.48 355.164 444.598C356.018 443.592 356.988 442.645 357.97 441.685L357.844 441.506Z" fill="#070707"/>
<path d="M144.412 357.003C146.799 353.841 147.282 351.773 148.712 348.107C150.146 344.437 151.229 340.64 151.948 336.767C152.658 332.896 153.073 328.976 153.188 325.042C153.267 321.123 153.113 317.135 153.234 313.17C153.368 309.202 153.6 305.235 154.054 301.288C154.453 297.333 155.092 293.406 155.965 289.528C156.82 285.643 158.006 281.837 159.509 278.153C160.986 274.454 163.135 271.061 165.848 268.145C163.304 271.17 161.316 274.624 159.979 278.344C158.581 282.03 157.499 285.827 156.742 289.696C155.226 297.441 154.397 305.306 154.266 313.198C154.115 317.147 154.238 321.076 154.127 325.072C154 329.055 153.531 333.019 152.725 336.921C151.908 340.818 150.72 344.628 149.178 348.299C148.394 350.125 147.503 351.903 146.509 353.624C145.975 354.844 145.269 355.982 144.412 357.003Z" fill="#020202"/>
<path d="M146.629 352.848C145.413 352.128 144.282 351.273 143.258 350.298C142.754 349.81 142.265 349.301 141.781 348.777C141.34 348.23 140.893 347.678 140.479 347.097C140.064 346.519 139.546 345.967 139.078 345.379C138.628 344.795 138.383 344.08 138.381 343.344C138.373 342.549 138.528 341.762 138.835 341.029C139.211 340.121 139.791 339.311 140.529 338.662L141.214 338.564C142.067 338.939 142.871 339.416 143.61 339.985C144.14 340.393 144.614 340.869 145.019 341.402C145.367 341.872 145.541 342.448 145.51 343.032C145.465 343.651 145.479 344.272 145.551 344.887C145.635 345.491 145.76 346.089 145.883 346.697C145.988 347.314 146.105 347.937 146.247 348.56C146.493 349.824 146.826 351.094 147.163 352.408L146.629 352.848ZM149.951 342.915C148.734 342.195 147.603 341.34 146.58 340.365C146.076 339.877 145.587 339.368 145.103 338.844C144.662 338.298 144.214 337.745 143.801 337.164C143.386 336.586 142.868 336.034 142.4 335.446C141.95 334.863 141.705 334.147 141.703 333.411C141.695 332.616 141.849 331.829 142.157 331.096C142.533 330.188 143.113 329.378 143.851 328.729L144.536 328.631C145.389 329.006 146.193 329.483 146.931 330.052C147.462 330.46 147.936 330.936 148.341 331.469C148.689 331.939 148.863 332.516 148.832 333.099C148.787 333.718 148.801 334.339 148.873 334.954C148.957 335.558 149.082 336.156 149.204 336.764C149.31 337.381 149.427 338.005 149.569 338.627C149.815 339.892 150.148 341.161 150.485 342.475L149.951 342.915ZM153.189 332.245C151.973 331.525 150.842 330.67 149.819 329.695C149.314 329.207 148.825 328.698 148.341 328.174C147.9 327.628 147.453 327.075 147.039 326.494C146.624 325.916 146.107 325.364 145.638 324.776C145.189 324.192 144.944 323.477 144.942 322.741C144.934 321.946 145.088 321.159 145.395 320.426C145.771 319.518 146.351 318.708 147.09 318.059L147.774 317.961C148.627 318.336 149.432 318.813 150.17 319.382C150.701 319.79 151.175 320.266 151.579 320.799C151.927 321.269 152.101 321.845 152.07 322.429C152.026 323.048 152.039 323.669 152.112 324.284C152.196 324.888 152.32 325.486 152.443 326.094C152.548 326.711 152.665 327.334 152.808 327.957C153.054 329.221 153.386 330.491 153.723 331.805L153.189 332.245ZM153.826 318.203C152.609 317.484 151.479 316.629 150.455 315.654C149.951 315.166 149.462 314.656 148.978 314.133C148.537 313.586 148.089 313.033 147.676 312.452C147.261 311.875 146.743 311.323 146.275 310.734C145.825 310.151 145.58 309.436 145.578 308.699C145.57 307.905 145.724 307.117 146.032 306.385C146.408 305.476 146.988 304.666 147.726 304.017L148.411 303.92C149.264 304.295 150.068 304.772 150.807 305.341C151.337 305.748 151.811 306.225 152.216 306.758C152.564 307.228 152.738 307.804 152.707 308.388C152.662 309.006 152.676 309.627 152.748 310.243C152.832 310.846 152.957 311.444 153.079 312.052C153.185 312.67 153.302 313.293 153.444 313.915C153.69 315.18 154.023 316.45 154.36 317.763L153.826 318.203ZM154.428 303.856C153.212 303.137 152.081 302.282 151.057 301.307C150.553 300.818 150.064 300.309 149.58 299.786C149.139 299.239 148.692 298.686 148.278 298.105C147.863 297.528 147.345 296.975 146.877 296.387C146.427 295.804 146.182 295.089 146.18 294.352C146.172 293.558 146.327 292.77 146.634 292.038C147.01 291.129 147.59 290.32 148.328 289.67L149.013 289.573C149.866 289.948 150.671 290.425 151.409 290.994C151.939 291.401 152.413 291.878 152.818 292.411C153.166 292.881 153.34 293.457 153.309 294.041C153.264 294.659 153.278 295.28 153.35 295.896C153.434 296.5 153.559 297.097 153.682 297.705C153.787 298.323 153.904 298.946 154.046 299.568C154.292 300.833 154.625 302.103 154.962 303.416L154.428 303.856ZM156.712 290.458C155.495 289.739 154.364 288.884 153.341 287.909C152.836 287.421 152.347 286.911 151.863 286.388C151.423 285.841 150.975 285.288 150.561 284.707C150.146 284.13 149.629 283.577 149.16 282.989C148.711 282.406 148.466 281.691 148.464 280.954C148.456 280.16 148.61 279.372 148.917 278.64C149.294 277.731 149.873 276.921 150.612 276.272L151.296 276.175C152.149 276.55 152.954 277.027 153.692 277.596C154.223 278.003 154.697 278.48 155.102 279.013C155.45 279.483 155.623 280.059 155.593 280.643C155.548 281.261 155.562 281.882 155.634 282.498C155.718 283.101 155.842 283.699 155.965 284.307C156.07 284.925 156.188 285.548 156.33 286.17C156.576 287.435 156.909 288.705 157.245 290.018L156.712 290.458ZM159.791 278.374C158.574 277.655 157.443 276.8 156.419 275.825C155.915 275.337 155.426 274.827 154.942 274.304C154.502 273.757 154.054 273.204 153.64 272.623C153.225 272.046 152.708 271.494 152.239 270.905C151.79 270.322 151.545 269.607 151.542 268.87C151.535 268.076 151.689 267.288 151.996 266.556C152.372 265.647 152.952 264.838 153.69 264.188L154.375 264.091C155.228 264.466 156.033 264.943 156.771 265.512C157.302 265.919 157.776 266.396 158.18 266.929C158.528 267.399 158.702 267.975 158.672 268.559C158.627 269.177 158.641 269.798 158.713 270.414C158.797 271.018 158.921 271.615 159.044 272.223C159.149 272.841 159.267 273.464 159.409 274.086C159.655 275.351 159.987 276.621 160.324 277.934L159.791 278.374Z" fill="#020202"/>
<path d="M146.203 351.665C147.314 350.887 148.393 350.14 149.403 349.34C149.917 348.96 150.411 348.564 150.893 348.163C151.382 347.782 151.866 347.409 152.323 347.006C152.778 346.585 153.193 346.123 153.561 345.625C153.918 345.161 154.426 344.837 154.996 344.707C155.65 344.566 156.32 344.513 156.988 344.549C157.919 344.598 158.84 344.759 159.732 345.03L160.188 345.55C160.326 346.523 160.238 347.516 159.933 348.45C159.689 349.206 159.293 349.904 158.77 350.502C158.289 351.06 157.637 351.443 156.916 351.593C156.178 351.735 155.426 351.817 154.734 351.985C154.042 352.157 153.342 352.285 152.652 352.413C151.944 352.495 151.241 352.563 150.54 352.606C149.129 352.68 147.714 352.592 146.322 352.346L146.203 351.665ZM150.687 342.355C151.492 341.264 152.277 340.211 152.979 339.131C153.344 338.608 153.687 338.074 154.016 337.541C154.357 337.024 154.697 336.516 155.001 335.988C155.299 335.444 155.545 334.873 155.735 334.284C155.926 333.731 156.303 333.262 156.802 332.956C157.376 332.614 157.994 332.35 158.639 332.171C159.537 331.921 160.462 331.78 161.393 331.752L161.991 332.099C162.433 332.978 162.666 333.946 162.675 334.929C162.685 335.724 162.532 336.512 162.227 337.245C161.949 337.927 161.454 338.498 160.818 338.87C160.163 339.24 159.477 339.558 158.875 339.938C158.274 340.322 157.652 340.666 157.038 341.007C156.393 341.312 155.749 341.6 155.098 341.864C153.784 342.384 152.415 342.753 151.017 342.963L150.687 342.355ZM152.612 331.76C153.255 330.566 153.883 329.414 154.427 328.246C154.714 327.676 154.978 327.099 155.229 326.525C155.494 325.965 155.759 325.414 155.985 324.848C156.203 324.268 156.366 323.669 156.472 323.058C156.582 322.484 156.889 321.966 157.34 321.594C157.861 321.174 158.436 320.825 159.049 320.557C159.903 320.183 160.798 319.913 161.716 319.754L162.358 320.014C162.918 320.821 163.286 321.747 163.433 322.719C163.555 323.504 163.515 324.306 163.316 325.075C163.137 325.789 162.727 326.425 162.15 326.883C161.554 327.341 160.919 327.752 160.377 328.213C159.836 328.678 159.269 329.106 158.709 329.531C158.113 329.923 157.516 330.299 156.91 330.652C155.682 331.352 154.378 331.91 153.024 332.316L152.612 331.76ZM153.806 316.99C154.449 315.796 155.077 314.644 155.621 313.475C155.908 312.906 156.172 312.329 156.423 311.755C156.688 311.194 156.953 310.644 157.18 310.078C157.398 309.498 157.56 308.898 157.666 308.288C157.776 307.713 158.083 307.196 158.534 306.824C159.055 306.403 159.63 306.055 160.243 305.787C161.097 305.412 161.992 305.143 162.91 304.984L163.551 305.243C164.112 306.051 164.48 306.977 164.627 307.949C164.749 308.734 164.709 309.536 164.51 310.305C164.331 311.019 163.921 311.654 163.345 312.112C162.748 312.571 162.113 312.982 161.571 313.443C161.03 313.907 160.463 314.336 159.903 314.761C159.307 315.153 158.71 315.529 158.104 315.882C156.876 316.582 155.572 317.14 154.218 317.545L153.806 316.99ZM154.643 302.838C155.286 301.644 155.914 300.492 156.457 299.323C156.745 298.753 157.009 298.177 157.26 297.602C157.525 297.042 157.79 296.492 158.016 295.926C158.234 295.346 158.397 294.746 158.503 294.135C158.613 293.561 158.92 293.044 159.371 292.671C159.892 292.251 160.467 291.903 161.08 291.635C161.934 291.26 162.829 290.991 163.747 290.832L164.388 291.091C164.949 291.899 165.317 292.824 165.464 293.797C165.586 294.582 165.546 295.383 165.347 296.153C165.168 296.867 164.758 297.502 164.181 297.96C163.585 298.418 162.95 298.83 162.408 299.291C161.867 299.755 161.3 300.184 160.74 300.608C160.144 301 159.547 301.377 158.941 301.73C157.713 302.43 156.409 302.988 155.055 303.393L154.643 302.838ZM156.086 289.441C157.043 288.481 157.976 287.557 158.831 286.593C159.269 286.13 159.687 285.653 160.092 285.175C160.507 284.714 160.918 284.262 161.297 283.785C161.673 283.292 162 282.764 162.276 282.209C162.547 281.69 162.989 281.282 163.528 281.055C164.147 280.802 164.798 280.632 165.462 280.551C166.387 280.437 167.322 280.435 168.247 280.546L168.787 280.978C169.093 281.912 169.18 282.905 169.043 283.878C168.935 284.665 168.667 285.422 168.256 286.102C167.88 286.735 167.305 287.226 166.621 287.5C165.919 287.768 165.193 287.981 164.542 288.267C163.89 288.557 163.224 288.805 162.566 289.052C161.883 289.256 161.203 289.446 160.52 289.61C159.144 289.929 157.735 290.091 156.322 290.091L156.086 289.441ZM159.163 277.884C159.806 276.69 160.434 275.538 160.978 274.369C161.265 273.799 161.529 273.223 161.78 272.649C162.045 272.088 162.31 271.538 162.536 270.972C162.754 270.392 162.917 269.792 163.023 269.181C163.133 268.607 163.44 268.09 163.891 267.717C164.412 267.297 164.987 266.949 165.6 266.681C166.454 266.306 167.349 266.037 168.267 265.878L168.909 266.137C169.469 266.945 169.837 267.87 169.984 268.843C170.106 269.628 170.066 270.429 169.867 271.199C169.688 271.913 169.278 272.548 168.701 273.006C168.105 273.464 167.47 273.876 166.928 274.337C166.387 274.801 165.82 275.23 165.26 275.654C164.664 276.046 164.067 276.423 163.461 276.776C162.233 277.476 160.929 278.034 159.575 278.439L159.163 277.884ZM183.752 329.986C181.055 332.531 178.813 335.519 177.123 338.819C177.034 338.967 176.955 339.125 176.876 339.283C176.846 339.331 176.819 339.38 176.797 339.432C176.787 339.442 176.787 339.451 176.777 339.461C175.146 342.615 173.765 345.892 172.647 349.262V349.272C172.625 349.343 172.599 349.412 172.568 349.479V349.499C172.47 349.796 172.381 350.082 172.282 350.379C172.242 350.507 172.203 350.635 172.163 350.764C172.123 350.863 172.093 350.965 172.074 351.07C171.541 352.75 171.047 354.449 170.592 356.148H169.664C170.168 354.261 170.741 352.374 171.393 350.527C171.442 350.398 171.482 350.26 171.531 350.132C171.798 349.371 172.074 348.62 172.371 347.869V347.859C173.458 344.929 174.759 342.082 176.263 339.343C176.283 339.313 176.293 339.293 176.313 339.264C176.323 339.254 176.323 339.234 176.333 339.224C176.55 338.839 176.777 338.463 177.024 338.078V338.068C178.781 335.005 181.058 332.27 183.752 329.986Z" fill="#020202"/>
<path d="M172.168 351.137C171.039 350.286 170.011 349.309 169.104 348.226C168.658 347.684 168.229 347.123 167.806 346.548C167.43 345.956 167.047 345.356 166.701 344.732C166.353 344.112 165.901 343.505 165.502 342.868C165.12 342.238 164.957 341.5 165.038 340.768C165.119 339.978 165.361 339.212 165.748 338.519C166.224 337.658 166.891 336.919 167.697 336.356L168.388 336.336C169.194 336.804 169.94 337.369 170.61 338.017C171.092 338.481 171.509 339.008 171.851 339.583C172.145 340.089 172.252 340.681 172.157 341.258C172.043 341.867 171.987 342.486 171.989 343.106C172.005 343.715 172.062 344.323 172.116 344.941C172.151 345.566 172.198 346.199 172.269 346.833C172.372 348.118 172.56 349.417 172.747 350.76L172.168 351.137ZM176.583 339.474C175.454 338.623 174.426 337.647 173.519 336.563C173.072 336.021 172.644 335.461 172.221 334.886C171.845 334.293 171.462 333.694 171.116 333.07C170.768 332.45 170.316 331.843 169.916 331.206C169.535 330.576 169.372 329.838 169.452 329.106C169.534 328.315 169.775 327.55 170.163 326.856C170.639 325.996 171.305 325.256 172.112 324.694L172.803 324.674C173.609 325.142 174.355 325.706 175.024 326.355C175.506 326.819 175.924 327.346 176.266 327.921C176.559 328.427 176.667 329.019 176.571 329.596C176.457 330.205 176.402 330.824 176.404 331.443C176.42 332.053 176.477 332.661 176.53 333.279C176.566 333.904 176.612 334.537 176.684 335.171C176.787 336.455 176.975 337.754 177.162 339.097L176.583 339.474Z" fill="#020202"/>
<path d="M171.659 350.054C172.719 349.208 173.748 348.394 174.706 347.532C175.194 347.121 175.663 346.694 176.119 346.264C176.583 345.852 177.042 345.45 177.472 345.018C177.901 344.57 178.285 344.082 178.622 343.562C178.949 343.077 179.434 342.721 179.995 342.555C180.639 342.373 181.304 342.278 181.973 342.272C182.905 342.262 183.835 342.365 184.742 342.579L185.23 343.069C185.429 344.032 185.404 345.027 185.159 345.979C184.963 346.749 184.612 347.471 184.127 348.101C183.682 348.688 183.056 349.111 182.346 349.306C181.618 349.494 180.873 349.624 180.194 349.835C179.514 350.05 178.823 350.222 178.143 350.394C177.44 350.521 176.744 350.633 176.047 350.719C174.643 350.882 173.225 350.884 171.821 350.726L171.659 350.054ZM176.013 338.915C176.786 337.801 177.539 336.726 178.211 335.626C178.56 335.092 178.887 334.548 179.2 334.006C179.527 333.479 179.852 332.962 180.14 332.425C180.422 331.873 180.651 331.295 180.824 330.7C180.999 330.142 181.362 329.662 181.852 329.343C182.417 328.984 183.027 328.702 183.666 328.505C184.556 328.228 185.477 328.06 186.407 328.006L187.015 328.335C187.481 329.201 187.743 330.162 187.78 331.144C187.813 331.938 187.684 332.73 187.4 333.472C187.141 334.162 186.663 334.747 186.038 335.138C185.395 335.526 184.718 335.864 184.127 336.261C183.538 336.662 182.925 337.024 182.322 337.383C181.686 337.706 181.051 338.013 180.408 338.296C179.109 338.854 177.752 339.262 176.361 339.513L176.013 338.915ZM129.708 356.602C129.748 356.731 129.787 356.859 129.836 356.988L129.186 356.444C128.939 356.395 128.734 356.183 128.497 356.124C128.003 354.652 127.89 354.261 127.455 352.779C127.436 352.719 127.426 352.66 127.406 352.601C126.527 349.558 125.707 346.495 125.015 343.403C124.847 342.681 124.689 341.95 124.541 341.229C124.472 340.873 124.393 340.528 124.324 340.172V340.162C123.608 336.765 123.081 333.332 122.743 329.877C122.723 329.739 122.713 329.6 122.703 329.462C122.634 328.652 122.565 327.842 122.516 327.032V327.022C122.301 323.913 122.305 320.793 122.525 317.685C122.524 317.655 122.527 317.625 122.535 317.596V317.547C122.575 317.092 122.624 316.658 122.683 316.203V316.193C123.014 312.683 123.949 309.257 125.45 306.066C124.06 309.497 123.261 313.138 123.089 316.836C123.069 317.023 123.059 317.201 123.049 317.389V317.399C123.049 317.448 123.039 317.498 123.039 317.547V317.586C122.869 321.123 122.982 324.668 123.375 328.188C123.375 328.284 123.385 328.38 123.405 328.474C123.424 328.78 123.464 329.077 123.494 329.383C123.513 329.511 123.523 329.64 123.543 329.768C123.551 329.874 123.564 329.98 123.582 330.085C124.074 334.09 124.773 338.067 125.677 342V342.019C125.717 342.217 125.756 342.385 125.815 342.583C125.816 342.624 125.826 342.665 125.845 342.701C125.868 342.858 125.901 343.013 125.944 343.166C126.675 346.297 127.515 349.4 128.443 352.482C128.73 353.47 129.026 354.438 129.333 355.417V355.426C129.412 355.693 129.501 355.94 129.58 356.207V356.217C129.619 356.345 129.669 356.474 129.708 356.602Z" fill="#020202"/>
<path d="M129.955 356.802L130.113 356.09L129.186 356.636C128.939 356.586 128.572 356.268 128.335 356.209C127.199 355.912 126.655 356.495 125.588 356.011C124.956 355.705 124.333 355.369 123.711 355.023C123.118 354.638 122.525 354.253 121.952 353.828C121.379 353.413 120.707 353.047 120.085 352.632C119.476 352.218 119.021 351.613 118.791 350.913C118.536 350.16 118.439 349.364 118.504 348.572C118.573 347.591 118.871 346.64 119.374 345.795L119.996 345.489C120.922 345.583 121.834 345.786 122.713 346.092C123.342 346.318 123.94 346.623 124.491 347.001C124.97 347.341 125.315 347.837 125.469 348.404C125.617 349.005 125.822 349.59 126.082 350.152C126.349 350.696 126.655 351.229 126.961 351.773C127.109 352.049 127.248 352.326 127.406 352.603C127.564 352.879 127.722 353.156 127.89 353.423C128.315 354.193 128.789 354.954 129.273 355.735C129.372 355.892 129.471 356.051 129.579 356.209V356.219C129.659 356.337 129.738 356.456 129.817 356.584C129.866 356.653 129.906 356.732 129.955 356.802ZM125.696 343.559C124.316 343.254 122.975 342.792 121.699 342.184C121.068 341.876 120.445 341.544 119.822 341.197C119.234 340.815 118.637 340.428 118.063 340.005C117.489 339.585 116.825 339.22 116.197 338.807C115.589 338.392 115.134 337.789 114.903 337.089C114.648 336.337 114.55 335.54 114.614 334.748C114.69 333.768 114.989 332.818 115.489 331.971L116.11 331.666C117.037 331.757 117.95 331.961 118.829 332.272C119.46 332.495 120.058 332.8 120.608 333.181C121.085 333.519 121.43 334.013 121.582 334.578C121.732 335.179 121.938 335.766 122.198 336.328C122.465 336.876 122.769 337.406 123.075 337.945C123.367 338.499 123.672 339.055 124 339.602C124.627 340.728 125.338 341.832 126.066 342.976L125.696 343.559ZM123.702 330.115C122.323 329.81 120.982 329.348 119.706 328.74C119.075 328.432 118.452 328.1 117.829 327.753C117.241 327.37 116.643 326.984 116.07 326.56C115.495 326.14 114.832 325.776 114.204 325.363C113.596 324.948 113.141 324.344 112.91 323.645C112.655 322.892 112.557 322.096 112.621 321.304C112.697 320.324 112.996 319.374 113.496 318.527L114.117 318.222C115.044 318.313 115.957 318.517 116.835 318.828C117.467 319.05 118.065 319.356 118.615 319.737C119.092 320.075 119.436 320.569 119.589 321.134C119.738 321.735 119.944 322.321 120.204 322.884C120.472 323.432 120.776 323.961 121.082 324.501C121.373 325.055 121.679 325.611 122.007 326.158C122.634 327.284 123.345 328.387 124.073 329.531L123.702 330.115ZM122.874 317.673C121.494 317.367 120.153 316.906 118.878 316.297C118.247 315.99 117.624 315.658 117 315.31C116.412 314.928 115.815 314.541 115.241 314.118C114.667 313.698 114.004 313.334 113.376 312.92C112.767 312.506 112.312 311.902 112.081 311.203C111.826 310.45 111.728 309.653 111.793 308.861C111.868 307.881 112.168 306.931 112.668 306.085L113.288 305.779C114.215 305.871 115.128 306.074 116.007 306.385C116.638 306.608 117.237 306.913 117.787 307.294C118.264 307.633 118.608 308.127 118.76 308.691C118.91 309.293 119.116 309.879 119.376 310.441C119.643 310.989 119.947 311.519 120.253 312.058C120.545 312.613 120.85 313.168 121.178 313.716C121.806 314.841 122.516 315.945 123.245 317.089L122.874 317.673Z" fill="#020202"/>
<path d="M129.186 356.235C129.426 354.9 129.665 353.609 129.819 352.33C129.915 351.699 129.987 351.069 130.046 350.445C130.125 349.83 130.205 349.225 130.245 348.616C130.272 347.997 130.24 347.377 130.15 346.764C130.077 346.183 130.208 345.596 130.521 345.102C130.886 344.541 131.324 344.031 131.823 343.586C132.518 342.964 133.286 342.43 134.109 341.994L134.799 342.041C135.583 342.634 136.22 343.4 136.662 344.278C137.022 344.986 137.233 345.761 137.283 346.554C137.335 347.288 137.143 348.019 136.737 348.634C136.312 349.255 135.837 349.843 135.465 350.45C135.095 351.059 134.689 351.643 134.289 352.221C133.844 352.778 133.394 353.322 132.927 353.846C131.977 354.893 130.912 355.828 129.751 356.634L129.186 356.235ZM125.584 342.523C125.824 341.188 126.063 339.898 126.216 338.618C126.313 337.987 126.384 337.357 126.444 336.734C126.522 336.118 126.603 335.513 126.642 334.905C126.669 334.286 126.638 333.665 126.548 333.052C126.475 332.472 126.606 331.884 126.919 331.39C127.283 330.829 127.721 330.319 128.221 329.874C128.916 329.253 129.683 328.718 130.507 328.282L131.197 328.329C131.98 328.923 132.618 329.688 133.059 330.566C133.419 331.275 133.631 332.049 133.681 332.842C133.732 333.577 133.54 334.308 133.134 334.922C132.71 335.543 132.234 336.132 131.863 336.738C131.492 337.348 131.086 337.932 130.687 338.509C130.242 339.067 129.792 339.61 129.324 340.134C128.375 341.181 127.309 342.117 126.148 342.923L125.584 342.523ZM122.792 329.341C123.404 328.131 124.003 326.963 124.516 325.781C124.789 325.204 125.038 324.621 125.274 324.041C125.525 323.474 125.776 322.917 125.988 322.345C126.191 321.76 126.339 321.156 126.428 320.543C126.524 319.966 126.818 319.441 127.26 319.057C127.77 318.624 128.335 318.261 128.942 317.978C129.785 317.581 130.673 317.289 131.587 317.107L132.235 317.35C132.816 318.143 133.207 319.059 133.379 320.027C133.521 320.809 133.502 321.611 133.322 322.385C133.161 323.104 132.768 323.749 132.203 324.222C131.619 324.695 130.994 325.123 130.464 325.597C129.935 326.075 129.379 326.518 128.831 326.957C128.245 327.364 127.658 327.756 127.06 328.124C125.85 328.855 124.562 329.446 123.218 329.886L122.792 329.341ZM122.126 317.4C122.366 316.065 122.605 314.775 122.758 313.495C122.854 312.864 122.926 312.234 122.986 311.61C123.064 310.995 123.144 310.39 123.184 309.782C123.211 309.162 123.179 308.542 123.09 307.929C123.017 307.348 123.148 306.761 123.461 306.267C123.825 305.706 124.263 305.196 124.763 304.751C125.457 304.13 126.225 303.595 127.048 303.159L127.738 303.206C128.522 303.8 129.159 304.565 129.601 305.443C129.961 306.152 130.172 306.926 130.222 307.719C130.274 308.454 130.082 309.185 129.676 309.799C129.252 310.42 128.776 311.009 128.404 311.615C128.034 312.225 127.628 312.809 127.229 313.386C126.784 313.944 126.333 314.487 125.866 315.011C124.917 316.058 123.851 316.993 122.69 317.799L122.126 317.4ZM102.826 355.96C102.847 356.028 102.863 356.098 102.875 356.168V356.178C102.727 356.287 102.579 356.395 102.43 356.494L102.114 356.277C102.07 356.268 102.027 356.255 101.986 356.237C101.987 356.217 101.984 356.196 101.976 356.178C101.956 356.069 101.936 355.98 101.907 355.872V355.862C101.719 354.953 101.511 354.064 101.294 353.164V353.155C100.998 351.939 100.672 350.734 100.326 349.529C99.6243 347.246 98.8439 344.964 98.0831 342.662C97.5891 341.19 97.1149 339.718 96.6801 338.236C96.6604 338.157 96.6308 338.078 96.611 337.999V337.989C95.7316 334.966 94.9216 331.923 94.2398 328.85C94.0718 328.129 93.9137 327.407 93.7655 326.686C93.6964 326.331 93.6174 325.985 93.5482 325.629V325.619C92.8379 322.222 92.3102 318.788 91.9674 315.334C91.9477 315.196 91.9378 315.048 91.9279 314.909C91.8587 314.099 91.7895 313.299 91.7402 312.489V312.479C91.5261 309.367 91.5294 306.244 91.7501 303.132C91.7485 303.102 91.7518 303.072 91.7599 303.043V302.994C91.7994 302.549 91.8488 302.115 91.9082 301.66V301.65C92.2368 298.137 93.1729 294.707 94.6746 291.514C93.2858 294.951 92.4907 298.599 92.323 302.302C92.3033 302.48 92.2934 302.648 92.2835 302.826V302.836C92.2851 302.886 92.2818 302.935 92.2736 302.984V303.034C92.1005 306.57 92.2096 310.115 92.5997 313.635C92.5998 313.731 92.6097 313.827 92.6294 313.921V313.931C92.6492 314.237 92.6887 314.524 92.7183 314.83C92.738 314.959 92.7479 315.097 92.7676 315.225C92.7775 315.324 92.7874 315.433 92.8072 315.532C93.3025 319.54 94.0016 323.52 94.9018 327.457V327.467C94.9413 327.655 94.9808 327.822 95.0301 328.01C95.0387 328.057 95.052 328.104 95.0697 328.148V328.158C95.0932 328.312 95.1262 328.464 95.1686 328.613V328.623C95.8997 331.755 96.7492 334.857 97.6681 337.939C97.9546 338.927 98.251 339.906 98.5474 340.884C98.5573 340.894 98.5573 340.903 98.5474 340.903C98.6363 341.15 98.7252 341.407 98.8043 341.654V341.664C98.8439 341.803 98.8932 341.931 98.9328 342.059C98.9722 342.188 99.0118 342.316 99.0513 342.435V342.445C99.7824 344.707 100.543 346.96 101.225 349.272C101.61 350.685 101.976 352.097 102.312 353.52C102.46 354.162 102.598 354.805 102.727 355.457V355.466C102.77 355.629 102.803 355.794 102.826 355.96Z" fill="#020202"/>
<path d="M102.934 355.792L102.826 355.959L102.569 356.374C102.41 356.345 102.262 356.305 102.114 356.276C102.07 356.267 102.027 356.254 101.986 356.236C100.81 355.934 99.6649 355.521 98.5673 355.001C97.935 354.695 97.3125 354.359 96.6901 354.013C96.1072 353.628 95.5044 353.242 94.9314 352.818C94.3584 352.403 93.6964 352.037 93.0641 351.622C92.4585 351.204 92.0045 350.601 91.7699 349.903C91.5154 349.15 91.4179 348.353 91.4833 347.561C91.5619 346.581 91.8626 345.632 92.3627 344.785L92.9851 344.479C93.9122 344.572 94.8246 344.778 95.7021 345.091C96.3346 345.309 96.9332 345.616 97.4804 346C97.9555 346.338 98.2979 346.831 98.4486 347.394C98.6041 347.994 98.8124 348.579 99.0712 349.142C99.3379 349.696 99.6442 350.219 99.9405 350.762C100.237 351.316 100.543 351.869 100.869 352.422C101.008 352.669 101.146 352.906 101.294 353.153V353.163C101.571 353.618 101.847 354.072 102.144 354.537C102.332 354.843 102.529 355.139 102.727 355.455V355.465C102.796 355.574 102.865 355.683 102.934 355.792ZM98.8083 342.831C97.4284 342.526 96.0876 342.065 94.812 341.456C94.181 341.149 93.5582 340.816 92.9351 340.469C92.3464 340.087 91.7491 339.7 91.1755 339.277C90.6012 338.857 89.9381 338.492 89.31 338.079C88.7014 337.664 88.2464 337.061 88.0154 336.361C87.7609 335.609 87.6627 334.812 87.727 334.02C87.8026 333.04 88.102 332.09 88.602 331.244L89.2224 330.938C90.1499 331.029 91.0628 331.233 91.9411 331.544C92.5723 331.767 93.1709 332.072 93.7212 332.453C94.198 332.792 94.5421 333.285 94.6945 333.85C94.844 334.452 95.0501 335.038 95.3101 335.6C95.5775 336.148 95.8818 336.678 96.1871 337.217C96.4792 337.771 96.7843 338.327 97.1129 338.875C97.74 340 98.4506 341.104 99.1791 342.248L98.8083 342.831ZM94.9222 329.008C93.5422 328.702 92.2015 328.241 90.9258 327.632C90.2948 327.325 89.6721 326.993 89.049 326.645C88.4605 326.263 87.863 325.876 87.2894 325.453C86.7151 325.033 86.052 324.669 85.4239 324.255C84.8153 323.84 84.3603 323.237 84.1293 322.538C83.8748 321.785 83.7766 320.988 83.8408 320.196C83.9165 319.216 84.2159 318.266 84.7159 317.42L85.3363 317.114C86.2637 317.206 87.1766 317.409 88.055 317.72C88.6862 317.943 89.2849 318.248 89.8351 318.629C90.3119 318.968 90.656 319.462 90.8084 320.026C90.958 320.628 91.1641 321.214 91.424 321.776C91.6914 322.324 91.9957 322.854 92.301 323.393C92.5931 323.948 92.8985 324.503 93.2268 325.051C93.8539 326.176 94.5645 327.28 95.293 328.424L94.9222 329.008ZM92.9291 315.563C91.5491 315.258 90.2084 314.796 88.9328 314.188C88.3018 313.88 87.6787 313.548 87.0557 313.201C86.4671 312.819 85.8699 312.432 85.296 312.008C84.722 311.589 84.0586 311.224 83.4308 310.811C82.8221 310.396 82.367 309.792 82.136 309.093C81.8816 308.341 81.7835 307.544 81.8477 306.752C81.9232 305.772 82.2225 304.822 82.7226 303.975L83.3433 303.67C84.2707 303.761 85.1836 303.965 86.0619 304.276C86.693 304.498 87.2916 304.804 87.8418 305.185C88.3187 305.523 88.6629 306.017 88.8153 306.582C88.9648 307.183 89.1709 307.769 89.4309 308.332C89.6982 308.88 90.0023 309.41 90.3079 309.949C90.6001 310.503 90.9051 311.059 91.2334 311.606C91.8606 312.732 92.5714 313.836 93.2999 314.979L92.9291 315.563ZM92.1003 303.121C90.7203 302.815 89.3796 302.354 88.1039 301.745C87.4729 301.438 86.8501 301.106 86.2271 300.758C85.6385 300.376 85.0411 299.99 84.4675 299.566C83.8931 299.146 83.2301 298.782 82.602 298.368C81.9934 297.954 81.5384 297.35 81.3074 296.651C81.0529 295.898 80.9548 295.101 81.0191 294.31C81.0946 293.329 81.3939 292.379 81.894 291.533L82.5144 291.228C83.4419 291.319 84.3548 291.522 85.2331 291.834C85.8643 292.056 86.463 292.362 87.0132 292.743C87.4901 293.081 87.8343 293.575 87.9867 294.139C88.1362 294.741 88.3422 295.327 88.602 295.89C88.8695 296.437 89.1737 296.967 89.4793 297.506C89.7712 298.061 90.0766 298.617 90.4048 299.164C91.032 300.29 91.7428 301.393 92.471 302.537L92.1003 303.121Z" fill="#020202"/>
<path d="M109.969 346.416C110.016 347.15 109.822 347.879 109.416 348.491C108.991 349.114 108.517 349.706 108.141 350.309C107.776 350.922 107.37 351.504 106.965 352.078C106.521 352.641 106.076 353.184 105.612 353.708C104.784 354.617 103.867 355.441 102.875 356.168V356.178C102.727 356.286 102.579 356.395 102.43 356.494L102.114 356.277L101.976 356.178L101.867 356.099C101.877 356.02 101.897 355.95 101.907 355.871V355.862C101.986 355.417 102.065 354.972 102.144 354.538C102.203 354.202 102.263 353.856 102.312 353.52C102.381 353.075 102.44 352.631 102.5 352.186C102.598 351.564 102.668 350.931 102.727 350.309C102.806 349.687 102.885 349.084 102.924 348.481C102.954 347.861 102.924 347.239 102.836 346.624C102.76 346.045 102.889 345.457 103.201 344.964C103.565 344.4 104.004 343.889 104.505 343.442C105.201 342.824 105.967 342.29 106.788 341.852L107.479 341.901C108.261 342.496 108.9 343.259 109.346 344.134C109.705 344.845 109.916 345.622 109.969 346.416ZM98.4122 341.685C98.6522 340.35 98.8915 339.06 99.0447 337.78C99.141 337.149 99.2126 336.519 99.2724 335.896C99.3505 335.28 99.4311 334.675 99.4706 334.067C99.4977 333.448 99.4661 332.827 99.3763 332.214C99.3032 331.634 99.4343 331.046 99.747 330.552C100.112 329.991 100.55 329.481 101.049 329.036C101.744 328.415 102.511 327.88 103.335 327.444L104.025 327.491C104.809 328.085 105.446 328.85 105.888 329.729C106.248 330.437 106.459 331.211 106.509 332.004C106.56 332.739 106.368 333.47 105.963 334.084C105.538 334.705 105.063 335.294 104.691 335.9C104.321 336.51 103.915 337.094 103.515 337.671C103.07 338.229 102.62 338.772 102.153 339.296C101.203 340.343 100.138 341.279 98.9766 342.085L98.4122 341.685ZM94.81 327.973C95.05 326.639 95.2891 325.348 95.4422 324.069C95.5385 323.438 95.6101 322.808 95.6702 322.184C95.7481 321.569 95.8287 320.963 95.8683 320.355C95.8954 319.736 95.8638 319.116 95.7739 318.502C95.7009 317.922 95.8321 317.335 96.1449 316.841C96.5094 316.279 96.9474 315.77 97.4472 315.325C98.1418 314.703 98.9092 314.169 99.7327 313.732L100.423 313.78C101.207 314.373 101.844 315.139 102.285 316.017C102.645 316.725 102.857 317.5 102.907 318.292C102.958 319.027 102.766 319.758 102.36 320.373C101.936 320.994 101.46 321.582 101.088 322.188C100.718 322.798 100.312 323.382 99.9129 323.959C99.4681 324.517 99.0177 325.061 98.5505 325.584C97.601 326.631 96.5355 327.567 95.3745 328.373L94.81 327.973ZM92.018 314.792C92.6302 313.582 93.2289 312.413 93.7422 311.232C94.0152 310.655 94.2642 310.071 94.5003 309.491C94.7512 308.924 95.0018 308.367 95.2141 307.796C95.4173 307.21 95.5648 306.607 95.6545 305.993C95.7505 305.417 96.0445 304.891 96.4857 304.508C96.9958 304.074 97.5614 303.711 98.1677 303.428C99.0111 303.032 99.8996 302.739 100.813 302.557L101.461 302.8C102.042 303.593 102.433 304.509 102.605 305.477C102.747 306.259 102.728 307.061 102.548 307.835C102.387 308.554 101.994 309.2 101.429 309.672C100.845 310.145 100.221 310.573 99.6905 311.047C99.1613 311.526 98.6048 311.969 98.0568 312.407C97.4709 312.814 96.8838 313.206 96.2861 313.574C95.0765 314.305 93.7876 314.896 92.4443 315.336L92.018 314.792ZM91.3516 302.85C91.5916 301.516 91.8306 300.225 91.984 298.945C92.0803 298.315 92.1519 297.684 92.2117 297.061C92.2898 296.446 92.3702 295.84 92.41 295.232C92.437 294.613 92.4054 293.992 92.3157 293.379C92.2425 292.799 92.3736 292.212 92.6864 291.718C93.051 291.156 93.489 290.647 93.9887 290.201C94.6833 289.58 95.4508 289.046 96.2744 288.609L96.9642 288.657C97.748 289.25 98.3853 290.016 98.8271 290.894C99.1869 291.602 99.3983 292.377 99.4482 293.169C99.4998 293.904 99.3078 294.635 98.9019 295.25C98.4776 295.871 98.0022 296.459 97.6302 297.065C97.26 297.675 96.8538 298.259 96.4543 298.836C96.0095 299.394 95.5592 299.938 95.092 300.461C94.1425 301.508 93.077 302.444 91.916 303.25L91.3516 302.85Z" fill="#020202"/>
<path d="M93.8222 395.926C93.0256 392.743 88.1678 369.137 87.4159 365.945L85.2004 356.362C85.1635 356.201 85.1624 356.035 85.1972 355.874C85.2321 355.713 85.302 355.562 85.402 355.432C85.502 355.301 85.6296 355.194 85.7758 355.119C85.9219 355.043 86.0829 355.001 86.2472 354.995L86.3357 354.992L98.6854 354.609L111.035 354.323C119.269 354.194 127.502 354.032 135.735 354.001C143.968 353.925 152.202 353.897 160.435 353.998C168.668 354.075 176.901 354.375 185.135 354.586L185.219 354.588C185.623 354.598 186.006 354.769 186.285 355.062C186.563 355.355 186.714 355.746 186.704 356.15C186.701 356.242 186.69 356.334 186.672 356.424C184.561 366.507 182.371 376.577 180.455 386.695C178.53 396.813 176.78 406.961 175.13 417.127L172.76 432.395L170.524 447.686C169.033 457.88 167.39 468.047 165.702 478.206C165.613 478.741 165.339 479.227 164.927 479.58C164.515 479.933 163.993 480.131 163.451 480.137L163.399 480.137L149.567 480.297C144.956 480.337 140.346 480.435 135.735 480.427L121.903 480.438L108.071 480.307L108.03 480.306C107.447 480.301 106.884 480.09 106.44 479.711C105.996 479.333 105.699 478.81 105.602 478.235C104.58 472.21 103.669 466.165 102.698 460.131L99.955 441.999C99.0652 435.951 98.2067 429.897 97.3794 423.837C96.6045 417.769 95.7553 409.671 95.0632 403.588C95.056 403.525 95.073 403.462 95.1107 403.412C95.1484 403.361 95.2039 403.327 95.2659 403.316C95.328 403.305 95.3918 403.318 95.4446 403.353C95.4973 403.387 95.5349 403.44 95.5497 403.502C96.9873 409.453 98.2676 417.474 99.6223 423.441C100.925 429.416 102.194 435.398 103.431 441.385L107.066 459.359C108.221 465.361 109.436 471.352 110.541 477.362L108.071 475.291L121.903 475.16L135.735 475.17C140.346 475.163 144.956 475.26 149.567 475.3L163.399 475.46L161.096 477.392C162.992 467.268 164.934 457.153 167.028 447.065L173.275 416.796C175.268 406.691 177.162 396.568 178.882 386.414C180.61 376.261 182.065 366.059 183.598 355.871L185.135 357.709C176.901 357.919 168.668 358.22 160.435 358.297C152.202 358.397 143.968 358.37 135.735 358.294C127.502 358.262 119.269 358.1 111.035 357.972L98.6854 357.685L86.3357 357.302L87.4705 355.933L88.9009 365.665C89.3673 368.911 93.8918 392.579 94.3075 395.835C94.3156 395.897 94.2994 395.96 94.2624 396.012C94.2253 396.063 94.1701 396.098 94.1081 396.109C94.0461 396.121 93.9819 396.109 93.9288 396.075C93.8756 396.041 93.8375 395.988 93.8222 395.926Z" fill="#020202"/>
<path d="M170.068 439.125H101.186L103.488 451.051H167.766L170.068 439.125Z" fill="black"/>
<path d="M110.008 475.978L115.189 464.814C115.199 464.794 115.212 464.776 115.229 464.761C115.245 464.745 115.265 464.734 115.286 464.726C115.307 464.718 115.329 464.715 115.351 464.716C115.374 464.717 115.396 464.722 115.416 464.731C115.455 464.75 115.486 464.782 115.503 464.822L120.301 475.864L119.756 475.882L123.538 464.764C123.554 464.716 123.579 464.673 123.612 464.635C123.645 464.598 123.685 464.567 123.73 464.545C123.775 464.523 123.823 464.51 123.873 464.507C123.923 464.503 123.973 464.51 124.02 464.526C124.073 464.545 124.122 464.576 124.163 464.615C124.203 464.655 124.234 464.703 124.255 464.756L128.446 475.826L127.632 475.825L131.792 464.725C131.813 464.668 131.846 464.616 131.887 464.571C131.929 464.527 131.979 464.491 132.034 464.466C132.09 464.44 132.149 464.426 132.21 464.424C132.271 464.422 132.332 464.432 132.389 464.453C132.499 464.496 132.59 464.578 132.643 464.684L138.134 475.76L137.219 475.84L140.487 464.759C140.521 464.641 140.601 464.541 140.708 464.482C140.816 464.423 140.943 464.409 141.061 464.443C141.128 464.463 141.189 464.497 141.241 464.543C141.293 464.59 141.333 464.647 141.36 464.712L145.925 475.812L145.113 475.842L148.843 464.77C148.859 464.723 148.883 464.679 148.915 464.641C148.947 464.604 148.986 464.573 149.031 464.55C149.075 464.527 149.123 464.514 149.172 464.51C149.222 464.506 149.271 464.512 149.318 464.527C149.369 464.544 149.416 464.572 149.456 464.608C149.495 464.644 149.527 464.688 149.549 464.737L154.323 475.863L153.793 475.877L158.109 464.831C158.116 464.811 158.127 464.793 158.142 464.777C158.156 464.761 158.173 464.748 158.193 464.739C158.212 464.73 158.233 464.725 158.254 464.724C158.276 464.723 158.297 464.726 158.317 464.734C158.341 464.743 158.363 464.758 158.38 464.777C158.398 464.796 158.411 464.819 158.418 464.844L161.458 475.978L158.104 464.934L158.414 464.947L154.328 476.08C154.309 476.133 154.274 476.179 154.228 476.212C154.182 476.246 154.128 476.264 154.071 476.266C154.015 476.268 153.959 476.254 153.911 476.224C153.862 476.194 153.824 476.15 153.801 476.099L153.799 476.093L148.856 465.041L149.562 465.008L145.936 476.115C145.9 476.224 145.823 476.314 145.72 476.366C145.618 476.418 145.499 476.427 145.39 476.392C145.331 476.372 145.276 476.339 145.23 476.297C145.184 476.254 145.148 476.202 145.124 476.144L140.504 465.066L141.377 465.019L138.165 476.116C138.138 476.212 138.082 476.297 138.005 476.36C137.928 476.423 137.834 476.461 137.735 476.47C137.636 476.479 137.537 476.457 137.45 476.408C137.364 476.359 137.294 476.285 137.25 476.196L131.81 465.094L132.66 465.053L128.445 476.132C128.425 476.185 128.395 476.234 128.356 476.276C128.317 476.317 128.271 476.351 128.219 476.375C128.167 476.399 128.111 476.412 128.054 476.414C127.997 476.416 127.94 476.407 127.887 476.387C127.829 476.364 127.776 476.33 127.732 476.286C127.688 476.242 127.654 476.189 127.631 476.13L123.541 465.022L124.257 465.014L120.308 476.074L120.306 476.079C120.286 476.135 120.25 476.183 120.202 476.217C120.155 476.252 120.098 476.271 120.039 476.272C119.98 476.274 119.922 476.257 119.873 476.225C119.823 476.193 119.785 476.146 119.763 476.092L115.186 464.956L115.499 464.964L110.008 475.978ZM100.291 433.806L106.554 417.923C106.57 417.883 106.597 417.848 106.633 417.824C106.668 417.799 106.71 417.785 106.753 417.785C106.796 417.784 106.838 417.796 106.875 417.819C106.911 417.842 106.94 417.875 106.957 417.914L106.959 417.92C109.261 423.155 111.539 428.4 113.793 433.655L113.07 433.678L118.467 417.84C118.501 417.742 118.563 417.656 118.647 417.595C118.731 417.534 118.831 417.501 118.934 417.499C119.038 417.497 119.139 417.527 119.225 417.584C119.311 417.642 119.377 417.725 119.414 417.822L119.417 417.829L125.383 433.604L124.305 433.602L130.235 417.788C130.263 417.713 130.306 417.644 130.361 417.585C130.416 417.526 130.482 417.478 130.556 417.445C130.629 417.411 130.709 417.393 130.789 417.39C130.87 417.387 130.95 417.4 131.026 417.429C131.172 417.484 131.292 417.593 131.362 417.734L139.184 433.517L137.971 433.622L142.624 417.833C142.669 417.677 142.775 417.545 142.917 417.467C143.06 417.388 143.228 417.369 143.384 417.414C143.473 417.441 143.554 417.486 143.623 417.548C143.692 417.61 143.746 417.686 143.781 417.771L150.287 433.586L149.212 433.625L154.521 417.848L154.523 417.842C154.556 417.747 154.616 417.663 154.697 417.602C154.778 417.541 154.876 417.507 154.977 417.502C155.078 417.498 155.178 417.525 155.264 417.579C155.349 417.633 155.416 417.712 155.456 417.805L162.266 433.653L161.564 433.671C163.586 428.414 165.634 423.168 167.711 417.932L167.713 417.927C167.733 417.876 167.772 417.836 167.822 417.814C167.873 417.792 167.929 417.791 167.98 417.811C168.012 417.824 168.041 417.845 168.063 417.871C168.085 417.898 168.1 417.93 168.107 417.964L171.174 433.806L167.702 418.048L168.098 418.079C166.174 423.372 164.232 428.659 162.274 433.94C162.239 434.034 162.168 434.11 162.076 434.152C161.985 434.193 161.881 434.197 161.787 434.162C161.691 434.125 161.614 434.051 161.572 433.958L154.538 418.207L155.473 418.163L150.302 433.986C150.255 434.131 150.152 434.251 150.017 434.319C149.881 434.388 149.724 434.4 149.579 434.353C149.5 434.327 149.428 434.284 149.367 434.227C149.307 434.17 149.258 434.102 149.226 434.025L142.646 418.241L143.804 418.178L139.225 433.989C139.188 434.115 139.114 434.227 139.012 434.311C138.911 434.395 138.786 434.446 138.655 434.457C138.524 434.468 138.392 434.44 138.277 434.375C138.163 434.31 138.07 434.212 138.012 434.094L130.258 418.278L131.385 418.223L125.382 434.009C125.356 434.08 125.316 434.144 125.265 434.2C125.213 434.255 125.151 434.3 125.083 434.331C125.014 434.362 124.94 434.38 124.864 434.383C124.789 434.385 124.714 434.373 124.643 434.347C124.566 434.317 124.496 434.272 124.437 434.213C124.379 434.154 124.334 434.084 124.304 434.007L118.471 418.182L119.421 418.172L113.802 433.933C113.785 433.981 113.759 434.025 113.726 434.063C113.692 434.101 113.652 434.132 113.606 434.155C113.56 434.177 113.511 434.19 113.46 434.193C113.409 434.196 113.359 434.19 113.311 434.173C113.259 434.155 113.212 434.126 113.173 434.089C113.133 434.051 113.101 434.006 113.079 433.956C110.881 428.678 108.706 423.39 106.556 418.091L106.96 418.089L100.291 433.806ZM110.183 458.289C110.567 458.276 110.931 458.114 111.199 457.837C111.466 457.561 111.615 457.192 111.615 456.807C111.615 456.423 111.466 456.053 111.199 455.777C110.931 455.5 110.567 455.338 110.183 455.325C109.799 455.338 109.435 455.5 109.168 455.777C108.901 456.053 108.752 456.423 108.752 456.807C108.752 457.192 108.901 457.561 109.168 457.837C109.435 458.114 109.799 458.276 110.183 458.289ZM120.063 458.289C120.447 458.276 120.811 458.114 121.078 457.837C121.346 457.561 121.495 457.192 121.495 456.807C121.495 456.423 121.346 456.053 121.078 455.777C120.811 455.5 120.447 455.338 120.063 455.325C119.679 455.338 119.315 455.5 119.048 455.777C118.781 456.053 118.631 456.423 118.631 456.807C118.631 457.192 118.781 457.561 119.048 457.837C119.315 458.114 119.679 458.276 120.063 458.289ZM129.943 458.289C130.327 458.276 130.691 458.114 130.958 457.837C131.226 457.561 131.375 457.192 131.375 456.807C131.375 456.423 131.226 456.053 130.958 455.777C130.691 455.5 130.327 455.338 129.943 455.325C129.559 455.338 129.195 455.5 128.928 455.777C128.661 456.053 128.511 456.423 128.511 456.807C128.511 457.192 128.661 457.561 128.928 457.837C129.195 458.114 129.559 458.276 129.943 458.289ZM139.823 458.289C140.207 458.276 140.571 458.114 140.838 457.837C141.105 457.561 141.255 457.192 141.255 456.807C141.255 456.423 141.105 456.053 140.838 455.777C140.571 455.5 140.207 455.338 139.823 455.325C139.439 455.338 139.075 455.5 138.808 455.777C138.541 456.053 138.391 456.423 138.391 456.807C138.391 457.192 138.541 457.561 138.808 457.837C139.075 458.114 139.439 458.276 139.823 458.289ZM149.703 458.289C150.087 458.276 150.451 458.114 150.718 457.837C150.985 457.561 151.135 457.192 151.135 456.807C151.135 456.423 150.985 456.053 150.718 455.777C150.451 455.5 150.087 455.338 149.703 455.325C149.319 455.338 148.955 455.5 148.688 455.777C148.421 456.053 148.271 456.423 148.271 456.807C148.271 457.192 148.421 457.561 148.688 457.837C148.955 458.114 149.319 458.276 149.703 458.289ZM159.583 458.289C159.967 458.276 160.331 458.114 160.598 457.837C160.865 457.561 161.015 457.192 161.015 456.807C161.015 456.423 160.865 456.053 160.598 455.777C160.331 455.5 159.967 455.338 159.583 455.325C159.199 455.338 158.835 455.5 158.568 455.777C158.3 456.053 158.151 456.423 158.151 456.807C158.151 457.192 158.3 457.561 158.568 457.837C158.835 458.114 159.199 458.276 159.583 458.289Z" fill="black"/>
<path d="M344.214 250.636C344.214 251.718 344.197 252.8 344.18 253.882H340.91C340.894 252.8 340.877 251.718 340.877 250.636C340.877 247.225 341.011 243.831 341.244 240.421C341.464 236.987 341.898 233.57 342.545 230.189C343.208 233.568 343.643 236.986 343.846 240.421C344.097 243.831 344.23 247.225 344.214 250.636ZM312.967 278.854C312.934 282.363 312.85 285.872 312.6 289.38C312.379 292.917 311.945 296.437 311.299 299.923C310.645 296.439 310.21 292.918 309.998 289.38C309.731 285.872 309.664 282.363 309.631 278.854C309.647 277.952 309.647 277.034 309.664 276.132H312.934C312.951 277.034 312.951 277.952 312.967 278.854ZM329.816 266.918C329.8 269.983 329.766 273.066 329.699 276.132H326.597C326.53 273.066 326.497 269.983 326.48 266.918C326.513 262.572 326.547 258.227 326.714 253.882H329.583C329.75 258.227 329.783 262.572 329.816 266.918ZM291.981 266.918C291.964 269.983 291.931 273.066 291.864 276.132H288.761C288.694 273.066 288.661 269.983 288.644 266.918C288.678 262.572 288.711 258.227 288.878 253.882H291.747C291.914 258.227 291.947 262.572 291.981 266.918ZM278.735 278.854C278.702 282.363 278.618 285.872 278.368 289.38C278.147 292.917 277.713 296.437 277.067 299.923C276.412 296.439 275.978 292.918 275.765 289.38C275.499 285.872 275.432 282.363 275.398 278.854C275.415 277.952 275.415 277.034 275.432 276.132H278.702C278.718 277.034 278.718 277.952 278.735 278.854ZM349.602 278.854C349.569 282.363 349.485 285.872 349.235 289.38C349.014 292.917 348.58 296.437 347.934 299.923C347.279 296.439 346.845 292.918 346.632 289.38C346.366 285.872 346.299 282.363 346.265 278.854C346.282 277.952 346.282 277.034 346.299 276.132H349.569C349.585 277.034 349.585 277.952 349.602 278.854ZM311.933 250.39C311.933 251.554 311.916 252.718 311.883 253.882H308.646C308.613 252.718 308.596 251.554 308.596 250.39C308.58 246.996 308.713 243.585 308.963 240.175C309.174 236.746 309.609 233.334 310.265 229.96C310.921 233.334 311.355 236.746 311.566 240.175C311.799 243.585 311.933 246.996 311.933 250.39Z" fill="black"/>
<path d="M277.747 252.794C284.618 252.118 291.489 251.764 298.361 251.524C305.232 251.263 312.103 251.194 318.975 251.161C325.846 251.19 332.717 251.259 339.589 251.519C346.46 251.759 353.331 252.114 360.202 252.794C353.331 253.474 346.46 253.83 339.589 254.07C332.717 254.329 325.846 254.399 318.975 254.427C312.103 254.395 305.232 254.325 298.361 254.065C291.489 253.824 284.618 253.47 277.747 252.794ZM353.614 274.969C346.743 275.645 339.871 275.999 333 276.24C326.129 276.5 319.257 276.57 312.386 276.602C305.515 276.574 298.643 276.504 291.772 276.244C284.901 276.005 278.029 275.649 271.158 274.969C278.029 274.289 284.901 273.933 291.772 273.694C298.643 273.434 305.515 273.364 312.386 273.336C319.257 273.369 326.129 273.438 333 273.699C339.871 273.939 346.743 274.293 353.614 274.969Z" fill="black"/>
</svg>
