<svg width="268" height="110" viewBox="0 0 268 110" fill="none" xmlns="http://www.w3.org/2000/svg">
<path d="M142.018 11.218C142.018 76.0725 203.709 119.309 267.509 108.236V64.4725C234.291 70.2725 208.982 60.7816 200.545 35.4725C204.763 36.5271 208.982 37.0543 212.672 37.0543C239.036 37.0543 258.545 17.018 258.545 -7.76385C258.545 -36.2366 236.927 -56.2729 203.182 -56.2729C167.327 -56.2729 142.018 -32.0184 142.018 11.218ZM0.70874 11.218C0.70874 76.0725 62.3997 119.309 126.2 108.236V64.4725C92.9815 70.2725 67.6724 60.7816 59.236 35.4725C63.4542 36.5271 67.6724 37.0543 71.3633 37.0543C97.727 37.0543 117.236 17.018 117.236 -7.76385C117.236 -36.2366 95.6179 -56.2729 61.8724 -56.2729C26.0179 -56.2729 0.70874 -32.0184 0.70874 11.218Z" fill="white" fill-opacity="0.08"/>
</svg>
